{"glyphs":{"0":{"ha":833,"x_min":65,"x_max":793,"o":"m 408 -11 q 153 101 240 -11 q 65 426 65 213 q 110 735 65 607 q 242 932 156 864 q 449 1000 328 1000 q 705 888 617 1000 q 793 563 793 776 q 748 253 793 382 q 616 57 703 125 q 408 -11 529 -11 m 413 129 q 565 246 513 129 q 617 588 617 363 q 575 794 617 728 q 446 860 533 860 q 294 742 346 860 q 242 401 242 625 q 283 195 242 261 q 413 129 325 129 z "},"1":{"ha":833,"x_min":129,"x_max":751,"o":"m 751 146 l 739 0 l 129 0 l 142 146 l 356 146 l 407 783 l 196 663 l 208 822 l 497 989 l 601 989 l 535 146 l 751 146 z "},"2":{"ha":833,"x_min":72,"x_max":760,"o":"m 311 146 l 747 146 l 735 0 l 72 0 l 83 132 l 447 493 q 550 619 518 563 q 582 731 582 676 q 544 825 582 792 q 435 858 506 858 q 161 756 301 858 l 113 886 q 264 971 176 942 q 451 1001 351 1000 q 676 929 593 1001 q 760 732 760 857 q 717 575 760 650 q 572 399 675 500 l 311 146 z "},"3":{"ha":833,"x_min":38,"x_max":760,"o":"m 579 506 q 701 427 657 482 q 746 290 746 372 q 703 133 746 201 q 578 27 660 65 q 383 -11 496 -11 q 192 19 282 -11 q 38 104 103 50 l 107 235 q 386 132 239 132 q 526 173 476 132 q 575 290 575 214 q 529 395 575 361 q 390 429 483 429 l 263 429 l 274 572 l 386 572 q 533 614 481 572 q 585 732 585 656 q 544 825 585 792 q 432 858 504 858 q 161 756 296 858 l 113 886 q 264 969 174 939 q 451 1001 354 1000 q 612 971 542 1001 q 721 884 682 940 q 760 753 760 828 q 713 601 760 665 q 579 506 665 536 z "},"4":{"ha":833,"x_min":42,"x_max":800,"o":"m 789 193 l 649 193 l 633 0 l 458 0 l 474 193 l 42 193 l 51 326 l 564 989 l 711 989 l 660 333 l 800 333 l 789 193 m 485 333 l 513 706 l 226 333 l 485 333 z "},"5":{"ha":833,"x_min":67,"x_max":788,"o":"m 482 632 q 638 596 569 632 q 743 494 706 560 q 781 342 781 428 q 735 155 781 235 q 606 32 689 75 q 411 -11 522 -11 q 222 19 311 -11 q 67 104 133 49 l 138 235 q 410 132 263 132 q 556 183 503 132 q 610 324 610 235 q 562 447 610 401 q 431 492 514 492 q 319 470 371 492 q 231 407 268 449 l 122 407 l 168 989 l 788 989 l 776 850 l 333 850 l 311 586 q 482 632 386 632 z "},"6":{"ha":833,"x_min":67,"x_max":824,"o":"m 481 632 q 635 594 568 632 q 740 488 703 556 q 778 331 778 419 q 735 154 778 232 q 615 32 692 76 q 442 -12 539 -12 q 164 101 261 -12 q 67 422 67 214 q 119 728 67 597 q 269 931 172 860 q 496 1001 365 1001 q 670 972 585 1001 q 824 886 756 942 l 753 756 q 627 832 692 806 q 503 858 563 858 q 326 767 392 858 q 247 503 261 676 q 344 597 282 563 q 481 632 406 632 m 436 129 q 560 183 513 129 q 607 322 607 236 q 561 446 607 400 q 439 492 515 492 q 311 439 361 492 q 261 303 261 386 q 310 177 261 225 q 436 129 358 129 z "},"7":{"ha":833,"x_min":107,"x_max":813,"o":"m 813 989 l 803 856 l 296 0 l 107 0 l 607 843 l 113 843 l 124 989 l 813 989 z "},"8":{"ha":833,"x_min":39,"x_max":794,"o":"m 594 508 q 732 422 682 485 q 782 274 782 358 q 733 121 782 185 q 597 23 683 57 q 399 -11 510 -11 q 135 60 231 -11 q 39 256 39 131 q 99 417 39 350 q 265 510 158 485 q 144 595 189 536 q 100 731 100 654 q 147 876 100 815 q 276 969 193 938 q 465 1001 358 1001 q 637 972 563 1001 q 753 885 711 942 q 794 754 794 829 q 740 600 794 665 q 594 508 686 535 m 269 714 q 314 608 269 647 q 433 557 358 569 q 573 615 524 571 q 622 729 622 658 q 578 827 622 793 q 454 861 533 861 q 318 824 367 861 q 269 714 269 786 m 404 129 q 556 171 499 129 q 614 288 614 213 q 565 392 614 353 q 425 443 515 432 q 210 274 210 417 q 261 166 210 203 q 404 129 313 129 z "},"9":{"ha":833,"x_min":35,"x_max":792,"o":"m 417 1001 q 694 888 597 1001 q 792 567 792 775 q 740 260 792 392 q 591 58 688 129 q 364 -12 494 -12 q 188 17 274 -12 q 35 103 101 47 l 106 233 q 231 157 167 183 q 356 131 296 131 q 532 222 465 131 q 611 486 599 313 q 515 392 576 426 q 378 357 453 357 q 223 395 290 357 q 118 501 156 433 q 81 658 81 569 q 124 835 81 757 q 244 957 167 913 q 417 1001 321 1001 m 419 497 q 547 549 497 497 q 597 686 597 601 q 551 812 597 764 q 428 860 504 860 q 300 806 349 860 q 251 667 251 753 q 297 543 251 589 q 419 497 343 497 z "},"\u0000":{"ha":0,"x_min":0,"x_max":0,"o":""},"\r":{"ha":381,"x_min":0,"x_max":0,"o":""}," ":{"ha":381,"x_min":0,"x_max":0,"o":""},"A":{"ha":1042,"x_min":-26,"x_max":1014,"o":"m 757 232 l 275 232 l 158 0 l -26 0 l 497 989 l 644 989 l 1014 0 l 839 0 l 757 232 m 708 371 l 560 794 l 346 371 l 708 371 z "},"Á":{"ha":1042,"x_min":-26,"x_max":1014,"o":"m 757 232 l 275 232 l 158 0 l -26 0 l 497 989 l 644 989 l 1014 0 l 839 0 l 757 232 m 708 371 l 560 794 l 346 371 l 708 371 m 522 1074 l 678 1289 l 856 1289 l 633 1074 l 522 1074 z "},"Ă":{"ha":1042,"x_min":-26,"x_max":1014,"o":"m 757 232 l 275 232 l 158 0 l -26 0 l 497 989 l 644 989 l 1014 0 l 839 0 l 757 232 m 708 371 l 560 794 l 346 371 l 708 371 m 586 1088 q 436 1127 500 1088 q 349 1239 372 1167 l 440 1276 q 590 1196 485 1196 q 747 1276 693 1196 l 832 1239 q 736 1127 801 1167 q 586 1088 671 1088 z "},"Ắ":{"ha":1042,"x_min":-26,"x_max":1014,"o":"m 757 232 l 275 232 l 158 0 l -26 0 l 497 989 l 644 989 l 1014 0 l 839 0 l 757 232 m 708 371 l 560 794 l 346 371 l 708 371 m 688 1418 l 856 1418 l 640 1221 l 538 1221 l 688 1418 m 583 1067 q 434 1105 497 1067 q 347 1218 371 1143 l 422 1249 q 491 1183 447 1204 q 590 1161 535 1161 q 684 1183 638 1161 q 760 1249 731 1204 l 831 1218 q 730 1105 796 1143 q 583 1067 664 1067 z "},"Ặ":{"ha":1042,"x_min":-26,"x_max":1014,"o":"m 757 232 l 275 232 l 158 0 l -26 0 l 497 989 l 644 989 l 1014 0 l 839 0 l 757 232 m 708 371 l 560 794 l 346 371 l 708 371 m 572 -108 l 558 -271 l 388 -271 l 403 -108 l 572 -108 m 586 1088 q 436 1127 500 1088 q 349 1239 372 1167 l 440 1276 q 590 1196 485 1196 q 747 1276 693 1196 l 832 1239 q 736 1127 801 1167 q 586 1088 671 1088 z "},"Ằ":{"ha":1042,"x_min":-26,"x_max":1014,"o":"m 757 232 l 275 232 l 158 0 l -26 0 l 497 989 l 644 989 l 1014 0 l 839 0 l 757 232 m 708 371 l 560 794 l 346 371 l 708 371 m 363 1418 l 513 1418 l 640 1221 l 538 1221 l 363 1418 m 583 1067 q 434 1105 497 1067 q 347 1218 371 1143 l 422 1249 q 491 1183 447 1204 q 590 1161 535 1161 q 684 1183 638 1161 q 760 1249 731 1204 l 831 1218 q 730 1105 796 1143 q 583 1067 664 1067 z "},"Ẳ":{"ha":1042,"x_min":-26,"x_max":1014,"o":"m 757 232 l 275 232 l 158 0 l -26 0 l 497 989 l 644 989 l 1014 0 l 839 0 l 757 232 m 708 371 l 560 794 l 346 371 l 708 371 m 546 1249 q 565 1288 547 1274 q 613 1313 583 1301 q 635 1324 625 1318 q 644 1336 644 1329 q 606 1351 644 1351 q 510 1338 565 1351 l 492 1404 q 621 1426 550 1426 q 722 1405 685 1426 q 758 1349 758 1383 q 740 1304 758 1319 q 688 1275 722 1289 q 650 1256 663 1264 q 636 1233 638 1247 l 635 1222 l 543 1222 l 546 1249 m 583 1067 q 434 1105 497 1067 q 347 1218 371 1143 l 422 1249 q 491 1183 447 1204 q 590 1161 535 1161 q 684 1183 638 1161 q 760 1249 731 1204 l 831 1218 q 730 1105 796 1143 q 583 1067 664 1067 z "},"Ẵ":{"ha":1042,"x_min":-26,"x_max":1014,"o":"m 757 232 l 275 232 l 158 0 l -26 0 l 497 989 l 644 989 l 1014 0 l 839 0 l 757 232 m 708 371 l 560 794 l 346 371 l 708 371 m 694 1278 q 640 1285 665 1278 q 582 1308 614 1293 q 533 1327 551 1321 q 497 1333 515 1333 q 436 1282 444 1333 l 356 1282 q 403 1388 360 1349 q 506 1428 446 1428 q 559 1419 535 1428 q 618 1396 583 1411 q 666 1377 649 1383 q 701 1371 683 1371 q 761 1424 757 1371 l 842 1424 q 797 1317 840 1357 q 694 1278 753 1278 m 583 1067 q 434 1105 497 1067 q 347 1218 371 1143 l 422 1249 q 491 1183 447 1204 q 590 1161 535 1161 q 684 1183 638 1161 q 760 1249 731 1204 l 831 1218 q 730 1105 796 1143 q 583 1067 664 1067 z "},"Â":{"ha":1042,"x_min":-26,"x_max":1014,"o":"m 757 232 l 275 232 l 158 0 l -26 0 l 497 989 l 644 989 l 1014 0 l 839 0 l 757 232 m 708 371 l 560 794 l 346 371 l 708 371 m 347 1074 l 543 1289 l 646 1289 l 808 1074 l 671 1074 l 592 1201 l 485 1074 l 347 1074 z "},"Ấ":{"ha":1042,"x_min":-26,"x_max":1014,"o":"m 757 232 l 275 232 l 158 0 l -26 0 l 497 989 l 644 989 l 1014 0 l 839 0 l 757 232 m 708 371 l 560 794 l 346 371 l 708 371 m 838 1418 l 1001 1418 l 806 1221 l 717 1221 l 838 1418 m 542 1272 l 644 1272 l 808 1074 l 674 1074 l 590 1188 l 485 1074 l 347 1074 l 542 1272 z "},"Ậ":{"ha":1042,"x_min":-26,"x_max":1014,"o":"m 757 232 l 275 232 l 158 0 l -26 0 l 497 989 l 644 989 l 1014 0 l 839 0 l 757 232 m 708 371 l 560 794 l 346 371 l 708 371 m 572 -108 l 558 -271 l 388 -271 l 403 -108 l 572 -108 m 347 1074 l 543 1289 l 646 1289 l 808 1074 l 671 1074 l 592 1201 l 485 1074 l 347 1074 z "},"Ầ":{"ha":1042,"x_min":-26,"x_max":1014,"o":"m 757 232 l 275 232 l 158 0 l -26 0 l 497 989 l 644 989 l 1014 0 l 839 0 l 757 232 m 708 371 l 560 794 l 346 371 l 708 371 m 629 1418 l 774 1418 l 865 1221 l 775 1221 l 629 1418 m 542 1272 l 644 1272 l 808 1074 l 674 1074 l 590 1188 l 485 1074 l 347 1074 l 542 1272 z "},"Ẩ":{"ha":1042,"x_min":-26,"x_max":1014,"o":"m 757 232 l 275 232 l 158 0 l -26 0 l 497 989 l 644 989 l 1014 0 l 839 0 l 757 232 m 708 371 l 560 794 l 346 371 l 708 371 m 717 1249 q 736 1287 718 1274 q 785 1313 754 1300 q 807 1324 797 1318 q 817 1336 817 1329 q 778 1351 817 1351 q 683 1338 738 1351 l 664 1404 q 793 1426 722 1426 q 894 1405 857 1426 q 932 1349 932 1383 q 914 1304 932 1319 q 861 1275 896 1289 q 824 1256 836 1264 q 810 1233 811 1247 l 808 1222 l 715 1222 l 717 1249 m 542 1272 l 644 1272 l 808 1074 l 674 1074 l 590 1188 l 485 1074 l 347 1074 l 542 1272 z "},"Ẫ":{"ha":1042,"x_min":-26,"x_max":1014,"o":"m 757 232 l 275 232 l 158 0 l -26 0 l 497 989 l 644 989 l 1014 0 l 839 0 l 757 232 m 708 371 l 560 794 l 346 371 l 708 371 m 357 1294 q 405 1400 361 1361 q 507 1439 449 1439 q 560 1431 536 1439 q 619 1410 585 1424 q 663 1394 640 1401 q 703 1388 685 1388 q 763 1438 758 1388 l 843 1438 q 798 1333 842 1374 q 696 1293 754 1293 q 644 1300 668 1293 q 582 1322 619 1307 q 535 1340 554 1335 q 499 1346 517 1346 q 457 1333 474 1346 q 438 1294 440 1319 l 357 1294 m 542 1272 l 644 1272 l 808 1074 l 674 1074 l 590 1188 l 485 1074 l 347 1074 l 542 1272 z "},"Ȁ":{"ha":1042,"x_min":-26,"x_max":1014,"o":"m 757 232 l 275 232 l 158 0 l -26 0 l 497 989 l 644 989 l 1014 0 l 839 0 l 757 232 m 708 371 l 560 794 l 346 371 l 708 371 m 322 1289 l 443 1289 l 531 1074 l 442 1074 l 322 1289 m 506 1289 l 626 1289 l 714 1074 l 625 1074 l 506 1289 z "},"Ä":{"ha":1042,"x_min":-26,"x_max":1014,"o":"m 757 232 l 275 232 l 158 0 l -26 0 l 497 989 l 644 989 l 1014 0 l 839 0 l 757 232 m 708 371 l 560 794 l 346 371 l 708 371 m 549 1263 l 536 1103 l 368 1103 l 381 1263 l 549 1263 m 806 1263 l 793 1103 l 625 1103 l 638 1263 l 806 1263 z "},"Ạ":{"ha":1042,"x_min":-26,"x_max":1014,"o":"m 757 232 l 275 232 l 158 0 l -26 0 l 497 989 l 644 989 l 1014 0 l 839 0 l 757 232 m 708 371 l 560 794 l 346 371 l 708 371 m 572 -108 l 558 -271 l 388 -271 l 403 -108 l 572 -108 z "},"À":{"ha":1042,"x_min":-26,"x_max":1014,"o":"m 757 232 l 275 232 l 158 0 l -26 0 l 497 989 l 644 989 l 1014 0 l 839 0 l 757 232 m 708 371 l 560 794 l 346 371 l 708 371 m 343 1289 l 501 1289 l 633 1074 l 522 1074 l 343 1289 z "},"Ả":{"ha":1042,"x_min":-26,"x_max":1014,"o":"m 757 232 l 275 232 l 158 0 l -26 0 l 497 989 l 644 989 l 1014 0 l 839 0 l 757 232 m 708 371 l 560 794 l 346 371 l 708 371 m 624 1074 l 532 1074 l 535 1101 q 553 1140 536 1126 q 597 1167 569 1154 q 624 1183 615 1176 q 633 1199 633 1189 q 622 1213 633 1207 q 589 1218 610 1218 q 501 1203 549 1218 l 482 1272 q 607 1294 540 1294 q 710 1272 672 1294 q 749 1213 749 1249 q 729 1165 749 1182 q 675 1133 710 1149 q 638 1112 649 1119 q 625 1090 626 1104 l 624 1074 z "},"Ȃ":{"ha":1042,"x_min":-26,"x_max":1014,"o":"m 757 232 l 275 232 l 158 0 l -26 0 l 497 989 l 644 989 l 1014 0 l 839 0 l 757 232 m 708 371 l 560 794 l 346 371 l 708 371 m 586 1276 q 736 1237 672 1276 q 824 1125 800 1197 l 732 1089 q 582 1168 686 1168 q 425 1089 479 1168 l 340 1125 q 436 1237 371 1197 q 586 1276 501 1276 z "},"Ā":{"ha":1042,"x_min":-26,"x_max":1014,"o":"m 757 232 l 275 232 l 158 0 l -26 0 l 497 989 l 644 989 l 1014 0 l 839 0 l 757 232 m 708 371 l 560 794 l 346 371 l 708 371 m 375 1239 l 808 1239 l 799 1125 l 365 1125 l 375 1239 z "},"Ą":{"ha":1042,"x_min":-26,"x_max":1017,"o":"m 1017 -244 q 890 -274 956 -274 q 767 -233 814 -274 q 721 -128 721 -193 q 749 -33 721 -74 q 828 32 776 8 l 757 232 l 275 232 l 158 0 l -26 0 l 497 989 l 644 989 l 1014 0 l 960 0 q 873 -30 906 0 q 840 -103 840 -60 q 861 -158 840 -139 q 919 -178 882 -178 q 1001 -157 956 -178 l 1017 -244 m 708 371 l 560 794 l 346 371 l 708 371 z "},"Å":{"ha":1042,"x_min":-26,"x_max":1014,"o":"m 757 232 l 275 232 l 158 0 l -26 0 l 488 972 q 445 1022 461 992 q 429 1089 429 1053 q 473 1192 429 1150 q 578 1235 517 1235 q 684 1192 640 1235 q 728 1089 728 1150 q 708 1015 728 1049 q 654 963 688 982 l 1014 0 l 839 0 l 757 232 m 578 1154 q 533 1135 551 1154 q 515 1089 515 1117 q 533 1042 515 1061 q 578 1022 551 1022 q 624 1042 606 1022 q 642 1089 642 1061 q 624 1135 642 1117 q 578 1154 606 1154 m 708 371 l 560 794 l 346 371 l 708 371 z "},"Ǻ":{"ha":1042,"x_min":-26,"x_max":1014,"o":"m 757 232 l 275 232 l 158 0 l -26 0 l 488 972 q 445 1022 461 992 q 429 1089 429 1053 q 473 1192 429 1150 q 578 1235 517 1235 q 654 1215 619 1235 l 760 1324 l 939 1324 l 714 1150 q 728 1089 728 1124 q 708 1015 728 1049 q 654 963 688 982 l 1014 0 l 839 0 l 757 232 m 578 1154 q 533 1135 551 1154 q 515 1089 515 1117 q 533 1042 515 1061 q 578 1022 551 1022 q 624 1042 606 1022 q 642 1089 642 1061 q 624 1135 642 1117 q 578 1154 606 1154 m 708 371 l 560 794 l 346 371 l 708 371 z "},"Ã":{"ha":1042,"x_min":-26,"x_max":1014,"o":"m 757 232 l 275 232 l 158 0 l -26 0 l 497 989 l 644 989 l 1014 0 l 839 0 l 757 232 m 708 371 l 560 794 l 346 371 l 708 371 m 342 1092 q 390 1232 347 1186 q 499 1278 433 1278 q 549 1267 525 1278 q 604 1236 574 1256 q 627 1223 610 1233 q 658 1208 644 1213 q 685 1203 672 1203 q 730 1221 713 1203 q 750 1274 747 1239 l 831 1274 q 782 1133 825 1178 q 674 1088 739 1088 q 623 1099 647 1088 q 568 1129 599 1110 q 522 1155 538 1147 q 489 1163 506 1163 q 444 1144 461 1163 q 422 1092 426 1126 l 342 1092 z "},"Æ":{"ha":1399,"x_min":-56,"x_max":1390,"o":"m 904 847 l 904 574 l 1329 574 l 1318 432 l 904 432 l 904 142 l 1325 142 l 1313 0 l 738 0 l 739 232 l 299 232 l 143 0 l -56 0 l 636 989 l 1390 989 l 1381 847 l 904 847 m 742 847 l 711 847 l 392 371 l 739 371 l 742 847 z "},"Ǽ":{"ha":1399,"x_min":-56,"x_max":1390,"o":"m 904 847 l 904 574 l 1329 574 l 1318 432 l 904 432 l 904 142 l 1325 142 l 1313 0 l 738 0 l 739 232 l 299 232 l 143 0 l -56 0 l 636 989 l 1390 989 l 1381 847 l 904 847 m 742 847 l 711 847 l 392 371 l 739 371 l 742 847 m 738 1074 l 893 1289 l 1071 1289 l 849 1074 l 738 1074 z "},"B":{"ha":958,"x_min":82,"x_max":904,"o":"m 728 507 q 849 426 807 486 q 892 283 892 367 q 797 74 892 149 q 539 0 703 0 l 82 0 l 158 989 l 579 989 q 821 923 738 989 q 904 743 904 857 q 728 507 904 571 m 325 850 l 303 572 l 536 572 q 682 608 633 572 q 731 719 731 644 q 553 850 731 850 l 325 850 m 526 139 q 674 176 626 139 q 722 292 722 213 q 679 397 722 363 q 543 432 636 432 l 292 432 l 268 139 l 526 139 z "},"C":{"ha":951,"x_min":88,"x_max":935,"o":"m 538 -12 q 299 44 400 -12 q 142 208 197 101 q 88 458 88 314 q 149 745 88 622 q 324 935 211 868 q 589 1001 438 1001 q 781 972 693 1001 q 935 883 869 942 l 864 753 q 737 831 800 807 q 594 856 674 856 q 355 749 440 856 q 269 457 269 643 q 342 217 269 301 q 549 133 414 133 q 824 236 685 133 l 874 106 q 726 19 815 50 q 538 -12 638 -12 z "},"Ć":{"ha":951,"x_min":88,"x_max":935,"o":"m 538 -12 q 299 44 400 -12 q 142 208 197 101 q 88 458 88 314 q 149 745 88 622 q 324 935 211 868 q 589 1001 438 1001 q 781 972 693 1001 q 935 883 869 942 l 864 753 q 737 831 800 807 q 594 856 674 856 q 355 749 440 856 q 269 457 269 643 q 342 217 269 301 q 549 133 414 133 q 824 236 685 133 l 874 106 q 726 19 815 50 q 538 -12 638 -12 m 550 1074 l 706 1289 l 883 1289 l 661 1074 l 550 1074 z "},"Č":{"ha":951,"x_min":88,"x_max":935,"o":"m 538 -12 q 299 44 400 -12 q 142 208 197 101 q 88 458 88 314 q 149 745 88 622 q 324 935 211 868 q 589 1001 438 1001 q 781 972 693 1001 q 935 883 869 942 l 864 753 q 737 831 800 807 q 594 856 674 856 q 355 749 440 856 q 269 457 269 643 q 342 217 269 301 q 549 133 414 133 q 824 236 685 133 l 874 106 q 726 19 815 50 q 538 -12 638 -12 m 853 1289 l 657 1074 l 553 1074 l 392 1289 l 529 1289 l 615 1160 l 715 1289 l 853 1289 z "},"Ç":{"ha":951,"x_min":88,"x_max":935,"o":"m 874 106 q 735 22 818 53 q 558 -12 651 -10 l 549 -57 q 565 -56 554 -56 q 644 -81 614 -56 q 675 -151 675 -107 q 628 -240 675 -206 q 497 -274 582 -274 q 426 -267 464 -274 q 363 -249 389 -261 l 385 -175 q 494 -194 444 -194 q 563 -153 563 -194 q 518 -122 563 -122 q 464 -132 500 -122 l 439 -106 l 458 -7 q 186 140 285 17 q 88 458 88 263 q 149 745 88 622 q 324 935 211 868 q 589 1001 438 1001 q 781 972 693 1001 q 935 883 869 942 l 864 753 q 737 831 800 807 q 594 856 674 856 q 355 749 440 856 q 269 457 269 643 q 342 217 269 301 q 549 133 414 133 q 824 236 685 133 l 874 106 z "},"Ḉ":{"ha":951,"x_min":88,"x_max":935,"o":"m 661 1074 l 550 1074 l 706 1289 l 883 1289 l 661 1074 m 874 106 q 735 22 818 53 q 558 -12 651 -10 l 549 -57 q 565 -56 554 -56 q 644 -81 614 -56 q 675 -151 675 -107 q 628 -240 675 -206 q 497 -274 582 -274 q 426 -267 464 -274 q 363 -249 389 -261 l 385 -175 q 494 -194 444 -194 q 563 -153 563 -194 q 518 -122 563 -122 q 464 -132 500 -122 l 439 -106 l 458 -7 q 186 140 285 17 q 88 458 88 263 q 149 745 88 622 q 324 935 211 868 q 589 1001 438 1001 q 781 972 693 1001 q 935 883 869 942 l 864 753 q 737 831 800 807 q 594 856 674 856 q 355 749 440 856 q 269 457 269 643 q 342 217 269 301 q 549 133 414 133 q 824 236 685 133 l 874 106 z "},"Ĉ":{"ha":951,"x_min":88,"x_max":935,"o":"m 538 -12 q 299 44 400 -12 q 142 208 197 101 q 88 458 88 314 q 149 745 88 622 q 324 935 211 868 q 589 1001 438 1001 q 781 972 693 1001 q 935 883 869 942 l 864 753 q 737 831 800 807 q 594 856 674 856 q 355 749 440 856 q 269 457 269 643 q 342 217 269 301 q 549 133 414 133 q 824 236 685 133 l 874 106 q 726 19 815 50 q 538 -12 638 -12 m 375 1074 l 571 1289 l 674 1289 l 836 1074 l 699 1074 l 619 1201 l 513 1074 l 375 1074 z "},"Ċ":{"ha":951,"x_min":88,"x_max":935,"o":"m 538 -12 q 299 44 400 -12 q 142 208 197 101 q 88 458 88 314 q 149 745 88 622 q 324 935 211 868 q 589 1001 438 1001 q 781 972 693 1001 q 935 883 869 942 l 864 753 q 737 831 800 807 q 594 856 674 856 q 355 749 440 856 q 269 457 269 643 q 342 217 269 301 q 549 133 414 133 q 824 236 685 133 l 874 106 q 726 19 815 50 q 538 -12 638 -12 m 717 1268 l 704 1097 l 511 1097 l 525 1268 l 717 1268 z "},"D":{"ha":1057,"x_min":82,"x_max":994,"o":"m 158 989 l 519 989 q 775 934 668 989 q 938 776 882 879 q 994 531 994 672 q 933 244 994 364 q 752 63 871 125 q 468 0 633 0 l 82 0 l 158 989 m 454 146 q 814 532 814 146 q 734 764 814 685 q 499 843 654 843 l 326 843 l 271 146 l 454 146 z "},"Ǆ":{"ha":1881,"x_min":82,"x_max":1867,"o":"m 158 989 l 519 989 q 775 934 668 989 q 938 776 882 879 q 994 531 994 672 q 933 244 994 364 q 752 63 871 125 q 468 0 633 0 l 82 0 l 158 989 m 454 146 q 814 532 814 146 q 734 764 814 685 q 499 843 654 843 l 326 843 l 271 146 l 454 146 m 1857 860 l 1296 143 l 1815 143 l 1804 0 l 1076 0 l 1086 131 l 1647 846 l 1143 846 l 1154 989 l 1867 989 l 1857 860 m 1764 1289 l 1568 1074 l 1464 1074 l 1303 1289 l 1440 1289 l 1526 1160 l 1626 1289 l 1764 1289 z "},"Ð":{"ha":1090,"x_min":24,"x_max":1028,"o":"m 551 989 q 807 934 700 989 q 971 776 914 879 q 1028 531 1028 672 q 966 244 1028 364 q 785 63 904 125 q 501 0 667 0 l 114 0 l 147 431 l 24 431 l 35 569 l 158 569 l 190 989 l 551 989 m 488 146 q 847 532 847 146 q 767 764 847 685 q 532 843 688 843 l 360 843 l 338 569 l 603 569 l 590 431 l 326 431 l 304 146 l 488 146 z "},"Ď":{"ha":1057,"x_min":82,"x_max":994,"o":"m 158 989 l 519 989 q 775 934 668 989 q 938 776 882 879 q 994 531 994 672 q 933 244 994 364 q 752 63 871 125 q 468 0 633 0 l 82 0 l 158 989 m 454 146 q 814 532 814 146 q 734 764 814 685 q 499 843 654 843 l 326 843 l 271 146 l 454 146 m 833 1289 l 638 1074 l 533 1074 l 372 1289 l 510 1289 l 596 1160 l 696 1289 l 833 1289 z "},"Đ":{"ha":1090,"x_min":24,"x_max":1028,"o":"m 551 989 q 807 934 700 989 q 971 776 914 879 q 1028 531 1028 672 q 966 244 1028 364 q 785 63 904 125 q 501 0 667 0 l 114 0 l 147 431 l 24 431 l 35 569 l 158 569 l 190 989 l 551 989 m 488 146 q 847 532 847 146 q 767 764 847 685 q 532 843 688 843 l 360 843 l 338 569 l 603 569 l 590 431 l 326 431 l 304 146 l 488 146 z "},"Ḍ":{"ha":1057,"x_min":82,"x_max":994,"o":"m 158 989 l 519 989 q 775 934 668 989 q 938 776 882 879 q 994 531 994 672 q 933 244 994 364 q 752 63 871 125 q 468 0 633 0 l 82 0 l 158 989 m 454 146 q 814 532 814 146 q 734 764 814 685 q 499 843 654 843 l 326 843 l 271 146 l 454 146 m 581 -108 l 567 -271 l 396 -271 l 411 -108 l 581 -108 z "},"Ḏ":{"ha":1057,"x_min":82,"x_max":994,"o":"m 158 989 l 519 989 q 775 934 668 989 q 938 776 882 879 q 994 531 994 672 q 933 244 994 364 q 752 63 871 125 q 468 0 633 0 l 82 0 l 158 989 m 454 146 q 814 532 814 146 q 734 764 814 685 q 499 843 654 843 l 326 843 l 271 146 l 454 146 m 276 -136 l 708 -136 l 700 -244 l 268 -244 l 276 -136 z "},"ǅ":{"ha":1788,"x_min":82,"x_max":1747,"o":"m 158 989 l 519 989 q 775 934 668 989 q 938 776 882 879 q 994 531 994 672 q 933 244 994 364 q 752 63 871 125 q 468 0 633 0 l 82 0 l 158 989 m 454 146 q 814 532 814 146 q 734 764 814 685 q 499 843 654 843 l 326 843 l 271 146 l 454 146 m 1738 583 l 1318 131 l 1718 131 l 1707 0 l 1097 0 l 1107 121 l 1525 571 l 1151 571 l 1161 701 l 1747 701 l 1738 583 m 1718 1078 l 1519 792 l 1411 792 l 1258 1078 l 1396 1078 l 1474 900 l 1574 1078 l 1718 1078 z "},"E":{"ha":826,"x_min":82,"x_max":819,"o":"m 324 847 l 301 574 l 760 574 l 747 432 l 290 432 l 268 142 l 753 142 l 742 0 l 82 0 l 158 989 l 819 989 l 810 847 l 324 847 z "},"É":{"ha":826,"x_min":82,"x_max":819,"o":"m 324 847 l 301 574 l 760 574 l 747 432 l 290 432 l 268 142 l 753 142 l 742 0 l 82 0 l 158 989 l 819 989 l 810 847 l 324 847 m 463 1074 l 618 1289 l 796 1289 l 574 1074 l 463 1074 z "},"Ĕ":{"ha":826,"x_min":82,"x_max":819,"o":"m 324 847 l 301 574 l 760 574 l 747 432 l 290 432 l 268 142 l 753 142 l 742 0 l 82 0 l 158 989 l 819 989 l 810 847 l 324 847 m 526 1088 q 376 1127 440 1088 q 289 1239 313 1167 l 381 1276 q 531 1196 425 1196 q 688 1276 633 1196 l 772 1239 q 676 1127 742 1167 q 526 1088 611 1088 z "},"Ě":{"ha":826,"x_min":82,"x_max":819,"o":"m 324 847 l 301 574 l 760 574 l 747 432 l 290 432 l 268 142 l 753 142 l 742 0 l 82 0 l 158 989 l 819 989 l 810 847 l 324 847 m 765 1289 l 569 1074 l 465 1074 l 304 1289 l 442 1289 l 528 1160 l 628 1289 l 765 1289 z "},"Ȩ":{"ha":826,"x_min":82,"x_max":819,"o":"m 324 847 l 301 574 l 760 574 l 747 432 l 290 432 l 268 142 l 753 142 l 742 0 l 472 0 l 460 -57 q 476 -56 465 -56 q 556 -81 525 -56 q 586 -151 586 -107 q 540 -240 586 -206 q 408 -274 493 -274 q 338 -267 375 -274 q 274 -249 300 -261 l 296 -175 q 406 -194 356 -194 q 474 -153 474 -194 q 429 -122 474 -122 q 375 -132 411 -122 l 350 -106 l 371 0 l 82 0 l 158 989 l 819 989 l 810 847 l 324 847 z "},"Ḝ":{"ha":826,"x_min":82,"x_max":819,"o":"m 526 1088 q 376 1127 440 1088 q 289 1239 313 1167 l 381 1276 q 531 1196 425 1196 q 688 1276 633 1196 l 772 1239 q 676 1127 742 1167 q 526 1088 611 1088 m 324 847 l 301 574 l 760 574 l 747 432 l 290 432 l 268 142 l 753 142 l 742 0 l 472 0 l 460 -57 q 476 -56 465 -56 q 556 -81 525 -56 q 586 -151 586 -107 q 540 -240 586 -206 q 408 -274 493 -274 q 338 -267 375 -274 q 274 -249 300 -261 l 296 -175 q 406 -194 356 -194 q 474 -153 474 -194 q 429 -122 474 -122 q 375 -132 411 -122 l 350 -106 l 371 0 l 82 0 l 158 989 l 819 989 l 810 847 l 324 847 z "},"Ê":{"ha":826,"x_min":82,"x_max":819,"o":"m 324 847 l 301 574 l 760 574 l 747 432 l 290 432 l 268 142 l 753 142 l 742 0 l 82 0 l 158 989 l 819 989 l 810 847 l 324 847 m 288 1074 l 483 1289 l 586 1289 l 749 1074 l 611 1074 l 532 1201 l 425 1074 l 288 1074 z "},"Ế":{"ha":826,"x_min":82,"x_max":942,"o":"m 324 847 l 301 574 l 760 574 l 747 432 l 290 432 l 268 142 l 753 142 l 742 0 l 82 0 l 158 989 l 819 989 l 810 847 l 324 847 m 778 1418 l 942 1418 l 746 1221 l 657 1221 l 778 1418 m 482 1272 l 585 1272 l 749 1074 l 614 1074 l 531 1188 l 425 1074 l 288 1074 l 482 1272 z "},"Ệ":{"ha":826,"x_min":82,"x_max":819,"o":"m 324 847 l 301 574 l 760 574 l 747 432 l 290 432 l 268 142 l 753 142 l 742 0 l 82 0 l 158 989 l 819 989 l 810 847 l 324 847 m 511 -108 l 497 -271 l 326 -271 l 342 -108 l 511 -108 m 288 1074 l 483 1289 l 586 1289 l 749 1074 l 611 1074 l 532 1201 l 425 1074 l 288 1074 z "},"Ề":{"ha":826,"x_min":82,"x_max":819,"o":"m 324 847 l 301 574 l 760 574 l 747 432 l 290 432 l 268 142 l 753 142 l 742 0 l 82 0 l 158 989 l 819 989 l 810 847 l 324 847 m 569 1418 l 714 1418 l 806 1221 l 715 1221 l 569 1418 m 482 1272 l 585 1272 l 749 1074 l 614 1074 l 531 1188 l 425 1074 l 288 1074 l 482 1272 z "},"Ể":{"ha":826,"x_min":82,"x_max":872,"o":"m 324 847 l 301 574 l 760 574 l 747 432 l 290 432 l 268 142 l 753 142 l 742 0 l 82 0 l 158 989 l 819 989 l 810 847 l 324 847 m 657 1249 q 676 1287 658 1274 q 725 1313 694 1300 q 747 1324 738 1318 q 757 1336 757 1329 q 718 1351 757 1351 q 624 1338 678 1351 l 604 1404 q 733 1426 663 1426 q 835 1405 797 1426 q 872 1349 872 1383 q 854 1304 872 1319 q 801 1275 836 1289 q 764 1256 776 1264 q 750 1233 751 1247 l 749 1222 l 656 1222 l 657 1249 m 482 1272 l 585 1272 l 749 1074 l 614 1074 l 531 1188 l 425 1074 l 288 1074 l 482 1272 z "},"Ễ":{"ha":826,"x_min":82,"x_max":819,"o":"m 324 847 l 301 574 l 760 574 l 747 432 l 290 432 l 268 142 l 753 142 l 742 0 l 82 0 l 158 989 l 819 989 l 810 847 l 324 847 m 297 1294 q 345 1400 301 1361 q 447 1439 389 1439 q 501 1431 476 1439 q 560 1410 525 1424 q 603 1394 581 1401 q 643 1388 625 1388 q 703 1438 699 1388 l 783 1438 q 738 1333 782 1374 q 636 1293 694 1293 q 584 1300 608 1293 q 522 1322 560 1307 q 476 1340 494 1335 q 439 1346 457 1346 q 397 1333 414 1346 q 378 1294 381 1319 l 297 1294 m 482 1272 l 585 1272 l 749 1074 l 614 1074 l 531 1188 l 425 1074 l 288 1074 l 482 1272 z "},"Ȅ":{"ha":826,"x_min":82,"x_max":819,"o":"m 324 847 l 301 574 l 760 574 l 747 432 l 290 432 l 268 142 l 753 142 l 742 0 l 82 0 l 158 989 l 819 989 l 810 847 l 324 847 m 263 1289 l 383 1289 l 471 1074 l 382 1074 l 263 1289 m 446 1289 l 567 1289 l 654 1074 l 565 1074 l 446 1289 z "},"Ë":{"ha":826,"x_min":82,"x_max":819,"o":"m 324 847 l 301 574 l 760 574 l 747 432 l 290 432 l 268 142 l 753 142 l 742 0 l 82 0 l 158 989 l 819 989 l 810 847 l 324 847 m 489 1263 l 476 1103 l 308 1103 l 321 1263 l 489 1263 m 746 1263 l 733 1103 l 565 1103 l 578 1263 l 746 1263 z "},"Ė":{"ha":826,"x_min":82,"x_max":819,"o":"m 324 847 l 301 574 l 760 574 l 747 432 l 290 432 l 268 142 l 753 142 l 742 0 l 82 0 l 158 989 l 819 989 l 810 847 l 324 847 m 629 1268 l 617 1097 l 424 1097 l 438 1268 l 629 1268 z "},"Ẹ":{"ha":826,"x_min":82,"x_max":819,"o":"m 324 847 l 301 574 l 760 574 l 747 432 l 290 432 l 268 142 l 753 142 l 742 0 l 82 0 l 158 989 l 819 989 l 810 847 l 324 847 m 511 -108 l 497 -271 l 326 -271 l 342 -108 l 511 -108 z "},"È":{"ha":826,"x_min":82,"x_max":819,"o":"m 324 847 l 301 574 l 760 574 l 747 432 l 290 432 l 268 142 l 753 142 l 742 0 l 82 0 l 158 989 l 819 989 l 810 847 l 324 847 m 283 1289 l 442 1289 l 574 1074 l 463 1074 l 283 1289 z "},"Ẻ":{"ha":826,"x_min":82,"x_max":819,"o":"m 324 847 l 301 574 l 760 574 l 747 432 l 290 432 l 268 142 l 753 142 l 742 0 l 82 0 l 158 989 l 819 989 l 810 847 l 324 847 m 564 1074 l 472 1074 l 475 1101 q 493 1140 476 1126 q 538 1167 510 1154 q 565 1183 556 1176 q 574 1199 574 1189 q 562 1213 574 1207 q 529 1218 550 1218 q 442 1203 489 1218 l 422 1272 q 547 1294 481 1294 q 651 1272 613 1294 q 689 1213 689 1249 q 669 1165 689 1182 q 615 1133 650 1149 q 578 1112 589 1119 q 565 1090 567 1104 l 564 1074 z "},"Ȇ":{"ha":826,"x_min":82,"x_max":819,"o":"m 324 847 l 301 574 l 760 574 l 747 432 l 290 432 l 268 142 l 753 142 l 742 0 l 82 0 l 158 989 l 819 989 l 810 847 l 324 847 m 526 1276 q 676 1237 613 1276 q 764 1125 740 1197 l 672 1089 q 522 1168 626 1168 q 365 1089 419 1168 l 281 1125 q 376 1237 311 1197 q 526 1276 442 1276 z "},"Ē":{"ha":826,"x_min":82,"x_max":819,"o":"m 324 847 l 301 574 l 760 574 l 747 432 l 290 432 l 268 142 l 753 142 l 742 0 l 82 0 l 158 989 l 819 989 l 810 847 l 324 847 m 315 1239 l 749 1239 l 739 1125 l 306 1125 l 315 1239 z "},"Ḗ":{"ha":826,"x_min":82,"x_max":819,"o":"m 324 847 l 301 574 l 760 574 l 747 432 l 290 432 l 268 142 l 753 142 l 742 0 l 82 0 l 158 989 l 819 989 l 810 847 l 324 847 m 315 1239 l 749 1239 l 739 1125 l 306 1125 l 315 1239 m 481 1299 l 636 1514 l 814 1514 l 592 1299 l 481 1299 z "},"Ḕ":{"ha":826,"x_min":82,"x_max":819,"o":"m 324 847 l 301 574 l 760 574 l 747 432 l 290 432 l 268 142 l 753 142 l 742 0 l 82 0 l 158 989 l 819 989 l 810 847 l 324 847 m 315 1239 l 749 1239 l 739 1125 l 306 1125 l 315 1239 m 301 1514 l 460 1514 l 592 1299 l 481 1299 l 301 1514 z "},"Ę":{"ha":826,"x_min":82,"x_max":819,"o":"m 324 847 l 301 574 l 760 574 l 747 432 l 290 432 l 268 142 l 753 142 l 742 0 l 715 0 q 629 -29 661 0 q 597 -103 597 -58 q 619 -158 597 -139 q 676 -178 640 -178 q 758 -157 711 -178 l 775 -244 q 647 -274 713 -274 q 524 -234 569 -274 q 478 -129 478 -194 q 539 0 478 -50 l 82 0 l 158 989 l 819 989 l 808 847 l 324 847 z "},"Ẽ":{"ha":826,"x_min":82,"x_max":819,"o":"m 324 847 l 301 574 l 760 574 l 747 432 l 290 432 l 268 142 l 753 142 l 742 0 l 82 0 l 158 989 l 819 989 l 810 847 l 324 847 m 282 1092 q 331 1232 288 1186 q 439 1278 374 1278 q 490 1267 465 1278 q 544 1236 514 1256 q 567 1223 550 1233 q 599 1208 585 1213 q 625 1203 613 1203 q 670 1221 653 1203 q 690 1274 688 1239 l 771 1274 q 722 1133 765 1178 q 614 1088 679 1088 q 563 1099 588 1088 q 508 1129 539 1110 q 462 1155 478 1147 q 429 1163 446 1163 q 384 1144 401 1163 q 363 1092 367 1126 l 282 1092 z "},"F":{"ha":794,"x_min":82,"x_max":806,"o":"m 326 846 l 304 575 l 744 575 l 733 431 l 293 431 l 258 0 l 82 0 l 158 989 l 806 989 l 794 846 l 326 846 z "},"G":{"ha":1026,"x_min":88,"x_max":953,"o":"m 572 535 l 947 535 l 911 61 q 748 7 843 26 q 554 -12 653 -12 q 303 44 408 -12 q 142 205 197 100 q 88 453 88 310 q 150 743 88 619 q 328 933 213 867 q 600 1000 444 1000 q 953 883 819 1000 l 882 753 q 751 833 815 808 q 601 856 686 857 q 356 748 443 854 q 269 456 269 642 q 346 213 269 297 q 574 129 422 129 q 757 158 668 129 l 775 406 l 563 406 l 572 535 z "},"Ğ":{"ha":1026,"x_min":88,"x_max":953,"o":"m 572 535 l 947 535 l 911 61 q 748 7 843 26 q 554 -12 653 -12 q 303 44 408 -12 q 142 205 197 100 q 88 453 88 310 q 150 743 88 619 q 328 933 213 867 q 600 1000 444 1000 q 953 883 819 1000 l 882 753 q 751 833 815 808 q 601 856 686 857 q 356 748 443 854 q 269 456 269 642 q 346 213 269 297 q 574 129 422 129 q 757 158 668 129 l 775 406 l 563 406 l 572 535 m 628 1088 q 478 1127 542 1088 q 390 1239 414 1167 l 482 1276 q 632 1196 526 1196 q 789 1276 735 1196 l 874 1239 q 778 1127 843 1167 q 628 1088 713 1088 z "},"Ǧ":{"ha":1026,"x_min":88,"x_max":953,"o":"m 572 535 l 947 535 l 911 61 q 748 7 843 26 q 554 -12 653 -12 q 303 44 408 -12 q 142 205 197 100 q 88 453 88 310 q 150 743 88 619 q 328 933 213 867 q 600 1000 444 1000 q 953 883 819 1000 l 882 753 q 751 833 815 808 q 601 856 686 857 q 356 748 443 854 q 269 456 269 642 q 346 213 269 297 q 574 129 422 129 q 757 158 668 129 l 775 406 l 563 406 l 572 535 m 867 1289 l 671 1074 l 567 1074 l 406 1289 l 543 1289 l 629 1160 l 729 1289 l 867 1289 z "},"Ĝ":{"ha":1026,"x_min":88,"x_max":953,"o":"m 572 535 l 947 535 l 911 61 q 748 7 843 26 q 554 -12 653 -12 q 303 44 408 -12 q 142 205 197 100 q 88 453 88 310 q 150 743 88 619 q 328 933 213 867 q 600 1000 444 1000 q 953 883 819 1000 l 882 753 q 751 833 815 808 q 601 856 686 857 q 356 748 443 854 q 269 456 269 642 q 346 213 269 297 q 574 129 422 129 q 757 158 668 129 l 775 406 l 563 406 l 572 535 m 389 1074 l 585 1289 l 688 1289 l 850 1074 l 713 1074 l 633 1201 l 526 1074 l 389 1074 z "},"Ģ":{"ha":1026,"x_min":88,"x_max":953,"o":"m 572 535 l 947 535 l 911 61 q 748 7 843 26 q 554 -12 653 -12 q 303 44 408 -12 q 142 205 197 100 q 88 453 88 310 q 150 743 88 619 q 328 933 213 867 q 600 1000 444 1000 q 953 883 819 1000 l 882 753 q 751 833 815 808 q 601 856 686 857 q 356 748 443 854 q 269 456 269 642 q 346 213 269 297 q 574 129 422 129 q 757 158 668 129 l 775 406 l 563 406 l 572 535 m 629 -96 l 624 -182 q 597 -291 618 -244 q 526 -378 575 -337 l 465 -331 q 522 -239 511 -290 l 436 -239 l 447 -96 l 629 -96 z "},"Ġ":{"ha":1026,"x_min":88,"x_max":953,"o":"m 572 535 l 947 535 l 911 61 q 748 7 843 26 q 554 -12 653 -12 q 303 44 408 -12 q 142 205 197 100 q 88 453 88 310 q 150 743 88 619 q 328 933 213 867 q 600 1000 444 1000 q 953 883 819 1000 l 882 753 q 751 833 815 808 q 601 856 686 857 q 356 748 443 854 q 269 456 269 642 q 346 213 269 297 q 574 129 422 129 q 757 158 668 129 l 775 406 l 563 406 l 572 535 m 731 1268 l 718 1097 l 525 1097 l 539 1268 l 731 1268 z "},"Ḡ":{"ha":1026,"x_min":88,"x_max":953,"o":"m 572 535 l 947 535 l 911 61 q 748 7 843 26 q 554 -12 653 -12 q 303 44 408 -12 q 142 205 197 100 q 88 453 88 310 q 150 743 88 619 q 328 933 213 867 q 600 1000 444 1000 q 953 883 819 1000 l 882 753 q 751 833 815 808 q 601 856 686 857 q 356 748 443 854 q 269 456 269 642 q 346 213 269 297 q 574 129 422 129 q 757 158 668 129 l 775 406 l 563 406 l 572 535 m 417 1239 l 850 1239 l 840 1125 l 407 1125 l 417 1239 z "},"H":{"ha":1075,"x_min":82,"x_max":1018,"o":"m 1018 989 l 940 0 l 764 0 l 797 429 l 292 429 l 257 0 l 82 0 l 158 989 l 336 989 l 303 575 l 810 575 l 842 989 l 1018 989 z "},"Ħ":{"ha":1140,"x_min":46,"x_max":1164,"o":"m 1154 719 l 1047 719 l 990 0 l 815 0 l 849 429 l 342 429 l 308 0 l 132 0 l 189 719 l 46 719 l 57 853 l 199 853 l 210 989 l 386 989 l 375 853 l 882 853 l 893 989 l 1069 989 l 1058 853 l 1164 853 l 1154 719 m 872 719 l 365 719 l 354 575 l 861 575 l 872 719 z "},"Ḫ":{"ha":1075,"x_min":82,"x_max":1018,"o":"m 1018 989 l 940 0 l 764 0 l 797 429 l 292 429 l 257 0 l 82 0 l 158 989 l 336 989 l 303 575 l 810 575 l 842 989 l 1018 989 m 494 -310 q 344 -261 410 -310 q 254 -117 279 -212 l 344 -81 q 412 -168 371 -140 q 503 -196 453 -196 q 667 -81 603 -196 l 753 -117 q 651 -261 721 -212 q 494 -310 581 -310 z "},"Ĥ":{"ha":1075,"x_min":82,"x_max":1018,"o":"m 1018 989 l 940 0 l 764 0 l 797 429 l 292 429 l 257 0 l 82 0 l 158 989 l 336 989 l 303 575 l 810 575 l 842 989 l 1018 989 m 364 1074 l 560 1289 l 663 1289 l 825 1074 l 688 1074 l 608 1201 l 501 1074 l 364 1074 z "},"Ḥ":{"ha":1075,"x_min":82,"x_max":1018,"o":"m 1018 989 l 940 0 l 764 0 l 797 429 l 292 429 l 257 0 l 82 0 l 158 989 l 336 989 l 303 575 l 810 575 l 842 989 l 1018 989 m 590 -108 l 576 -271 l 406 -271 l 421 -108 l 590 -108 z "},"I":{"ha":393,"x_min":82,"x_max":338,"o":"m 158 989 l 338 989 l 260 0 l 82 0 l 158 989 z "},"Í":{"ha":393,"x_min":82,"x_max":533,"o":"m 158 989 l 338 989 l 260 0 l 82 0 l 158 989 m 200 1074 l 356 1289 l 533 1289 l 311 1074 l 200 1074 z "},"Ĭ":{"ha":393,"x_min":26,"x_max":510,"o":"m 158 989 l 338 989 l 260 0 l 82 0 l 158 989 m 264 1088 q 114 1127 178 1088 q 26 1239 50 1167 l 118 1276 q 268 1196 163 1196 q 425 1276 371 1196 l 510 1239 q 414 1127 479 1167 q 264 1088 349 1088 z "},"Î":{"ha":393,"x_min":25,"x_max":486,"o":"m 158 989 l 338 989 l 260 0 l 82 0 l 158 989 m 25 1074 l 221 1289 l 324 1289 l 486 1074 l 349 1074 l 269 1201 l 163 1074 l 25 1074 z "},"Ȉ":{"ha":393,"x_min":0,"x_max":392,"o":"m 158 989 l 338 989 l 260 0 l 82 0 l 158 989 m 0 1289 l 121 1289 l 208 1074 l 119 1074 l 0 1289 m 183 1289 l 304 1289 l 392 1074 l 303 1074 l 183 1289 z "},"Ï":{"ha":393,"x_min":46,"x_max":483,"o":"m 158 989 l 338 989 l 260 0 l 82 0 l 158 989 m 226 1263 l 214 1103 l 46 1103 l 58 1263 l 226 1263 m 483 1263 l 471 1103 l 303 1103 l 315 1263 l 483 1263 z "},"Ḯ":{"ha":393,"x_min":46,"x_max":551,"o":"m 158 989 l 338 989 l 260 0 l 82 0 l 158 989 m 226 1263 l 214 1103 l 46 1103 l 58 1263 l 226 1263 m 483 1263 l 471 1103 l 303 1103 l 315 1263 l 483 1263 m 218 1299 l 374 1514 l 551 1514 l 329 1299 l 218 1299 z "},"İ":{"ha":393,"x_min":82,"x_max":367,"o":"m 158 989 l 338 989 l 260 0 l 82 0 l 158 989 m 367 1268 l 354 1097 l 161 1097 l 175 1268 l 367 1268 z "},"Ị":{"ha":393,"x_min":64,"x_max":338,"o":"m 158 989 l 338 989 l 260 0 l 82 0 l 158 989 m 249 -108 l 235 -271 l 64 -271 l 79 -108 l 249 -108 z "},"Ì":{"ha":393,"x_min":21,"x_max":338,"o":"m 158 989 l 338 989 l 260 0 l 82 0 l 158 989 m 21 1289 l 179 1289 l 311 1074 l 200 1074 l 21 1289 z "},"Ỉ":{"ha":393,"x_min":82,"x_max":426,"o":"m 158 989 l 338 989 l 260 0 l 82 0 l 158 989 m 301 1074 l 210 1074 l 213 1101 q 231 1140 214 1126 q 275 1167 247 1154 q 302 1183 293 1176 q 311 1199 311 1189 q 299 1213 311 1207 q 267 1218 288 1218 q 179 1203 226 1218 l 160 1272 q 285 1294 218 1294 q 388 1272 350 1294 q 426 1213 426 1249 q 407 1165 426 1182 q 353 1133 388 1149 q 315 1112 326 1119 q 303 1090 304 1104 l 301 1074 z "},"Ȋ":{"ha":393,"x_min":18,"x_max":501,"o":"m 158 989 l 338 989 l 260 0 l 82 0 l 158 989 m 264 1276 q 414 1237 350 1276 q 501 1125 478 1197 l 410 1089 q 260 1168 364 1168 q 103 1089 157 1168 l 18 1125 q 114 1237 49 1197 q 264 1276 179 1276 z "},"Ī":{"ha":393,"x_min":43,"x_max":486,"o":"m 158 989 l 338 989 l 260 0 l 82 0 l 158 989 m 53 1239 l 486 1239 l 476 1125 l 43 1125 l 53 1239 z "},"Į":{"ha":393,"x_min":-4,"x_max":338,"o":"m 194 -178 q 275 -157 229 -178 l 292 -244 q 165 -274 231 -274 q 42 -233 88 -274 q -4 -126 -4 -193 q 82 22 -4 -29 l 157 989 l 338 989 l 260 0 l 243 0 q 147 -28 179 0 q 115 -101 115 -57 q 136 -158 115 -139 q 194 -178 157 -178 z "},"Ĩ":{"ha":393,"x_min":19,"x_max":508,"o":"m 158 989 l 338 989 l 260 0 l 82 0 l 158 989 m 19 1092 q 68 1232 25 1186 q 176 1278 111 1278 q 227 1267 203 1278 q 282 1236 251 1256 q 305 1223 288 1233 q 336 1208 322 1213 q 363 1203 350 1203 q 408 1221 390 1203 q 428 1274 425 1239 l 508 1274 q 460 1133 503 1178 q 351 1088 417 1088 q 301 1099 325 1088 q 246 1129 276 1110 q 199 1155 215 1147 q 167 1163 183 1163 q 122 1144 139 1163 q 100 1092 104 1126 l 19 1092 z "},"J":{"ha":501,"x_min":-49,"x_max":444,"o":"m -37 -101 q 57 -111 25 -111 q 154 -77 124 -111 q 190 42 185 -43 l 265 989 l 444 989 l 371 42 q 289 -187 358 -114 q 79 -260 219 -260 q -49 -249 14 -260 l -37 -101 z "},"Ĵ":{"ha":501,"x_min":-49,"x_max":592,"o":"m -37 -101 q 57 -111 25 -111 q 154 -77 124 -111 q 190 42 185 -43 l 265 989 l 444 989 l 371 42 q 289 -187 358 -114 q 79 -260 219 -260 q -49 -249 14 -260 l -37 -101 m 131 1074 l 326 1289 l 429 1289 l 592 1074 l 454 1074 l 375 1201 l 268 1074 l 131 1074 z "},"K":{"ha":925,"x_min":82,"x_max":994,"o":"m 479 507 l 940 0 l 728 0 l 297 463 l 261 0 l 82 0 l 158 989 l 339 989 l 304 547 l 772 989 l 994 989 l 479 507 z "},"Ķ":{"ha":925,"x_min":82,"x_max":994,"o":"m 479 507 l 940 0 l 728 0 l 297 463 l 261 0 l 82 0 l 158 989 l 339 989 l 304 547 l 772 989 l 994 989 l 479 507 m 524 -96 l 518 -182 q 491 -291 513 -244 q 421 -378 469 -337 l 360 -331 q 417 -239 406 -290 l 331 -239 l 342 -96 l 524 -96 z "},"L":{"ha":778,"x_min":82,"x_max":733,"o":"m 158 989 l 339 989 l 271 147 l 733 147 l 722 0 l 82 0 l 158 989 z "},"Ǉ":{"ha":1197,"x_min":82,"x_max":1142,"o":"m 158 989 l 339 989 l 271 147 l 692 147 l 681 0 l 82 0 l 158 989 m 657 -101 q 751 -111 721 -111 q 849 -77 818 -111 q 886 42 881 -43 l 960 989 l 1142 989 l 1065 42 q 984 -187 1053 -114 q 774 -260 915 -260 q 646 -249 708 -260 l 657 -101 z "},"Ĺ":{"ha":778,"x_min":82,"x_max":733,"o":"m 158 989 l 339 989 l 271 147 l 733 147 l 722 0 l 82 0 l 158 989 m 199 1074 l 354 1289 l 532 1289 l 310 1074 l 199 1074 z "},"Ľ":{"ha":778,"x_min":82,"x_max":733,"o":"m 158 989 l 339 989 l 271 147 l 733 147 l 722 0 l 82 0 l 158 989 m 438 719 l 458 989 l 579 989 l 522 719 l 438 719 z "},"Ļ":{"ha":778,"x_min":82,"x_max":733,"o":"m 158 989 l 339 989 l 271 147 l 733 147 l 722 0 l 82 0 l 158 989 m 493 -96 l 488 -182 q 460 -291 482 -244 q 390 -378 439 -337 l 329 -331 q 386 -239 375 -290 l 300 -239 l 311 -96 l 493 -96 z "},"Ŀ":{"ha":778,"x_min":82,"x_max":733,"o":"m 158 989 l 339 989 l 271 147 l 733 147 l 722 0 l 82 0 l 158 989 m 643 581 l 629 410 l 435 410 l 449 581 l 643 581 z "},"Ḷ":{"ha":778,"x_min":82,"x_max":733,"o":"m 158 989 l 339 989 l 271 147 l 733 147 l 722 0 l 82 0 l 158 989 m 488 -108 l 474 -271 l 303 -271 l 318 -108 l 488 -108 z "},"ǈ":{"ha":1140,"x_min":82,"x_max":1106,"o":"m 158 989 l 339 989 l 271 147 l 733 147 l 722 0 l 82 0 l 158 989 m 653 -156 q 719 -165 692 -165 q 842 -42 831 -165 l 900 701 l 1074 701 l 1014 -50 q 935 -242 1004 -175 q 750 -308 867 -308 q 642 -293 688 -308 l 653 -156 m 1106 1019 l 1093 849 l 900 849 l 913 1019 l 1106 1019 z "},"Ḻ":{"ha":778,"x_min":82,"x_max":733,"o":"m 158 989 l 339 989 l 271 147 l 733 147 l 722 0 l 82 0 l 158 989 m 183 -136 l 615 -136 l 607 -244 l 175 -244 l 183 -136 z "},"Ł":{"ha":811,"x_min":10,"x_max":767,"o":"m 767 147 l 756 0 l 114 0 l 143 371 l 10 297 l 22 453 l 156 526 l 192 989 l 371 989 l 342 629 l 614 779 l 603 622 l 331 472 l 304 147 l 767 147 z "},"M":{"ha":1181,"x_min":83,"x_max":1122,"o":"m 1122 989 l 1044 0 l 886 0 l 933 607 l 624 0 l 506 0 l 290 606 l 242 0 l 83 0 l 160 989 l 303 989 l 581 210 l 979 989 l 1122 989 z "},"Ṃ":{"ha":1181,"x_min":83,"x_max":1122,"o":"m 1122 989 l 1044 0 l 886 0 l 933 607 l 624 0 l 506 0 l 290 606 l 242 0 l 83 0 l 160 989 l 303 989 l 581 210 l 979 989 l 1122 989 m 642 -108 l 628 -271 l 457 -271 l 472 -108 l 642 -108 z "},"N":{"ha":1049,"x_min":82,"x_max":992,"o":"m 992 989 l 914 0 l 778 0 l 303 689 l 249 0 l 82 0 l 158 989 l 292 989 l 768 303 l 824 989 l 992 989 z "},"Ǌ":{"ha":1550,"x_min":82,"x_max":1493,"o":"m 992 989 l 914 0 l 778 0 l 303 689 l 249 0 l 82 0 l 158 989 l 292 989 l 768 303 l 824 989 l 992 989 m 1011 -101 q 1106 -111 1074 -111 q 1203 -77 1172 -111 q 1239 42 1233 -43 l 1314 989 l 1493 989 l 1419 42 q 1338 -187 1407 -114 q 1128 -260 1268 -260 q 1000 -249 1063 -260 l 1011 -101 z "},"Ń":{"ha":1049,"x_min":82,"x_max":992,"o":"m 992 989 l 914 0 l 778 0 l 303 689 l 249 0 l 82 0 l 158 989 l 292 989 l 768 303 l 824 989 l 992 989 m 526 1074 l 682 1289 l 860 1289 l 638 1074 l 526 1074 z "},"Ň":{"ha":1049,"x_min":82,"x_max":992,"o":"m 992 989 l 914 0 l 778 0 l 303 689 l 249 0 l 82 0 l 158 989 l 292 989 l 768 303 l 824 989 l 992 989 m 829 1289 l 633 1074 l 529 1074 l 368 1289 l 506 1289 l 592 1160 l 692 1289 l 829 1289 z "},"Ņ":{"ha":1049,"x_min":82,"x_max":992,"o":"m 992 989 l 914 0 l 778 0 l 303 689 l 249 0 l 82 0 l 158 989 l 292 989 l 768 303 l 824 989 l 992 989 m 582 -96 l 576 -182 q 549 -291 571 -244 q 479 -378 528 -337 l 418 -331 q 475 -239 464 -290 l 389 -239 l 400 -96 l 582 -96 z "},"Ṅ":{"ha":1049,"x_min":82,"x_max":992,"o":"m 992 989 l 914 0 l 778 0 l 303 689 l 249 0 l 82 0 l 158 989 l 292 989 l 768 303 l 824 989 l 992 989 m 693 1268 l 681 1097 l 488 1097 l 501 1268 l 693 1268 z "},"Ṇ":{"ha":1049,"x_min":82,"x_max":992,"o":"m 992 989 l 914 0 l 778 0 l 303 689 l 249 0 l 82 0 l 158 989 l 292 989 l 768 303 l 824 989 l 992 989 m 576 -108 l 563 -271 l 392 -271 l 407 -108 l 576 -108 z "},"Ŋ":{"ha":1049,"x_min":82,"x_max":992,"o":"m 992 989 l 915 35 q 829 -176 904 -103 q 608 -257 754 -249 l 506 -262 l 499 -125 l 594 -119 q 703 -79 664 -115 q 746 21 742 -43 l 747 43 l 303 689 l 249 0 l 82 0 l 158 989 l 292 989 l 768 303 l 824 989 l 992 989 z "},"ǋ":{"ha":1411,"x_min":82,"x_max":1376,"o":"m 992 989 l 914 0 l 778 0 l 303 689 l 249 0 l 82 0 l 158 989 l 292 989 l 768 303 l 824 989 l 992 989 m 924 -156 q 990 -165 963 -165 q 1113 -42 1101 -165 l 1171 701 l 1344 701 l 1285 -50 q 1206 -242 1275 -175 q 1021 -308 1138 -308 q 913 -293 958 -308 l 924 -156 m 1376 1019 l 1364 849 l 1171 849 l 1183 1019 l 1376 1019 z "},"Ṉ":{"ha":1049,"x_min":82,"x_max":992,"o":"m 992 989 l 914 0 l 778 0 l 303 689 l 249 0 l 82 0 l 158 989 l 292 989 l 768 303 l 824 989 l 992 989 m 272 -136 l 704 -136 l 696 -244 l 264 -244 l 272 -136 z "},"Ñ":{"ha":1049,"x_min":82,"x_max":992,"o":"m 992 989 l 914 0 l 778 0 l 303 689 l 249 0 l 82 0 l 158 989 l 292 989 l 768 303 l 824 989 l 992 989 m 346 1092 q 394 1232 351 1186 q 503 1278 438 1278 q 553 1267 529 1278 q 608 1236 578 1256 q 631 1223 614 1233 q 663 1208 649 1213 q 689 1203 676 1203 q 734 1221 717 1203 q 754 1274 751 1239 l 835 1274 q 786 1133 829 1178 q 678 1088 743 1088 q 627 1099 651 1088 q 572 1129 603 1110 q 526 1155 542 1147 q 493 1163 510 1163 q 448 1144 465 1163 q 426 1092 431 1126 l 346 1092 z "},"O":{"ha":1092,"x_min":88,"x_max":1028,"o":"m 549 -12 q 304 44 408 -12 q 144 207 200 101 q 88 458 88 313 q 147 744 88 621 q 314 934 206 867 q 567 1001 422 1001 q 813 944 708 1001 q 972 782 917 888 q 1028 531 1028 676 q 969 245 1028 368 q 801 55 910 122 q 549 -12 693 -12 m 549 131 q 768 237 688 131 q 849 531 849 343 q 775 774 849 689 q 568 858 701 858 q 347 751 428 858 q 267 457 267 644 q 340 215 267 300 q 549 131 413 131 z "},"Ó":{"ha":1092,"x_min":88,"x_max":1028,"o":"m 549 -12 q 304 44 408 -12 q 144 207 200 101 q 88 458 88 313 q 147 744 88 621 q 314 934 206 867 q 567 1001 422 1001 q 813 944 708 1001 q 972 782 917 888 q 1028 531 1028 676 q 969 245 1028 368 q 801 55 910 122 q 549 -12 693 -12 m 549 131 q 768 237 688 131 q 849 531 849 343 q 775 774 849 689 q 568 858 701 858 q 347 751 428 858 q 267 457 267 644 q 340 215 267 300 q 549 131 413 131 m 547 1074 l 703 1289 l 881 1289 l 658 1074 l 547 1074 z "},"Ŏ":{"ha":1092,"x_min":88,"x_max":1028,"o":"m 549 -12 q 304 44 408 -12 q 144 207 200 101 q 88 458 88 313 q 147 744 88 621 q 314 934 206 867 q 567 1001 422 1001 q 813 944 708 1001 q 972 782 917 888 q 1028 531 1028 676 q 969 245 1028 368 q 801 55 910 122 q 549 -12 693 -12 m 549 131 q 768 237 688 131 q 849 531 849 343 q 775 774 849 689 q 568 858 701 858 q 347 751 428 858 q 267 457 267 644 q 340 215 267 300 q 549 131 413 131 m 611 1088 q 461 1127 525 1088 q 374 1239 397 1167 l 465 1276 q 615 1196 510 1196 q 772 1276 718 1196 l 857 1239 q 761 1127 826 1167 q 611 1088 696 1088 z "},"Ô":{"ha":1092,"x_min":88,"x_max":1028,"o":"m 549 -12 q 304 44 408 -12 q 144 207 200 101 q 88 458 88 313 q 147 744 88 621 q 314 934 206 867 q 567 1001 422 1001 q 813 944 708 1001 q 972 782 917 888 q 1028 531 1028 676 q 969 245 1028 368 q 801 55 910 122 q 549 -12 693 -12 m 549 131 q 768 237 688 131 q 849 531 849 343 q 775 774 849 689 q 568 858 701 858 q 347 751 428 858 q 267 457 267 644 q 340 215 267 300 q 549 131 413 131 m 372 1074 l 568 1289 l 671 1289 l 833 1074 l 696 1074 l 617 1201 l 510 1074 l 372 1074 z "},"Ố":{"ha":1092,"x_min":88,"x_max":1028,"o":"m 549 -12 q 304 44 408 -12 q 144 207 200 101 q 88 458 88 313 q 147 744 88 621 q 314 934 206 867 q 567 1001 422 1001 q 813 944 708 1001 q 972 782 917 888 q 1028 531 1028 676 q 969 245 1028 368 q 801 55 910 122 q 549 -12 693 -12 m 549 131 q 768 237 688 131 q 849 531 849 343 q 775 774 849 689 q 568 858 701 858 q 347 751 428 858 q 267 457 267 644 q 340 215 267 300 q 549 131 413 131 m 863 1418 l 1026 1418 l 831 1221 l 742 1221 l 863 1418 m 567 1272 l 669 1272 l 833 1074 l 699 1074 l 615 1188 l 510 1074 l 372 1074 l 567 1272 z "},"Ộ":{"ha":1092,"x_min":88,"x_max":1028,"o":"m 549 -12 q 304 44 408 -12 q 144 207 200 101 q 88 458 88 313 q 147 744 88 621 q 314 934 206 867 q 567 1001 422 1001 q 813 944 708 1001 q 972 782 917 888 q 1028 531 1028 676 q 969 245 1028 368 q 801 55 910 122 q 549 -12 693 -12 m 549 131 q 768 237 688 131 q 849 531 849 343 q 775 774 849 689 q 568 858 701 858 q 347 751 428 858 q 267 457 267 644 q 340 215 267 300 q 549 131 413 131 m 597 -108 l 583 -271 l 413 -271 l 428 -108 l 597 -108 m 372 1074 l 568 1289 l 671 1289 l 833 1074 l 696 1074 l 617 1201 l 510 1074 l 372 1074 z "},"Ồ":{"ha":1092,"x_min":88,"x_max":1028,"o":"m 549 -12 q 304 44 408 -12 q 144 207 200 101 q 88 458 88 313 q 147 744 88 621 q 314 934 206 867 q 567 1001 422 1001 q 813 944 708 1001 q 972 782 917 888 q 1028 531 1028 676 q 969 245 1028 368 q 801 55 910 122 q 549 -12 693 -12 m 549 131 q 768 237 688 131 q 849 531 849 343 q 775 774 849 689 q 568 858 701 858 q 347 751 428 858 q 267 457 267 644 q 340 215 267 300 q 549 131 413 131 m 654 1418 l 799 1418 l 890 1221 l 800 1221 l 654 1418 m 567 1272 l 669 1272 l 833 1074 l 699 1074 l 615 1188 l 510 1074 l 372 1074 l 567 1272 z "},"Ổ":{"ha":1092,"x_min":88,"x_max":1028,"o":"m 549 -12 q 304 44 408 -12 q 144 207 200 101 q 88 458 88 313 q 147 744 88 621 q 314 934 206 867 q 567 1001 422 1001 q 813 944 708 1001 q 972 782 917 888 q 1028 531 1028 676 q 969 245 1028 368 q 801 55 910 122 q 549 -12 693 -12 m 549 131 q 768 237 688 131 q 849 531 849 343 q 775 774 849 689 q 568 858 701 858 q 347 751 428 858 q 267 457 267 644 q 340 215 267 300 q 549 131 413 131 m 742 1249 q 761 1287 743 1274 q 810 1313 779 1300 q 832 1324 822 1318 q 842 1336 842 1329 q 803 1351 842 1351 q 708 1338 763 1351 l 689 1404 q 818 1426 747 1426 q 919 1405 882 1426 q 957 1349 957 1383 q 939 1304 957 1319 q 886 1275 921 1289 q 849 1256 861 1264 q 835 1233 836 1247 l 833 1222 l 740 1222 l 742 1249 m 567 1272 l 669 1272 l 833 1074 l 699 1074 l 615 1188 l 510 1074 l 372 1074 l 567 1272 z "},"Ỗ":{"ha":1092,"x_min":88,"x_max":1028,"o":"m 549 -12 q 304 44 408 -12 q 144 207 200 101 q 88 458 88 313 q 147 744 88 621 q 314 934 206 867 q 567 1001 422 1001 q 813 944 708 1001 q 972 782 917 888 q 1028 531 1028 676 q 969 245 1028 368 q 801 55 910 122 q 549 -12 693 -12 m 549 131 q 768 237 688 131 q 849 531 849 343 q 775 774 849 689 q 568 858 701 858 q 347 751 428 858 q 267 457 267 644 q 340 215 267 300 q 549 131 413 131 m 382 1294 q 430 1400 386 1361 q 532 1439 474 1439 q 585 1431 561 1439 q 644 1410 610 1424 q 688 1394 665 1401 q 728 1388 710 1388 q 788 1438 783 1388 l 868 1438 q 823 1333 867 1374 q 721 1293 779 1293 q 669 1300 693 1293 q 607 1322 644 1307 q 560 1340 579 1335 q 524 1346 542 1346 q 482 1333 499 1346 q 463 1294 465 1319 l 382 1294 m 567 1272 l 669 1272 l 833 1074 l 699 1074 l 615 1188 l 510 1074 l 372 1074 l 567 1272 z "},"Ȍ":{"ha":1092,"x_min":88,"x_max":1028,"o":"m 549 -12 q 304 44 408 -12 q 144 207 200 101 q 88 458 88 313 q 147 744 88 621 q 314 934 206 867 q 567 1001 422 1001 q 813 944 708 1001 q 972 782 917 888 q 1028 531 1028 676 q 969 245 1028 368 q 801 55 910 122 q 549 -12 693 -12 m 549 131 q 768 237 688 131 q 849 531 849 343 q 775 774 849 689 q 568 858 701 858 q 347 751 428 858 q 267 457 267 644 q 340 215 267 300 q 549 131 413 131 m 347 1289 l 468 1289 l 556 1074 l 467 1074 l 347 1289 m 531 1289 l 651 1289 l 739 1074 l 650 1074 l 531 1289 z "},"Ö":{"ha":1092,"x_min":88,"x_max":1028,"o":"m 549 -12 q 304 44 408 -12 q 144 207 200 101 q 88 458 88 313 q 147 744 88 621 q 314 934 206 867 q 567 1001 422 1001 q 813 944 708 1001 q 972 782 917 888 q 1028 531 1028 676 q 969 245 1028 368 q 801 55 910 122 q 549 -12 693 -12 m 549 131 q 768 237 688 131 q 849 531 849 343 q 775 774 849 689 q 568 858 701 858 q 347 751 428 858 q 267 457 267 644 q 340 215 267 300 q 549 131 413 131 m 574 1263 l 561 1103 l 393 1103 l 406 1263 l 574 1263 m 831 1263 l 818 1103 l 650 1103 l 663 1263 l 831 1263 z "},"Ȫ":{"ha":1092,"x_min":88,"x_max":1028,"o":"m 549 -12 q 304 44 408 -12 q 144 207 200 101 q 88 458 88 313 q 147 744 88 621 q 314 934 206 867 q 567 1001 422 1001 q 813 944 708 1001 q 972 782 917 888 q 1028 531 1028 676 q 969 245 1028 368 q 801 55 910 122 q 549 -12 693 -12 m 549 131 q 768 237 688 131 q 849 531 849 343 q 775 774 849 689 q 568 858 701 858 q 347 751 428 858 q 267 457 267 644 q 340 215 267 300 q 549 131 413 131 m 574 1263 l 561 1103 l 393 1103 l 406 1263 l 574 1263 m 831 1263 l 818 1103 l 650 1103 l 663 1263 l 831 1263 m 418 1464 l 851 1464 l 842 1350 l 408 1350 l 418 1464 z "},"Ȱ":{"ha":1092,"x_min":88,"x_max":1028,"o":"m 549 -12 q 304 44 408 -12 q 144 207 200 101 q 88 458 88 313 q 147 744 88 621 q 314 934 206 867 q 567 1001 422 1001 q 813 944 708 1001 q 972 782 917 888 q 1028 531 1028 676 q 969 245 1028 368 q 801 55 910 122 q 549 -12 693 -12 m 549 131 q 768 237 688 131 q 849 531 849 343 q 775 774 849 689 q 568 858 701 858 q 347 751 428 858 q 267 457 267 644 q 340 215 267 300 q 549 131 413 131 m 714 1268 l 701 1097 l 508 1097 l 522 1268 l 714 1268 m 418 1464 l 851 1464 l 842 1350 l 408 1350 l 418 1464 z "},"Ọ":{"ha":1092,"x_min":88,"x_max":1028,"o":"m 549 -12 q 304 44 408 -12 q 144 207 200 101 q 88 458 88 313 q 147 744 88 621 q 314 934 206 867 q 567 1001 422 1001 q 813 944 708 1001 q 972 782 917 888 q 1028 531 1028 676 q 969 245 1028 368 q 801 55 910 122 q 549 -12 693 -12 m 549 131 q 768 237 688 131 q 849 531 849 343 q 775 774 849 689 q 568 858 701 858 q 347 751 428 858 q 267 457 267 644 q 340 215 267 300 q 549 131 413 131 m 597 -108 l 583 -271 l 413 -271 l 428 -108 l 597 -108 z "},"Ò":{"ha":1092,"x_min":88,"x_max":1028,"o":"m 549 -12 q 304 44 408 -12 q 144 207 200 101 q 88 458 88 313 q 147 744 88 621 q 314 934 206 867 q 567 1001 422 1001 q 813 944 708 1001 q 972 782 917 888 q 1028 531 1028 676 q 969 245 1028 368 q 801 55 910 122 q 549 -12 693 -12 m 549 131 q 768 237 688 131 q 849 531 849 343 q 775 774 849 689 q 568 858 701 858 q 347 751 428 858 q 267 457 267 644 q 340 215 267 300 q 549 131 413 131 m 368 1289 l 526 1289 l 658 1074 l 547 1074 l 368 1289 z "},"Ỏ":{"ha":1092,"x_min":88,"x_max":1028,"o":"m 549 -12 q 304 44 408 -12 q 144 207 200 101 q 88 458 88 313 q 147 744 88 621 q 314 934 206 867 q 567 1001 422 1001 q 813 944 708 1001 q 972 782 917 888 q 1028 531 1028 676 q 969 245 1028 368 q 801 55 910 122 q 549 -12 693 -12 m 549 131 q 768 237 688 131 q 849 531 849 343 q 775 774 849 689 q 568 858 701 858 q 347 751 428 858 q 267 457 267 644 q 340 215 267 300 q 549 131 413 131 m 649 1074 l 557 1074 l 560 1101 q 578 1140 561 1126 q 622 1167 594 1154 q 649 1183 640 1176 q 658 1199 658 1189 q 647 1213 658 1207 q 614 1218 635 1218 q 526 1203 574 1218 l 507 1272 q 632 1294 565 1294 q 735 1272 697 1294 q 774 1213 774 1249 q 754 1165 774 1182 q 700 1133 735 1149 q 663 1112 674 1119 q 650 1090 651 1104 l 649 1074 z "},"Ơ":{"ha":1092,"x_min":88,"x_max":1081,"o":"m 1078 1114 q 1019 967 1071 1024 q 879 900 967 910 q 989 747 950 840 q 1028 531 1028 654 q 969 245 1028 368 q 801 55 910 122 q 549 -12 693 -12 q 304 44 408 -12 q 144 207 200 101 q 88 458 88 313 q 147 745 88 622 q 318 935 207 868 q 581 1001 429 1001 q 688 994 632 1001 q 782 989 749 989 q 889 1022 857 989 q 928 1136 921 1056 l 931 1161 l 1081 1161 l 1078 1114 m 549 131 q 768 237 688 131 q 849 531 849 343 q 775 774 849 689 q 568 858 701 858 q 347 751 428 858 q 267 457 267 644 q 340 215 267 300 q 549 131 413 131 z "},"Ớ":{"ha":1092,"x_min":88,"x_max":1081,"o":"m 1078 1114 q 1019 967 1071 1024 q 879 900 967 910 q 989 747 950 840 q 1028 531 1028 654 q 969 245 1028 368 q 801 55 910 122 q 549 -12 693 -12 q 304 44 408 -12 q 144 207 200 101 q 88 458 88 313 q 147 745 88 622 q 318 935 207 868 q 581 1001 429 1001 q 688 994 632 1001 q 782 989 749 989 q 889 1022 857 989 q 928 1136 921 1056 l 931 1161 l 1081 1161 l 1078 1114 m 549 131 q 768 237 688 131 q 849 531 849 343 q 775 774 849 689 q 568 858 701 858 q 347 751 428 858 q 267 457 267 644 q 340 215 267 300 q 549 131 413 131 m 547 1074 l 703 1289 l 881 1289 l 658 1074 l 547 1074 z "},"Ợ":{"ha":1092,"x_min":88,"x_max":1081,"o":"m 1078 1114 q 1019 967 1071 1024 q 879 900 967 910 q 989 747 950 840 q 1028 531 1028 654 q 969 245 1028 368 q 801 55 910 122 q 549 -12 693 -12 q 304 44 408 -12 q 144 207 200 101 q 88 458 88 313 q 147 745 88 622 q 318 935 207 868 q 581 1001 429 1001 q 688 994 632 1001 q 782 989 749 989 q 889 1022 857 989 q 928 1136 921 1056 l 931 1161 l 1081 1161 l 1078 1114 m 549 131 q 768 237 688 131 q 849 531 849 343 q 775 774 849 689 q 568 858 701 858 q 347 751 428 858 q 267 457 267 644 q 340 215 267 300 q 549 131 413 131 m 599 -108 l 585 -271 l 414 -271 l 429 -108 l 599 -108 z "},"Ờ":{"ha":1092,"x_min":88,"x_max":1081,"o":"m 1078 1114 q 1019 967 1071 1024 q 879 900 967 910 q 989 747 950 840 q 1028 531 1028 654 q 969 245 1028 368 q 801 55 910 122 q 549 -12 693 -12 q 304 44 408 -12 q 144 207 200 101 q 88 458 88 313 q 147 745 88 622 q 318 935 207 868 q 581 1001 429 1001 q 688 994 632 1001 q 782 989 749 989 q 889 1022 857 989 q 928 1136 921 1056 l 931 1161 l 1081 1161 l 1078 1114 m 549 131 q 768 237 688 131 q 849 531 849 343 q 775 774 849 689 q 568 858 701 858 q 347 751 428 858 q 267 457 267 644 q 340 215 267 300 q 549 131 413 131 m 368 1289 l 526 1289 l 658 1074 l 547 1074 l 368 1289 z "},"Ở":{"ha":1092,"x_min":88,"x_max":1081,"o":"m 1078 1114 q 1019 967 1071 1024 q 879 900 967 910 q 989 747 950 840 q 1028 531 1028 654 q 969 245 1028 368 q 801 55 910 122 q 549 -12 693 -12 q 304 44 408 -12 q 144 207 200 101 q 88 458 88 313 q 147 745 88 622 q 318 935 207 868 q 581 1001 429 1001 q 688 994 632 1001 q 782 989 749 989 q 889 1022 857 989 q 928 1136 921 1056 l 931 1161 l 1081 1161 l 1078 1114 m 549 131 q 768 237 688 131 q 849 531 849 343 q 775 774 849 689 q 568 858 701 858 q 347 751 428 858 q 267 457 267 644 q 340 215 267 300 q 549 131 413 131 m 649 1074 l 557 1074 l 560 1101 q 578 1140 561 1126 q 622 1167 594 1154 q 649 1183 640 1176 q 658 1199 658 1189 q 647 1213 658 1207 q 614 1218 635 1218 q 526 1203 574 1218 l 507 1272 q 632 1294 565 1294 q 735 1272 697 1294 q 774 1213 774 1249 q 754 1165 774 1182 q 700 1133 735 1149 q 663 1112 674 1119 q 650 1090 651 1104 l 649 1074 z "},"Ỡ":{"ha":1092,"x_min":88,"x_max":1081,"o":"m 1078 1114 q 1019 967 1071 1024 q 879 900 967 910 q 989 747 950 840 q 1028 531 1028 654 q 969 245 1028 368 q 801 55 910 122 q 549 -12 693 -12 q 304 44 408 -12 q 144 207 200 101 q 88 458 88 313 q 147 745 88 622 q 318 935 207 868 q 581 1001 429 1001 q 688 994 632 1001 q 782 989 749 989 q 889 1022 857 989 q 928 1136 921 1056 l 931 1161 l 1081 1161 l 1078 1114 m 549 131 q 768 237 688 131 q 849 531 849 343 q 775 774 849 689 q 568 858 701 858 q 347 751 428 858 q 267 457 267 644 q 340 215 267 300 q 549 131 413 131 m 367 1092 q 415 1232 372 1186 q 524 1278 458 1278 q 574 1267 550 1278 q 629 1236 599 1256 q 652 1223 635 1233 q 683 1208 669 1213 q 710 1203 697 1203 q 755 1221 738 1203 q 775 1274 772 1239 l 856 1274 q 807 1133 850 1178 q 699 1088 764 1088 q 648 1099 672 1088 q 593 1129 624 1110 q 547 1155 563 1147 q 514 1163 531 1163 q 469 1144 486 1163 q 447 1092 451 1126 l 367 1092 z "},"Ő":{"ha":1092,"x_min":88,"x_max":1028,"o":"m 549 -12 q 304 44 408 -12 q 144 207 200 101 q 88 458 88 313 q 147 744 88 621 q 314 934 206 867 q 567 1001 422 1001 q 813 944 708 1001 q 972 782 917 888 q 1028 531 1028 676 q 969 245 1028 368 q 801 55 910 122 q 549 -12 693 -12 m 549 131 q 768 237 688 131 q 849 531 849 343 q 775 774 849 689 q 568 858 701 858 q 347 751 428 858 q 267 457 267 644 q 340 215 267 300 q 549 131 413 131 m 583 1289 l 713 1289 l 556 1074 l 467 1074 l 583 1289 m 767 1289 l 897 1289 l 739 1074 l 650 1074 l 767 1289 z "},"Ȏ":{"ha":1092,"x_min":88,"x_max":1028,"o":"m 549 -12 q 304 44 408 -12 q 144 207 200 101 q 88 458 88 313 q 147 744 88 621 q 314 934 206 867 q 567 1001 422 1001 q 813 944 708 1001 q 972 782 917 888 q 1028 531 1028 676 q 969 245 1028 368 q 801 55 910 122 q 549 -12 693 -12 m 549 131 q 768 237 688 131 q 849 531 849 343 q 775 774 849 689 q 568 858 701 858 q 347 751 428 858 q 267 457 267 644 q 340 215 267 300 q 549 131 413 131 m 611 1276 q 761 1237 697 1276 q 849 1125 825 1197 l 757 1089 q 607 1168 711 1168 q 450 1089 504 1168 l 365 1125 q 461 1237 396 1197 q 611 1276 526 1276 z "},"Ō":{"ha":1092,"x_min":88,"x_max":1028,"o":"m 549 -12 q 304 44 408 -12 q 144 207 200 101 q 88 458 88 313 q 147 744 88 621 q 314 934 206 867 q 567 1001 422 1001 q 813 944 708 1001 q 972 782 917 888 q 1028 531 1028 676 q 969 245 1028 368 q 801 55 910 122 q 549 -12 693 -12 m 549 131 q 768 237 688 131 q 849 531 849 343 q 775 774 849 689 q 568 858 701 858 q 347 751 428 858 q 267 457 267 644 q 340 215 267 300 q 549 131 413 131 m 400 1239 l 833 1239 l 824 1125 l 390 1125 l 400 1239 z "},"Ṓ":{"ha":1092,"x_min":88,"x_max":1028,"o":"m 549 -12 q 304 44 408 -12 q 144 207 200 101 q 88 458 88 313 q 147 744 88 621 q 314 934 206 867 q 567 1001 422 1001 q 813 944 708 1001 q 972 782 917 888 q 1028 531 1028 676 q 969 245 1028 368 q 801 55 910 122 q 549 -12 693 -12 m 549 131 q 768 237 688 131 q 849 531 849 343 q 775 774 849 689 q 568 858 701 858 q 347 751 428 858 q 267 457 267 644 q 340 215 267 300 q 549 131 413 131 m 400 1239 l 833 1239 l 824 1125 l 390 1125 l 400 1239 m 565 1299 l 721 1514 l 899 1514 l 676 1299 l 565 1299 z "},"Ṑ":{"ha":1092,"x_min":88,"x_max":1028,"o":"m 549 -12 q 304 44 408 -12 q 144 207 200 101 q 88 458 88 313 q 147 744 88 621 q 314 934 206 867 q 567 1001 422 1001 q 813 944 708 1001 q 972 782 917 888 q 1028 531 1028 676 q 969 245 1028 368 q 801 55 910 122 q 549 -12 693 -12 m 549 131 q 768 237 688 131 q 849 531 849 343 q 775 774 849 689 q 568 858 701 858 q 347 751 428 858 q 267 457 267 644 q 340 215 267 300 q 549 131 413 131 m 400 1239 l 833 1239 l 824 1125 l 390 1125 l 400 1239 m 386 1514 l 544 1514 l 676 1299 l 565 1299 l 386 1514 z "},"Ǫ":{"ha":1092,"x_min":88,"x_max":1028,"o":"m 671 1 q 565 -103 565 -24 q 586 -158 565 -139 q 643 -178 607 -178 q 725 -157 679 -178 l 742 -244 q 614 -274 681 -274 q 491 -234 538 -274 q 444 -129 444 -194 q 496 -10 444 -57 q 280 57 372 -1 q 138 218 188 115 q 88 458 88 321 q 147 744 88 621 q 314 934 206 867 q 567 1001 422 1001 q 814 945 710 1001 q 973 783 918 889 q 1028 531 1028 676 q 983 274 1028 385 q 857 94 938 163 q 671 1 776 25 m 549 131 q 768 237 688 131 q 849 531 849 343 q 775 774 849 689 q 568 858 701 858 q 347 751 428 858 q 267 457 267 644 q 340 215 267 300 q 549 131 413 131 z "},"Ø":{"ha":1092,"x_min":88,"x_max":1028,"o":"m 896 885 q 994 733 960 822 q 1028 531 1028 643 q 969 245 1028 368 q 801 55 910 122 q 549 -12 693 -12 q 331 31 428 -12 l 256 -83 l 143 -14 l 221 104 q 122 255 156 165 q 88 458 88 344 q 147 744 88 621 q 314 934 206 867 q 567 1001 422 1001 q 786 957 690 1001 l 863 1072 l 974 1003 l 896 885 m 267 457 q 317 247 267 326 l 701 831 q 568 858 643 858 q 347 751 428 858 q 267 457 267 644 m 549 131 q 768 237 688 131 q 849 531 849 343 q 800 739 849 658 l 415 158 q 549 131 474 131 z "},"Ǿ":{"ha":1092,"x_min":88,"x_max":1028,"o":"m 896 885 q 994 733 960 822 q 1028 531 1028 643 q 969 245 1028 368 q 801 55 910 122 q 549 -12 693 -12 q 331 31 428 -12 l 256 -83 l 143 -14 l 221 104 q 122 255 156 165 q 88 458 88 344 q 147 744 88 621 q 314 934 206 867 q 567 1001 422 1001 q 786 957 690 1001 l 863 1072 l 974 1003 l 896 885 m 267 457 q 317 247 267 326 l 701 831 q 568 858 643 858 q 347 751 428 858 q 267 457 267 644 m 549 131 q 768 237 688 131 q 849 531 849 343 q 800 739 849 658 l 415 158 q 549 131 474 131 m 547 1074 l 703 1289 l 881 1289 l 658 1074 l 547 1074 z "},"Õ":{"ha":1092,"x_min":88,"x_max":1028,"o":"m 549 -12 q 304 44 408 -12 q 144 207 200 101 q 88 458 88 313 q 147 744 88 621 q 314 934 206 867 q 567 1001 422 1001 q 813 944 708 1001 q 972 782 917 888 q 1028 531 1028 676 q 969 245 1028 368 q 801 55 910 122 q 549 -12 693 -12 m 549 131 q 768 237 688 131 q 849 531 849 343 q 775 774 849 689 q 568 858 701 858 q 347 751 428 858 q 267 457 267 644 q 340 215 267 300 q 549 131 413 131 m 367 1092 q 415 1232 372 1186 q 524 1278 458 1278 q 574 1267 550 1278 q 629 1236 599 1256 q 652 1223 635 1233 q 683 1208 669 1213 q 710 1203 697 1203 q 755 1221 738 1203 q 775 1274 772 1239 l 856 1274 q 807 1133 850 1178 q 699 1088 764 1088 q 648 1099 672 1088 q 593 1129 624 1110 q 547 1155 563 1147 q 514 1163 531 1163 q 469 1144 486 1163 q 447 1092 451 1126 l 367 1092 z "},"Ṍ":{"ha":1092,"x_min":88,"x_max":1028,"o":"m 549 -12 q 304 44 408 -12 q 144 207 200 101 q 88 458 88 313 q 147 744 88 621 q 314 934 206 867 q 567 1001 422 1001 q 813 944 708 1001 q 972 782 917 888 q 1028 531 1028 676 q 969 245 1028 368 q 801 55 910 122 q 549 -12 693 -12 m 549 131 q 768 237 688 131 q 849 531 849 343 q 775 774 849 689 q 568 858 701 858 q 347 751 428 858 q 267 457 267 644 q 340 215 267 300 q 549 131 413 131 m 367 1092 q 415 1232 372 1186 q 524 1278 458 1278 q 574 1267 550 1278 q 629 1236 599 1256 q 652 1223 635 1233 q 683 1208 669 1213 q 710 1203 697 1203 q 755 1221 738 1203 q 775 1274 772 1239 l 856 1274 q 807 1133 850 1178 q 699 1088 764 1088 q 648 1099 672 1088 q 593 1129 624 1110 q 547 1155 563 1147 q 514 1163 531 1163 q 469 1144 486 1163 q 447 1092 451 1126 l 367 1092 m 565 1299 l 721 1514 l 899 1514 l 676 1299 l 565 1299 z "},"Ṏ":{"ha":1092,"x_min":88,"x_max":1028,"o":"m 549 -12 q 304 44 408 -12 q 144 207 200 101 q 88 458 88 313 q 147 744 88 621 q 314 934 206 867 q 567 1001 422 1001 q 813 944 708 1001 q 972 782 917 888 q 1028 531 1028 676 q 969 245 1028 368 q 801 55 910 122 q 549 -12 693 -12 m 549 131 q 768 237 688 131 q 849 531 849 343 q 775 774 849 689 q 568 858 701 858 q 347 751 428 858 q 267 457 267 644 q 340 215 267 300 q 549 131 413 131 m 367 1092 q 415 1232 372 1186 q 524 1278 458 1278 q 574 1267 550 1278 q 629 1236 599 1256 q 652 1223 635 1233 q 683 1208 669 1213 q 710 1203 697 1203 q 755 1221 738 1203 q 775 1274 772 1239 l 856 1274 q 807 1133 850 1178 q 699 1088 764 1088 q 648 1099 672 1088 q 593 1129 624 1110 q 547 1155 563 1147 q 514 1163 531 1163 q 469 1144 486 1163 q 447 1092 451 1126 l 367 1092 m 592 1488 l 579 1328 l 411 1328 l 424 1488 l 592 1488 m 849 1488 l 836 1328 l 668 1328 l 681 1488 l 849 1488 z "},"Ȭ":{"ha":1092,"x_min":88,"x_max":1028,"o":"m 549 -12 q 304 44 408 -12 q 144 207 200 101 q 88 458 88 313 q 147 744 88 621 q 314 934 206 867 q 567 1001 422 1001 q 813 944 708 1001 q 972 782 917 888 q 1028 531 1028 676 q 969 245 1028 368 q 801 55 910 122 q 549 -12 693 -12 m 549 131 q 768 237 688 131 q 849 531 849 343 q 775 774 849 689 q 568 858 701 858 q 347 751 428 858 q 267 457 267 644 q 340 215 267 300 q 549 131 413 131 m 367 1092 q 415 1232 372 1186 q 524 1278 458 1278 q 574 1267 550 1278 q 629 1236 599 1256 q 652 1223 635 1233 q 683 1208 669 1213 q 710 1203 697 1203 q 755 1221 738 1203 q 775 1274 772 1239 l 856 1274 q 807 1133 850 1178 q 699 1088 764 1088 q 648 1099 672 1088 q 593 1129 624 1110 q 547 1155 563 1147 q 514 1163 531 1163 q 469 1144 486 1163 q 447 1092 451 1126 l 367 1092 m 418 1464 l 851 1464 l 842 1350 l 408 1350 l 418 1464 z "},"Œ":{"ha":1465,"x_min":88,"x_max":1456,"o":"m 961 847 l 939 574 l 1396 574 l 1385 432 l 928 432 l 906 142 l 1390 142 l 1379 0 l 729 0 l 733 53 q 521 -12 647 -12 q 295 44 393 -12 q 142 208 197 101 q 88 458 88 314 q 147 744 88 622 q 316 934 207 867 q 571 1001 425 1001 q 698 986 636 1001 q 803 939 760 971 l 807 989 l 1456 989 l 1446 847 l 961 847 m 267 457 q 340 215 267 300 q 549 131 413 131 q 649 145 600 131 q 735 189 697 160 l 782 800 q 592 858 711 858 q 351 752 435 858 q 267 457 267 646 z "},"P":{"ha":925,"x_min":82,"x_max":903,"o":"m 576 989 q 817 915 731 989 q 903 719 903 840 q 808 493 903 574 q 544 413 714 413 l 293 413 l 260 0 l 82 0 l 158 989 l 576 989 m 531 551 q 681 592 629 551 q 732 711 732 633 q 688 814 732 778 q 556 850 644 850 l 328 850 l 304 551 l 531 551 z "},"Þ":{"ha":926,"x_min":82,"x_max":886,"o":"m 581 783 q 806 715 725 783 q 886 519 886 646 q 800 299 886 376 q 553 222 714 222 l 275 222 l 257 0 l 82 0 l 158 989 l 336 989 l 319 783 l 581 783 m 540 361 q 718 511 718 361 q 679 611 718 579 q 563 643 640 643 l 308 643 l 286 361 l 540 361 z "},"Q":{"ha":1092,"x_min":88,"x_max":1028,"o":"m 738 22 q 896 -168 785 -68 l 767 -265 q 651 -152 704 -218 q 560 -12 597 -86 l 549 -12 q 304 44 408 -12 q 144 207 200 101 q 88 458 88 313 q 147 744 88 621 q 314 934 206 867 q 567 1001 422 1001 q 813 944 708 1001 q 972 782 917 888 q 1028 531 1028 676 q 951 210 1028 343 q 738 22 874 76 m 267 457 q 340 215 267 300 q 549 131 413 131 q 768 237 688 131 q 849 531 849 343 q 775 774 849 689 q 568 858 701 858 q 347 751 428 858 q 267 457 267 644 z "},"R":{"ha":975,"x_min":82,"x_max":918,"o":"m 690 433 q 756 390 729 421 q 800 301 782 358 l 894 0 l 706 0 l 606 329 q 557 393 592 375 q 464 411 522 411 l 292 411 l 260 0 l 82 0 l 158 989 l 597 989 q 834 917 750 989 q 918 719 918 844 q 861 532 918 606 q 690 433 804 458 m 554 550 q 749 710 749 550 q 578 850 749 850 l 325 850 l 301 550 l 554 550 z "},"Ŕ":{"ha":975,"x_min":82,"x_max":918,"o":"m 690 433 q 756 390 729 421 q 800 301 782 358 l 894 0 l 706 0 l 606 329 q 557 393 592 375 q 464 411 522 411 l 292 411 l 260 0 l 82 0 l 158 989 l 597 989 q 834 917 750 989 q 918 719 918 844 q 861 532 918 606 q 690 433 804 458 m 554 550 q 749 710 749 550 q 578 850 749 850 l 325 850 l 301 550 l 554 550 m 490 1074 l 646 1289 l 824 1289 l 601 1074 l 490 1074 z "},"Ř":{"ha":975,"x_min":82,"x_max":918,"o":"m 690 433 q 756 390 729 421 q 800 301 782 358 l 894 0 l 706 0 l 606 329 q 557 393 592 375 q 464 411 522 411 l 292 411 l 260 0 l 82 0 l 158 989 l 597 989 q 834 917 750 989 q 918 719 918 844 q 861 532 918 606 q 690 433 804 458 m 554 550 q 749 710 749 550 q 578 850 749 850 l 325 850 l 301 550 l 554 550 m 793 1289 l 597 1074 l 493 1074 l 332 1289 l 469 1289 l 556 1160 l 656 1289 l 793 1289 z "},"Ŗ":{"ha":975,"x_min":82,"x_max":918,"o":"m 690 433 q 756 390 729 421 q 800 301 782 358 l 894 0 l 706 0 l 606 329 q 557 393 592 375 q 464 411 522 411 l 292 411 l 260 0 l 82 0 l 158 989 l 597 989 q 834 917 750 989 q 918 719 918 844 q 861 532 918 606 q 690 433 804 458 m 554 550 q 749 710 749 550 q 578 850 749 850 l 325 850 l 301 550 l 554 550 m 546 -96 l 540 -182 q 513 -291 535 -244 q 443 -378 492 -337 l 382 -331 q 439 -239 428 -290 l 353 -239 l 364 -96 l 546 -96 z "},"Ȑ":{"ha":975,"x_min":82,"x_max":918,"o":"m 690 433 q 756 390 729 421 q 800 301 782 358 l 894 0 l 706 0 l 606 329 q 557 393 592 375 q 464 411 522 411 l 292 411 l 260 0 l 82 0 l 158 989 l 597 989 q 834 917 750 989 q 918 719 918 844 q 861 532 918 606 q 690 433 804 458 m 554 550 q 749 710 749 550 q 578 850 749 850 l 325 850 l 301 550 l 554 550 m 290 1289 l 411 1289 l 499 1074 l 410 1074 l 290 1289 m 474 1289 l 594 1289 l 682 1074 l 593 1074 l 474 1289 z "},"Ṛ":{"ha":975,"x_min":82,"x_max":918,"o":"m 690 433 q 756 390 729 421 q 800 301 782 358 l 894 0 l 706 0 l 606 329 q 557 393 592 375 q 464 411 522 411 l 292 411 l 260 0 l 82 0 l 158 989 l 597 989 q 834 917 750 989 q 918 719 918 844 q 861 532 918 606 q 690 433 804 458 m 554 550 q 749 710 749 550 q 578 850 749 850 l 325 850 l 301 550 l 554 550 m 540 -108 l 526 -271 l 356 -271 l 371 -108 l 540 -108 z "},"Ȓ":{"ha":975,"x_min":82,"x_max":918,"o":"m 690 433 q 756 390 729 421 q 800 301 782 358 l 894 0 l 706 0 l 606 329 q 557 393 592 375 q 464 411 522 411 l 292 411 l 260 0 l 82 0 l 158 989 l 597 989 q 834 917 750 989 q 918 719 918 844 q 861 532 918 606 q 690 433 804 458 m 554 550 q 749 710 749 550 q 578 850 749 850 l 325 850 l 301 550 l 554 550 m 554 1276 q 704 1237 640 1276 q 792 1125 768 1197 l 700 1089 q 550 1168 654 1168 q 393 1089 447 1168 l 308 1125 q 404 1237 339 1197 q 554 1276 469 1276 z "},"Ṟ":{"ha":975,"x_min":82,"x_max":918,"o":"m 690 433 q 756 390 729 421 q 800 301 782 358 l 894 0 l 706 0 l 606 329 q 557 393 592 375 q 464 411 522 411 l 292 411 l 260 0 l 82 0 l 158 989 l 597 989 q 834 917 750 989 q 918 719 918 844 q 861 532 918 606 q 690 433 804 458 m 554 550 q 749 710 749 550 q 578 850 749 850 l 325 850 l 301 550 l 554 550 m 236 -136 l 668 -136 l 660 -244 l 228 -244 l 236 -136 z "},"S":{"ha":894,"x_min":42,"x_max":854,"o":"m 433 -12 q 218 17 318 -12 q 42 106 118 47 l 111 236 q 267 155 188 181 q 439 129 346 129 q 596 164 542 129 q 650 263 650 199 q 622 331 650 304 q 549 376 593 358 q 431 414 506 393 q 263 473 328 444 q 152 558 199 501 q 106 704 106 614 q 154 860 106 793 q 292 965 203 928 q 500 1001 381 1001 q 700 970 606 1001 q 854 883 794 939 l 785 753 q 647 832 721 804 q 496 860 572 860 q 339 822 394 860 q 283 718 283 785 q 313 644 283 674 q 388 597 343 615 q 511 557 433 579 q 676 500 613 528 q 784 419 739 472 q 829 281 829 367 q 724 65 829 143 q 433 -12 619 -12 z "},"Ś":{"ha":894,"x_min":42,"x_max":854,"o":"m 433 -12 q 218 17 318 -12 q 42 106 118 47 l 111 236 q 267 155 188 181 q 439 129 346 129 q 596 164 542 129 q 650 263 650 199 q 622 331 650 304 q 549 376 593 358 q 431 414 506 393 q 263 473 328 444 q 152 558 199 501 q 106 704 106 614 q 154 860 106 793 q 292 965 203 928 q 500 1001 381 1001 q 700 970 606 1001 q 854 883 794 939 l 785 753 q 647 832 721 804 q 496 860 572 860 q 339 822 394 860 q 283 718 283 785 q 313 644 283 674 q 388 597 343 615 q 511 557 433 579 q 676 500 613 528 q 784 419 739 472 q 829 281 829 367 q 724 65 829 143 q 433 -12 619 -12 m 453 1074 l 608 1289 l 786 1289 l 564 1074 l 453 1074 z "},"Ṥ":{"ha":894,"x_min":42,"x_max":854,"o":"m 433 -12 q 218 17 318 -12 q 42 106 118 47 l 111 236 q 267 155 188 181 q 439 129 346 129 q 596 164 542 129 q 650 263 650 199 q 622 331 650 304 q 549 376 593 358 q 431 414 506 393 q 263 473 328 444 q 152 558 199 501 q 106 704 106 614 q 154 860 106 793 q 292 965 203 928 q 500 1001 381 1001 q 700 970 606 1001 q 854 883 794 939 l 785 753 q 647 832 721 804 q 496 860 572 860 q 339 822 394 860 q 283 718 283 785 q 313 644 283 674 q 388 597 343 615 q 511 557 433 579 q 676 500 613 528 q 784 419 739 472 q 829 281 829 367 q 724 65 829 143 q 433 -12 619 -12 m 479 1074 l 635 1289 l 813 1289 l 590 1074 l 479 1074 m 453 1289 l 440 1118 l 247 1118 l 261 1289 l 453 1289 z "},"Š":{"ha":894,"x_min":42,"x_max":854,"o":"m 433 -12 q 218 17 318 -12 q 42 106 118 47 l 111 236 q 267 155 188 181 q 439 129 346 129 q 596 164 542 129 q 650 263 650 199 q 622 331 650 304 q 549 376 593 358 q 431 414 506 393 q 263 473 328 444 q 152 558 199 501 q 106 704 106 614 q 154 860 106 793 q 292 965 203 928 q 500 1001 381 1001 q 700 970 606 1001 q 854 883 794 939 l 785 753 q 647 832 721 804 q 496 860 572 860 q 339 822 394 860 q 283 718 283 785 q 313 644 283 674 q 388 597 343 615 q 511 557 433 579 q 676 500 613 528 q 784 419 739 472 q 829 281 829 367 q 724 65 829 143 q 433 -12 619 -12 m 756 1289 l 560 1074 l 456 1074 l 294 1289 l 432 1289 l 518 1160 l 618 1289 l 756 1289 z "},"Ṧ":{"ha":894,"x_min":42,"x_max":854,"o":"m 433 -12 q 218 17 318 -12 q 42 106 118 47 l 111 236 q 267 155 188 181 q 439 129 346 129 q 596 164 542 129 q 650 263 650 199 q 622 331 650 304 q 549 376 593 358 q 431 414 506 393 q 263 473 328 444 q 152 558 199 501 q 106 704 106 614 q 154 860 106 793 q 292 965 203 928 q 500 1001 381 1001 q 700 970 606 1001 q 854 883 794 939 l 785 753 q 647 832 721 804 q 496 860 572 860 q 339 822 394 860 q 283 718 283 785 q 313 644 283 674 q 388 597 343 615 q 511 557 433 579 q 676 500 613 528 q 784 419 739 472 q 829 281 829 367 q 724 65 829 143 q 433 -12 619 -12 m 756 1289 l 560 1074 l 456 1074 l 294 1289 l 432 1289 l 518 1160 l 618 1289 l 756 1289 m 638 1493 l 625 1322 l 432 1322 l 446 1493 l 638 1493 z "},"Ş":{"ha":894,"x_min":42,"x_max":854,"o":"m 283 718 q 313 644 283 674 q 388 597 343 615 q 511 557 433 579 q 676 500 613 528 q 784 419 739 472 q 829 281 829 367 q 731 70 829 147 q 457 -12 633 -7 l 447 -57 q 464 -56 453 -56 q 543 -81 513 -56 q 574 -151 574 -107 q 527 -240 574 -206 q 396 -274 481 -274 q 325 -267 363 -274 q 261 -249 288 -261 l 283 -175 q 393 -194 343 -194 q 461 -153 461 -194 q 417 -122 461 -122 q 363 -132 399 -122 l 338 -106 l 357 -10 q 42 106 169 10 l 111 236 q 267 155 188 181 q 439 129 346 129 q 596 164 542 129 q 650 263 650 199 q 622 331 650 304 q 549 376 593 358 q 431 414 506 393 q 263 473 328 444 q 152 558 199 501 q 106 704 106 614 q 154 860 106 793 q 292 965 203 928 q 500 1001 381 1001 q 700 970 606 1001 q 854 883 794 939 l 785 753 q 647 832 721 804 q 496 860 572 860 q 339 822 394 860 q 283 718 283 785 z "},"Ŝ":{"ha":894,"x_min":42,"x_max":854,"o":"m 433 -12 q 218 17 318 -12 q 42 106 118 47 l 111 236 q 267 155 188 181 q 439 129 346 129 q 596 164 542 129 q 650 263 650 199 q 622 331 650 304 q 549 376 593 358 q 431 414 506 393 q 263 473 328 444 q 152 558 199 501 q 106 704 106 614 q 154 860 106 793 q 292 965 203 928 q 500 1001 381 1001 q 700 970 606 1001 q 854 883 794 939 l 785 753 q 647 832 721 804 q 496 860 572 860 q 339 822 394 860 q 283 718 283 785 q 313 644 283 674 q 388 597 343 615 q 511 557 433 579 q 676 500 613 528 q 784 419 739 472 q 829 281 829 367 q 724 65 829 143 q 433 -12 619 -12 m 278 1074 l 474 1289 l 576 1289 l 739 1074 l 601 1074 l 522 1201 l 415 1074 l 278 1074 z "},"Ș":{"ha":894,"x_min":42,"x_max":854,"o":"m 433 -12 q 218 17 318 -12 q 42 106 118 47 l 111 236 q 267 155 188 181 q 439 129 346 129 q 596 164 542 129 q 650 263 650 199 q 622 331 650 304 q 549 376 593 358 q 431 414 506 393 q 263 473 328 444 q 152 558 199 501 q 106 704 106 614 q 154 860 106 793 q 292 965 203 928 q 500 1001 381 1001 q 700 970 606 1001 q 854 883 794 939 l 785 753 q 647 832 721 804 q 496 860 572 860 q 339 822 394 860 q 283 718 283 785 q 313 644 283 674 q 388 597 343 615 q 511 557 433 579 q 676 500 613 528 q 784 419 739 472 q 829 281 829 367 q 724 65 829 143 q 433 -12 619 -12 m 504 -96 l 499 -182 q 472 -291 493 -244 q 401 -378 450 -337 l 340 -331 q 397 -239 386 -290 l 311 -239 l 322 -96 l 504 -96 z "},"Ṡ":{"ha":894,"x_min":42,"x_max":854,"o":"m 433 -12 q 218 17 318 -12 q 42 106 118 47 l 111 236 q 267 155 188 181 q 439 129 346 129 q 596 164 542 129 q 650 263 650 199 q 622 331 650 304 q 549 376 593 358 q 431 414 506 393 q 263 473 328 444 q 152 558 199 501 q 106 704 106 614 q 154 860 106 793 q 292 965 203 928 q 500 1001 381 1001 q 700 970 606 1001 q 854 883 794 939 l 785 753 q 647 832 721 804 q 496 860 572 860 q 339 822 394 860 q 283 718 283 785 q 313 644 283 674 q 388 597 343 615 q 511 557 433 579 q 676 500 613 528 q 784 419 739 472 q 829 281 829 367 q 724 65 829 143 q 433 -12 619 -12 m 619 1268 l 607 1097 l 414 1097 l 428 1268 l 619 1268 z "},"Ṣ":{"ha":894,"x_min":42,"x_max":854,"o":"m 433 -12 q 218 17 318 -12 q 42 106 118 47 l 111 236 q 267 155 188 181 q 439 129 346 129 q 596 164 542 129 q 650 263 650 199 q 622 331 650 304 q 549 376 593 358 q 431 414 506 393 q 263 473 328 444 q 152 558 199 501 q 106 704 106 614 q 154 860 106 793 q 292 965 203 928 q 500 1001 381 1001 q 700 970 606 1001 q 854 883 794 939 l 785 753 q 647 832 721 804 q 496 860 572 860 q 339 822 394 860 q 283 718 283 785 q 313 644 283 674 q 388 597 343 615 q 511 557 433 579 q 676 500 613 528 q 784 419 739 472 q 829 281 829 367 q 724 65 829 143 q 433 -12 619 -12 m 499 -108 l 485 -271 l 314 -271 l 329 -108 l 499 -108 z "},"Ṩ":{"ha":894,"x_min":42,"x_max":854,"o":"m 433 -12 q 218 17 318 -12 q 42 106 118 47 l 111 236 q 267 155 188 181 q 439 129 346 129 q 596 164 542 129 q 650 263 650 199 q 622 331 650 304 q 549 376 593 358 q 431 414 506 393 q 263 473 328 444 q 152 558 199 501 q 106 704 106 614 q 154 860 106 793 q 292 965 203 928 q 500 1001 381 1001 q 700 970 606 1001 q 854 883 794 939 l 785 753 q 647 832 721 804 q 496 860 572 860 q 339 822 394 860 q 283 718 283 785 q 313 644 283 674 q 388 597 343 615 q 511 557 433 579 q 676 500 613 528 q 784 419 739 472 q 829 281 829 367 q 724 65 829 143 q 433 -12 619 -12 m 499 -108 l 485 -271 l 314 -271 l 329 -108 l 499 -108 m 619 1268 l 607 1097 l 414 1097 l 428 1268 l 619 1268 z "},"ẞ":{"ha":985,"x_min":81,"x_max":918,"o":"m 731 515 q 869 436 819 496 q 918 285 918 376 q 876 134 918 201 q 760 29 835 67 q 589 -8 685 -8 q 451 12 513 -8 q 329 75 389 32 l 390 204 q 583 128 492 128 q 703 169 661 128 q 746 289 746 211 q 699 396 746 363 q 551 429 653 429 l 397 429 l 408 572 l 542 572 q 666 611 622 572 q 710 724 710 650 q 664 822 710 786 q 540 857 618 857 q 374 803 431 857 q 307 640 317 750 l 257 0 l 81 0 l 132 640 q 253 906 146 814 q 549 999 360 999 q 791 928 701 999 q 881 740 881 858 q 842 601 881 660 q 731 515 804 543 z "},"Ə":{"ha":1064,"x_min":88,"x_max":1000,"o":"m 546 1001 q 786 944 683 1001 q 944 781 889 888 q 1000 531 1000 675 q 940 244 1000 367 q 772 54 881 121 q 521 -12 664 -12 q 201 107 314 -12 q 88 439 88 226 q 90 507 88 460 l 94 571 l 819 571 q 734 782 810 708 q 529 856 658 856 q 372 831 442 856 q 229 753 303 807 l 179 883 q 343 970 249 939 q 546 1001 438 1001 m 519 131 q 717 209 640 131 q 814 431 794 288 l 263 431 q 325 208 257 286 q 519 131 393 131 z "},"T":{"ha":860,"x_min":56,"x_max":893,"o":"m 379 842 l 56 842 l 67 989 l 893 989 l 882 842 l 560 842 l 493 0 l 313 0 l 379 842 z "},"Ŧ":{"ha":860,"x_min":56,"x_max":893,"o":"m 560 842 l 538 569 l 732 569 l 721 431 l 528 431 l 493 0 l 313 0 l 347 431 l 153 431 l 164 569 l 357 569 l 379 842 l 56 842 l 67 989 l 893 989 l 882 842 l 560 842 z "},"Ť":{"ha":860,"x_min":56,"x_max":893,"o":"m 379 842 l 56 842 l 67 989 l 893 989 l 882 842 l 560 842 l 493 0 l 313 0 l 379 842 m 733 1289 l 538 1074 l 433 1074 l 272 1289 l 410 1289 l 496 1160 l 596 1289 l 733 1289 z "},"Ţ":{"ha":860,"x_min":56,"x_max":893,"o":"m 893 989 l 882 842 l 560 842 l 493 0 l 442 0 l 429 -57 q 446 -56 435 -56 q 525 -81 494 -56 q 556 -151 556 -107 q 509 -240 556 -206 q 378 -274 463 -274 q 307 -267 344 -274 q 243 -249 269 -261 l 265 -175 q 375 -194 325 -194 q 443 -153 443 -194 q 399 -122 443 -122 q 344 -132 381 -122 l 319 -106 l 340 0 l 313 0 l 379 842 l 56 842 l 67 989 l 893 989 z "},"Ț":{"ha":860,"x_min":56,"x_max":893,"o":"m 379 842 l 56 842 l 67 989 l 893 989 l 882 842 l 560 842 l 493 0 l 313 0 l 379 842 m 486 -96 l 481 -182 q 453 -291 475 -244 q 383 -378 432 -337 l 322 -331 q 379 -239 368 -290 l 293 -239 l 304 -96 l 486 -96 z "},"Ṭ":{"ha":860,"x_min":56,"x_max":893,"o":"m 379 842 l 56 842 l 67 989 l 893 989 l 882 842 l 560 842 l 493 0 l 313 0 l 379 842 m 481 -108 l 467 -271 l 296 -271 l 311 -108 l 481 -108 z "},"Ṯ":{"ha":860,"x_min":56,"x_max":893,"o":"m 379 842 l 56 842 l 67 989 l 893 989 l 882 842 l 560 842 l 493 0 l 313 0 l 379 842 m 176 -136 l 608 -136 l 600 -244 l 168 -244 l 176 -136 z "},"U":{"ha":1028,"x_min":104,"x_max":978,"o":"m 503 -12 q 205 81 306 -12 q 104 353 104 174 q 107 410 104 371 l 151 989 l 329 989 l 282 407 q 281 363 281 392 q 338 188 281 244 q 510 131 394 131 q 682 190 621 131 q 754 383 743 250 l 801 989 l 978 989 l 931 396 q 808 90 915 193 q 503 -12 700 -12 z "},"Ú":{"ha":1028,"x_min":104,"x_max":978,"o":"m 503 -12 q 205 81 306 -12 q 104 353 104 174 q 107 410 104 371 l 151 989 l 329 989 l 282 407 q 281 363 281 392 q 338 188 281 244 q 510 131 394 131 q 682 190 621 131 q 754 383 743 250 l 801 989 l 978 989 l 931 396 q 808 90 915 193 q 503 -12 700 -12 m 517 1074 l 672 1289 l 850 1289 l 628 1074 l 517 1074 z "},"Ŭ":{"ha":1028,"x_min":104,"x_max":978,"o":"m 503 -12 q 205 81 306 -12 q 104 353 104 174 q 107 410 104 371 l 151 989 l 329 989 l 282 407 q 281 363 281 392 q 338 188 281 244 q 510 131 394 131 q 682 190 621 131 q 754 383 743 250 l 801 989 l 978 989 l 931 396 q 808 90 915 193 q 503 -12 700 -12 m 581 1088 q 431 1127 494 1088 q 343 1239 367 1167 l 435 1276 q 585 1196 479 1196 q 742 1276 688 1196 l 826 1239 q 731 1127 796 1167 q 581 1088 665 1088 z "},"Û":{"ha":1028,"x_min":104,"x_max":978,"o":"m 503 -12 q 205 81 306 -12 q 104 353 104 174 q 107 410 104 371 l 151 989 l 329 989 l 282 407 q 281 363 281 392 q 338 188 281 244 q 510 131 394 131 q 682 190 621 131 q 754 383 743 250 l 801 989 l 978 989 l 931 396 q 808 90 915 193 q 503 -12 700 -12 m 342 1074 l 538 1289 l 640 1289 l 803 1074 l 665 1074 l 586 1201 l 479 1074 l 342 1074 z "},"Ȕ":{"ha":1028,"x_min":104,"x_max":978,"o":"m 503 -12 q 205 81 306 -12 q 104 353 104 174 q 107 410 104 371 l 151 989 l 329 989 l 282 407 q 281 363 281 392 q 338 188 281 244 q 510 131 394 131 q 682 190 621 131 q 754 383 743 250 l 801 989 l 978 989 l 931 396 q 808 90 915 193 q 503 -12 700 -12 m 317 1289 l 438 1289 l 525 1074 l 436 1074 l 317 1289 m 500 1289 l 621 1289 l 708 1074 l 619 1074 l 500 1289 z "},"Ü":{"ha":1028,"x_min":104,"x_max":978,"o":"m 503 -12 q 205 81 306 -12 q 104 353 104 174 q 107 410 104 371 l 151 989 l 329 989 l 282 407 q 281 363 281 392 q 338 188 281 244 q 510 131 394 131 q 682 190 621 131 q 754 383 743 250 l 801 989 l 978 989 l 931 396 q 808 90 915 193 q 503 -12 700 -12 m 543 1263 l 531 1103 l 363 1103 l 375 1263 l 543 1263 m 800 1263 l 788 1103 l 619 1103 l 632 1263 l 800 1263 z "},"Ụ":{"ha":1028,"x_min":104,"x_max":978,"o":"m 503 -12 q 205 81 306 -12 q 104 353 104 174 q 107 410 104 371 l 151 989 l 329 989 l 282 407 q 281 363 281 392 q 338 188 281 244 q 510 131 394 131 q 682 190 621 131 q 754 383 743 250 l 801 989 l 978 989 l 931 396 q 808 90 915 193 q 503 -12 700 -12 m 565 -108 l 551 -271 l 381 -271 l 396 -108 l 565 -108 z "},"Ù":{"ha":1028,"x_min":104,"x_max":978,"o":"m 503 -12 q 205 81 306 -12 q 104 353 104 174 q 107 410 104 371 l 151 989 l 329 989 l 282 407 q 281 363 281 392 q 338 188 281 244 q 510 131 394 131 q 682 190 621 131 q 754 383 743 250 l 801 989 l 978 989 l 931 396 q 808 90 915 193 q 503 -12 700 -12 m 338 1289 l 496 1289 l 628 1074 l 517 1074 l 338 1289 z "},"Ủ":{"ha":1028,"x_min":104,"x_max":978,"o":"m 503 -12 q 205 81 306 -12 q 104 353 104 174 q 107 410 104 371 l 151 989 l 329 989 l 282 407 q 281 363 281 392 q 338 188 281 244 q 510 131 394 131 q 682 190 621 131 q 754 383 743 250 l 801 989 l 978 989 l 931 396 q 808 90 915 193 q 503 -12 700 -12 m 618 1074 l 526 1074 l 529 1101 q 547 1140 531 1126 q 592 1167 564 1154 q 619 1183 610 1176 q 628 1199 628 1189 q 616 1213 628 1207 q 583 1218 604 1218 q 496 1203 543 1218 l 476 1272 q 601 1294 535 1294 q 705 1272 667 1294 q 743 1213 743 1249 q 724 1165 743 1182 q 669 1133 704 1149 q 632 1112 643 1119 q 619 1090 621 1104 l 618 1074 z "},"Ư":{"ha":1028,"x_min":104,"x_max":1151,"o":"m 1151 1161 l 1149 1114 q 1096 974 1142 1029 q 971 904 1050 919 l 931 396 q 808 90 915 193 q 503 -12 700 -12 q 205 81 306 -12 q 104 353 104 174 q 107 410 104 371 l 151 989 l 329 989 l 282 407 q 281 363 281 392 q 338 188 281 244 q 510 131 394 131 q 682 190 621 131 q 754 383 743 250 l 801 989 l 853 989 q 960 1022 926 989 q 999 1136 993 1056 l 1000 1161 l 1151 1161 z "},"Ứ":{"ha":1028,"x_min":104,"x_max":1151,"o":"m 1151 1161 l 1149 1114 q 1096 974 1142 1029 q 971 904 1050 919 l 931 396 q 808 90 915 193 q 503 -12 700 -12 q 205 81 306 -12 q 104 353 104 174 q 107 410 104 371 l 151 989 l 329 989 l 282 407 q 281 363 281 392 q 338 188 281 244 q 510 131 394 131 q 682 190 621 131 q 754 383 743 250 l 801 989 l 853 989 q 960 1022 926 989 q 999 1136 993 1056 l 1000 1161 l 1151 1161 m 517 1074 l 672 1289 l 850 1289 l 628 1074 l 517 1074 z "},"Ự":{"ha":1028,"x_min":104,"x_max":1151,"o":"m 1151 1161 l 1149 1114 q 1096 974 1142 1029 q 971 904 1050 919 l 931 396 q 808 90 915 193 q 503 -12 700 -12 q 205 81 306 -12 q 104 353 104 174 q 107 410 104 371 l 151 989 l 329 989 l 282 407 q 281 363 281 392 q 338 188 281 244 q 510 131 394 131 q 682 190 621 131 q 754 383 743 250 l 801 989 l 853 989 q 960 1022 926 989 q 999 1136 993 1056 l 1000 1161 l 1151 1161 m 565 -108 l 551 -271 l 381 -271 l 396 -108 l 565 -108 z "},"Ừ":{"ha":1028,"x_min":104,"x_max":1151,"o":"m 1151 1161 l 1149 1114 q 1096 974 1142 1029 q 971 904 1050 919 l 931 396 q 808 90 915 193 q 503 -12 700 -12 q 205 81 306 -12 q 104 353 104 174 q 107 410 104 371 l 151 989 l 329 989 l 282 407 q 281 363 281 392 q 338 188 281 244 q 510 131 394 131 q 682 190 621 131 q 754 383 743 250 l 801 989 l 853 989 q 960 1022 926 989 q 999 1136 993 1056 l 1000 1161 l 1151 1161 m 338 1289 l 496 1289 l 628 1074 l 517 1074 l 338 1289 z "},"Ử":{"ha":1028,"x_min":104,"x_max":1151,"o":"m 1151 1161 l 1149 1114 q 1096 974 1142 1029 q 971 904 1050 919 l 931 396 q 808 90 915 193 q 503 -12 700 -12 q 205 81 306 -12 q 104 353 104 174 q 107 410 104 371 l 151 989 l 329 989 l 282 407 q 281 363 281 392 q 338 188 281 244 q 510 131 394 131 q 682 190 621 131 q 754 383 743 250 l 801 989 l 853 989 q 960 1022 926 989 q 999 1136 993 1056 l 1000 1161 l 1151 1161 m 618 1074 l 526 1074 l 529 1101 q 547 1140 531 1126 q 592 1167 564 1154 q 619 1183 610 1176 q 628 1199 628 1189 q 616 1213 628 1207 q 583 1218 604 1218 q 496 1203 543 1218 l 476 1272 q 601 1294 535 1294 q 705 1272 667 1294 q 743 1213 743 1249 q 724 1165 743 1182 q 669 1133 704 1149 q 632 1112 643 1119 q 619 1090 621 1104 l 618 1074 z "},"Ữ":{"ha":1028,"x_min":104,"x_max":1151,"o":"m 1151 1161 l 1149 1114 q 1096 974 1142 1029 q 971 904 1050 919 l 931 396 q 808 90 915 193 q 503 -12 700 -12 q 205 81 306 -12 q 104 353 104 174 q 107 410 104 371 l 151 989 l 329 989 l 282 407 q 281 363 281 392 q 338 188 281 244 q 510 131 394 131 q 682 190 621 131 q 754 383 743 250 l 801 989 l 853 989 q 960 1022 926 989 q 999 1136 993 1056 l 1000 1161 l 1151 1161 m 336 1092 q 385 1232 342 1186 q 493 1278 428 1278 q 544 1267 519 1278 q 599 1236 568 1256 q 622 1223 604 1233 q 653 1208 639 1213 q 679 1203 667 1203 q 724 1221 707 1203 q 744 1274 742 1239 l 825 1274 q 776 1133 819 1178 q 668 1088 733 1088 q 617 1099 642 1088 q 563 1129 593 1110 q 516 1155 532 1147 q 483 1163 500 1163 q 438 1144 456 1163 q 417 1092 421 1126 l 336 1092 z "},"Ű":{"ha":1028,"x_min":104,"x_max":978,"o":"m 503 -12 q 205 81 306 -12 q 104 353 104 174 q 107 410 104 371 l 151 989 l 329 989 l 282 407 q 281 363 281 392 q 338 188 281 244 q 510 131 394 131 q 682 190 621 131 q 754 383 743 250 l 801 989 l 978 989 l 931 396 q 808 90 915 193 q 503 -12 700 -12 m 553 1289 l 682 1289 l 525 1074 l 436 1074 l 553 1289 m 736 1289 l 867 1289 l 708 1074 l 619 1074 l 736 1289 z "},"Ȗ":{"ha":1028,"x_min":104,"x_max":978,"o":"m 503 -12 q 205 81 306 -12 q 104 353 104 174 q 107 410 104 371 l 151 989 l 329 989 l 282 407 q 281 363 281 392 q 338 188 281 244 q 510 131 394 131 q 682 190 621 131 q 754 383 743 250 l 801 989 l 978 989 l 931 396 q 808 90 915 193 q 503 -12 700 -12 m 581 1276 q 731 1237 667 1276 q 818 1125 794 1197 l 726 1089 q 576 1168 681 1168 q 419 1089 474 1168 l 335 1125 q 431 1237 365 1197 q 581 1276 496 1276 z "},"Ū":{"ha":1028,"x_min":104,"x_max":978,"o":"m 503 -12 q 205 81 306 -12 q 104 353 104 174 q 107 410 104 371 l 151 989 l 329 989 l 282 407 q 281 363 281 392 q 338 188 281 244 q 510 131 394 131 q 682 190 621 131 q 754 383 743 250 l 801 989 l 978 989 l 931 396 q 808 90 915 193 q 503 -12 700 -12 m 369 1239 l 803 1239 l 793 1125 l 360 1125 l 369 1239 z "},"Ṻ":{"ha":1028,"x_min":104,"x_max":978,"o":"m 503 -12 q 205 81 306 -12 q 104 353 104 174 q 107 410 104 371 l 151 989 l 329 989 l 282 407 q 281 363 281 392 q 338 188 281 244 q 510 131 394 131 q 682 190 621 131 q 754 383 743 250 l 801 989 l 978 989 l 931 396 q 808 90 915 193 q 503 -12 700 -12 m 369 1239 l 803 1239 l 793 1125 l 360 1125 l 369 1239 m 561 1488 l 549 1328 l 381 1328 l 393 1488 l 561 1488 m 818 1488 l 806 1328 l 638 1328 l 650 1488 l 818 1488 z "},"Ų":{"ha":1028,"x_min":104,"x_max":978,"o":"m 978 989 l 931 396 q 643 3 907 69 q 540 -103 540 -26 q 561 -158 540 -139 q 619 -178 582 -178 q 700 -157 654 -178 l 717 -244 q 589 -274 656 -274 q 466 -234 511 -274 q 421 -129 421 -194 q 474 -12 421 -56 q 198 86 292 -6 q 104 351 104 178 q 107 410 104 368 l 151 989 l 329 989 l 282 407 q 281 363 281 392 q 338 188 281 244 q 510 131 394 131 q 682 190 621 131 q 754 383 743 250 l 801 989 l 978 989 z "},"Ů":{"ha":1028,"x_min":104,"x_max":978,"o":"m 503 -12 q 205 81 306 -12 q 104 353 104 174 q 107 410 104 371 l 151 989 l 329 989 l 282 407 q 281 363 281 392 q 338 188 281 244 q 510 131 394 131 q 682 190 621 131 q 754 383 743 250 l 801 989 l 978 989 l 931 396 q 808 90 915 193 q 503 -12 700 -12 m 583 1067 q 477 1108 521 1067 q 433 1213 433 1150 q 477 1317 433 1274 q 583 1360 521 1360 q 689 1317 646 1360 q 732 1213 732 1274 q 689 1108 732 1150 q 583 1067 646 1067 m 583 1146 q 628 1165 610 1146 q 646 1213 646 1185 q 628 1259 646 1240 q 583 1278 610 1278 q 538 1259 556 1278 q 519 1213 519 1240 q 538 1165 519 1185 q 583 1146 556 1146 z "},"Ũ":{"ha":1028,"x_min":104,"x_max":978,"o":"m 503 -12 q 205 81 306 -12 q 104 353 104 174 q 107 410 104 371 l 151 989 l 329 989 l 282 407 q 281 363 281 392 q 338 188 281 244 q 510 131 394 131 q 682 190 621 131 q 754 383 743 250 l 801 989 l 978 989 l 931 396 q 808 90 915 193 q 503 -12 700 -12 m 336 1092 q 385 1232 342 1186 q 493 1278 428 1278 q 544 1267 519 1278 q 599 1236 568 1256 q 622 1223 604 1233 q 653 1208 639 1213 q 679 1203 667 1203 q 724 1221 707 1203 q 744 1274 742 1239 l 825 1274 q 776 1133 819 1178 q 668 1088 733 1088 q 617 1099 642 1088 q 563 1129 593 1110 q 516 1155 532 1147 q 483 1163 500 1163 q 438 1144 456 1163 q 417 1092 421 1126 l 336 1092 z "},"Ṹ":{"ha":1028,"x_min":104,"x_max":978,"o":"m 503 -12 q 205 81 306 -12 q 104 353 104 174 q 107 410 104 371 l 151 989 l 329 989 l 282 407 q 281 363 281 392 q 338 188 281 244 q 510 131 394 131 q 682 190 621 131 q 754 383 743 250 l 801 989 l 978 989 l 931 396 q 808 90 915 193 q 503 -12 700 -12 m 336 1092 q 385 1232 342 1186 q 493 1278 428 1278 q 544 1267 519 1278 q 599 1236 568 1256 q 622 1223 604 1233 q 653 1208 639 1213 q 679 1203 667 1203 q 724 1221 707 1203 q 744 1274 742 1239 l 825 1274 q 776 1133 819 1178 q 668 1088 733 1088 q 617 1099 642 1088 q 563 1129 593 1110 q 516 1155 532 1147 q 483 1163 500 1163 q 438 1144 456 1163 q 417 1092 421 1126 l 336 1092 m 535 1299 l 690 1514 l 868 1514 l 646 1299 l 535 1299 z "},"V":{"ha":1001,"x_min":38,"x_max":1065,"o":"m 1065 989 l 547 0 l 401 0 l 38 989 l 224 989 l 493 225 l 881 989 l 1065 989 z "},"W":{"ha":1556,"x_min":85,"x_max":1574,"o":"m 1574 989 l 1147 0 l 1001 0 l 807 713 l 501 0 l 356 0 l 85 989 l 264 989 l 454 253 l 769 989 l 897 989 l 1089 246 l 1401 989 l 1574 989 z "},"Ẃ":{"ha":1556,"x_min":85,"x_max":1574,"o":"m 1574 989 l 1147 0 l 1001 0 l 807 713 l 501 0 l 356 0 l 85 989 l 264 989 l 454 253 l 769 989 l 897 989 l 1089 246 l 1401 989 l 1574 989 m 781 1074 l 936 1289 l 1114 1289 l 892 1074 l 781 1074 z "},"Ŵ":{"ha":1556,"x_min":85,"x_max":1574,"o":"m 1574 989 l 1147 0 l 1001 0 l 807 713 l 501 0 l 356 0 l 85 989 l 264 989 l 454 253 l 769 989 l 897 989 l 1089 246 l 1401 989 l 1574 989 m 606 1074 l 801 1289 l 904 1289 l 1067 1074 l 929 1074 l 850 1201 l 743 1074 l 606 1074 z "},"Ẅ":{"ha":1556,"x_min":85,"x_max":1574,"o":"m 1574 989 l 1147 0 l 1001 0 l 807 713 l 501 0 l 356 0 l 85 989 l 264 989 l 454 253 l 769 989 l 897 989 l 1089 246 l 1401 989 l 1574 989 m 807 1263 l 794 1103 l 626 1103 l 639 1263 l 807 1263 m 1064 1263 l 1051 1103 l 883 1103 l 896 1263 l 1064 1263 z "},"Ẁ":{"ha":1556,"x_min":85,"x_max":1574,"o":"m 1574 989 l 1147 0 l 1001 0 l 807 713 l 501 0 l 356 0 l 85 989 l 264 989 l 454 253 l 769 989 l 897 989 l 1089 246 l 1401 989 l 1574 989 m 601 1289 l 760 1289 l 892 1074 l 781 1074 l 601 1289 z "},"X":{"ha":932,"x_min":-39,"x_max":982,"o":"m 578 501 l 917 0 l 711 0 l 469 367 l 172 0 l -39 0 l 378 506 l 51 989 l 257 989 l 488 639 l 769 989 l 982 989 l 578 501 z "},"Y":{"ha":874,"x_min":-3,"x_max":978,"o":"m 531 392 l 500 0 l 319 0 l 351 393 l -3 989 l 197 989 l 449 535 l 772 989 l 978 989 l 531 392 z "},"Ý":{"ha":874,"x_min":-3,"x_max":978,"o":"m 531 392 l 500 0 l 319 0 l 351 393 l -3 989 l 197 989 l 449 535 l 772 989 l 978 989 l 531 392 m 439 1074 l 594 1289 l 772 1289 l 550 1074 l 439 1074 z "},"Ŷ":{"ha":874,"x_min":-3,"x_max":978,"o":"m 531 392 l 500 0 l 319 0 l 351 393 l -3 989 l 197 989 l 449 535 l 772 989 l 978 989 l 531 392 m 264 1074 l 460 1289 l 563 1289 l 725 1074 l 588 1074 l 508 1201 l 401 1074 l 264 1074 z "},"Ÿ":{"ha":874,"x_min":-3,"x_max":978,"o":"m 531 392 l 500 0 l 319 0 l 351 393 l -3 989 l 197 989 l 449 535 l 772 989 l 978 989 l 531 392 m 465 1263 l 453 1103 l 285 1103 l 297 1263 l 465 1263 m 722 1263 l 710 1103 l 542 1103 l 554 1263 l 722 1263 z "},"Ẏ":{"ha":874,"x_min":-3,"x_max":978,"o":"m 531 392 l 500 0 l 319 0 l 351 393 l -3 989 l 197 989 l 449 535 l 772 989 l 978 989 l 531 392 m 606 1268 l 593 1097 l 400 1097 l 414 1268 l 606 1268 z "},"Ỵ":{"ha":874,"x_min":-3,"x_max":978,"o":"m 531 392 l 500 0 l 319 0 l 351 393 l -3 989 l 197 989 l 449 535 l 772 989 l 978 989 l 531 392 m 489 -108 l 475 -271 l 304 -271 l 319 -108 l 489 -108 z "},"Ỳ":{"ha":874,"x_min":-3,"x_max":978,"o":"m 531 392 l 500 0 l 319 0 l 351 393 l -3 989 l 197 989 l 449 535 l 772 989 l 978 989 l 531 392 m 260 1289 l 418 1289 l 550 1074 l 439 1074 l 260 1289 z "},"Ỷ":{"ha":874,"x_min":-3,"x_max":978,"o":"m 531 392 l 500 0 l 319 0 l 351 393 l -3 989 l 197 989 l 449 535 l 772 989 l 978 989 l 531 392 m 540 1074 l 449 1074 l 451 1101 q 469 1140 453 1126 q 514 1167 486 1154 q 541 1183 532 1176 q 550 1199 550 1189 q 538 1213 550 1207 q 506 1218 526 1218 q 418 1203 465 1218 l 399 1272 q 524 1294 457 1294 q 627 1272 589 1294 q 665 1213 665 1249 q 646 1165 665 1182 q 592 1133 626 1149 q 554 1112 565 1119 q 542 1090 543 1104 l 540 1074 z "},"Ȳ":{"ha":874,"x_min":-3,"x_max":978,"o":"m 531 392 l 500 0 l 319 0 l 351 393 l -3 989 l 197 989 l 449 535 l 772 989 l 978 989 l 531 392 m 292 1239 l 725 1239 l 715 1125 l 282 1125 l 292 1239 z "},"Ỹ":{"ha":874,"x_min":-3,"x_max":978,"o":"m 531 392 l 500 0 l 319 0 l 351 393 l -3 989 l 197 989 l 449 535 l 772 989 l 978 989 l 531 392 m 258 1092 q 307 1232 264 1186 q 415 1278 350 1278 q 466 1267 442 1278 q 521 1236 490 1256 q 544 1223 526 1233 q 575 1208 561 1213 q 601 1203 589 1203 q 647 1221 629 1203 q 667 1274 664 1239 l 747 1274 q 699 1133 742 1178 q 590 1088 656 1088 q 540 1099 564 1088 q 485 1129 515 1110 q 438 1155 454 1147 q 406 1163 422 1163 q 360 1144 378 1163 q 339 1092 343 1126 l 258 1092 z "},"Z":{"ha":844,"x_min":40,"x_max":831,"o":"m 821 860 l 260 143 l 779 143 l 768 0 l 40 0 l 50 131 l 611 846 l 107 846 l 118 989 l 831 989 l 821 860 z "},"Ź":{"ha":844,"x_min":40,"x_max":831,"o":"m 821 860 l 260 143 l 779 143 l 768 0 l 40 0 l 50 131 l 611 846 l 107 846 l 118 989 l 831 989 l 821 860 m 425 1074 l 581 1289 l 758 1289 l 536 1074 l 425 1074 z "},"Ž":{"ha":844,"x_min":40,"x_max":831,"o":"m 821 860 l 260 143 l 779 143 l 768 0 l 40 0 l 50 131 l 611 846 l 107 846 l 118 989 l 831 989 l 821 860 m 728 1289 l 532 1074 l 428 1074 l 267 1289 l 404 1289 l 490 1160 l 590 1289 l 728 1289 z "},"Ż":{"ha":844,"x_min":40,"x_max":831,"o":"m 821 860 l 260 143 l 779 143 l 768 0 l 40 0 l 50 131 l 611 846 l 107 846 l 118 989 l 831 989 l 821 860 m 592 1268 l 579 1097 l 386 1097 l 400 1268 l 592 1268 z "},"Ẓ":{"ha":844,"x_min":40,"x_max":831,"o":"m 821 860 l 260 143 l 779 143 l 768 0 l 40 0 l 50 131 l 611 846 l 107 846 l 118 989 l 831 989 l 821 860 m 474 -108 l 460 -271 l 289 -271 l 304 -108 l 474 -108 z "},"a":{"ha":860,"x_min":57,"x_max":793,"o":"m 793 701 l 738 0 l 567 0 l 575 97 q 481 17 539 46 q 356 -11 424 -11 q 199 30 267 -11 q 94 148 132 71 q 57 328 57 225 q 99 532 57 443 q 215 670 140 621 q 389 719 290 719 q 524 688 467 719 q 614 597 582 656 l 622 701 l 793 701 m 410 124 q 546 190 496 124 q 596 371 596 257 q 550 530 596 475 q 419 585 504 585 q 281 518 331 585 q 231 335 231 451 q 277 178 231 233 q 410 124 324 124 z "},"á":{"ha":860,"x_min":57,"x_max":793,"o":"m 793 701 l 738 0 l 567 0 l 575 97 q 481 17 539 46 q 356 -11 424 -11 q 199 30 267 -11 q 94 148 132 71 q 57 328 57 225 q 99 532 57 443 q 215 670 140 621 q 389 719 290 719 q 524 688 467 719 q 614 597 582 656 l 622 701 l 793 701 m 410 124 q 546 190 496 124 q 596 371 596 257 q 550 530 596 475 q 419 585 504 585 q 281 518 331 585 q 231 335 231 451 q 277 178 231 233 q 410 124 324 124 m 410 792 l 567 1078 l 753 1078 l 521 792 l 410 792 z "},"ă":{"ha":860,"x_min":57,"x_max":793,"o":"m 793 701 l 738 0 l 567 0 l 575 97 q 481 17 539 46 q 356 -11 424 -11 q 199 30 267 -11 q 94 148 132 71 q 57 328 57 225 q 99 532 57 443 q 215 670 140 621 q 389 719 290 719 q 524 688 467 719 q 614 597 582 656 l 622 701 l 793 701 m 410 124 q 546 190 496 124 q 596 371 596 257 q 550 530 596 475 q 419 585 504 585 q 281 518 331 585 q 231 335 231 451 q 277 178 231 233 q 410 124 324 124 m 474 828 q 324 876 389 828 q 235 1019 258 925 l 325 1058 q 482 942 374 942 q 647 1058 582 942 l 733 1021 q 630 876 700 925 q 474 828 560 828 z "},"ắ":{"ha":860,"x_min":57,"x_max":793,"o":"m 793 701 l 738 0 l 567 0 l 575 97 q 481 17 539 46 q 356 -11 424 -11 q 199 30 267 -11 q 94 148 132 71 q 57 328 57 225 q 99 532 57 443 q 215 670 140 621 q 389 719 290 719 q 524 688 467 719 q 614 597 582 656 l 622 701 l 793 701 m 410 124 q 546 190 496 124 q 596 371 596 257 q 550 530 596 475 q 419 585 504 585 q 281 518 331 585 q 231 335 231 451 q 277 178 231 233 q 410 124 324 124 m 425 940 l 575 1138 l 743 1138 l 529 940 l 425 940 m 472 785 q 323 823 386 785 q 236 936 260 861 l 311 967 q 479 881 358 881 q 574 901 528 881 q 649 967 619 922 l 719 936 q 619 823 685 861 q 472 785 553 785 z "},"ặ":{"ha":860,"x_min":57,"x_max":793,"o":"m 793 701 l 738 0 l 567 0 l 575 97 q 481 17 539 46 q 356 -11 424 -11 q 199 30 267 -11 q 94 148 132 71 q 57 328 57 225 q 99 532 57 443 q 215 670 140 621 q 389 719 290 719 q 524 688 467 719 q 614 597 582 656 l 622 701 l 793 701 m 410 124 q 546 190 496 124 q 596 371 596 257 q 550 530 596 475 q 419 585 504 585 q 281 518 331 585 q 231 335 231 451 q 277 178 231 233 q 410 124 324 124 m 482 -108 l 468 -271 l 297 -271 l 313 -108 l 482 -108 m 474 828 q 324 876 389 828 q 235 1019 258 925 l 325 1058 q 482 942 374 942 q 647 1058 582 942 l 733 1021 q 630 876 700 925 q 474 828 560 828 z "},"ằ":{"ha":860,"x_min":57,"x_max":793,"o":"m 793 701 l 738 0 l 567 0 l 575 97 q 481 17 539 46 q 356 -11 424 -11 q 199 30 267 -11 q 94 148 132 71 q 57 328 57 225 q 99 532 57 443 q 215 670 140 621 q 389 719 290 719 q 524 688 467 719 q 614 597 582 656 l 622 701 l 793 701 m 410 124 q 546 190 496 124 q 596 371 596 257 q 550 530 596 475 q 419 585 504 585 q 281 518 331 585 q 231 335 231 451 q 277 178 231 233 q 410 124 324 124 m 250 1138 l 400 1138 l 529 940 l 425 940 l 250 1138 m 472 785 q 323 823 386 785 q 236 936 260 861 l 311 967 q 479 881 358 881 q 574 901 528 881 q 649 967 619 922 l 719 936 q 619 823 685 861 q 472 785 553 785 z "},"ẳ":{"ha":860,"x_min":57,"x_max":793,"o":"m 793 701 l 738 0 l 567 0 l 575 97 q 481 17 539 46 q 356 -11 424 -11 q 199 30 267 -11 q 94 148 132 71 q 57 328 57 225 q 99 532 57 443 q 215 670 140 621 q 389 719 290 719 q 524 688 467 719 q 614 597 582 656 l 622 701 l 793 701 m 410 124 q 546 190 496 124 q 596 371 596 257 q 550 530 596 475 q 419 585 504 585 q 281 518 331 585 q 231 335 231 451 q 277 178 231 233 q 410 124 324 124 m 433 967 q 453 1006 435 992 q 501 1032 471 1019 q 523 1042 514 1036 q 532 1054 532 1047 q 521 1066 532 1061 q 494 1071 510 1071 q 399 1054 457 1071 l 381 1124 q 508 1146 442 1146 q 610 1124 572 1146 q 647 1067 647 1101 q 629 1022 647 1038 q 576 993 611 1007 q 540 976 553 985 q 525 953 526 967 l 524 940 l 431 940 l 433 967 m 472 785 q 323 823 386 785 q 236 936 260 861 l 311 967 q 479 881 358 881 q 574 901 528 881 q 649 967 619 922 l 719 936 q 619 823 685 861 q 472 785 553 785 z "},"ẵ":{"ha":860,"x_min":57,"x_max":793,"o":"m 793 701 l 738 0 l 567 0 l 575 97 q 481 17 539 46 q 356 -11 424 -11 q 199 30 267 -11 q 94 148 132 71 q 57 328 57 225 q 99 532 57 443 q 215 670 140 621 q 389 719 290 719 q 524 688 467 719 q 614 597 582 656 l 622 701 l 793 701 m 410 124 q 546 190 496 124 q 596 371 596 257 q 550 530 596 475 q 419 585 504 585 q 281 518 331 585 q 231 335 231 451 q 277 178 231 233 q 410 124 324 124 m 582 996 q 531 1003 554 996 q 469 1028 507 1011 q 423 1047 442 1040 q 386 1053 404 1053 q 344 1040 361 1053 q 325 1000 328 1026 l 244 1000 q 291 1106 247 1067 q 393 1146 335 1146 q 447 1138 422 1146 q 506 1114 471 1129 q 554 1095 536 1101 q 590 1089 572 1089 q 632 1102 615 1089 q 650 1142 649 1115 l 731 1142 q 684 1035 728 1075 q 582 996 640 996 m 472 785 q 323 823 386 785 q 236 936 260 861 l 311 967 q 479 881 358 881 q 574 901 528 881 q 649 967 619 922 l 719 936 q 619 823 685 861 q 472 785 553 785 z "},"ǎ":{"ha":860,"x_min":57,"x_max":793,"o":"m 793 701 l 738 0 l 567 0 l 575 97 q 481 17 539 46 q 356 -11 424 -11 q 199 30 267 -11 q 94 148 132 71 q 57 328 57 225 q 99 532 57 443 q 215 670 140 621 q 389 719 290 719 q 524 688 467 719 q 614 597 582 656 l 622 701 l 793 701 m 410 124 q 546 190 496 124 q 596 371 596 257 q 550 530 596 475 q 419 585 504 585 q 281 518 331 585 q 231 335 231 451 q 277 178 231 233 q 410 124 324 124 m 718 1078 l 519 792 l 411 792 l 258 1078 l 396 1078 l 474 900 l 574 1078 l 718 1078 z "},"â":{"ha":860,"x_min":57,"x_max":793,"o":"m 793 701 l 738 0 l 567 0 l 575 97 q 481 17 539 46 q 356 -11 424 -11 q 199 30 267 -11 q 94 148 132 71 q 57 328 57 225 q 99 532 57 443 q 215 670 140 621 q 389 719 290 719 q 524 688 467 719 q 614 597 582 656 l 622 701 l 793 701 m 410 124 q 546 190 496 124 q 596 371 596 257 q 550 530 596 475 q 419 585 504 585 q 281 518 331 585 q 231 335 231 451 q 277 178 231 233 q 410 124 324 124 m 236 792 l 433 1078 l 542 1078 l 696 792 l 558 792 l 481 969 l 381 792 l 236 792 z "},"ấ":{"ha":860,"x_min":57,"x_max":889,"o":"m 793 701 l 738 0 l 567 0 l 575 97 q 481 17 539 46 q 356 -11 424 -11 q 199 30 267 -11 q 94 148 132 71 q 57 328 57 225 q 99 532 57 443 q 215 670 140 621 q 389 719 290 719 q 524 688 467 719 q 614 597 582 656 l 622 701 l 793 701 m 410 124 q 546 190 496 124 q 596 371 596 257 q 550 530 596 475 q 419 585 504 585 q 281 518 331 585 q 231 335 231 451 q 277 178 231 233 q 410 124 324 124 m 604 940 l 726 1138 l 889 1138 l 694 940 l 604 940 m 236 792 l 429 990 l 533 990 l 696 792 l 561 792 l 479 906 l 372 792 l 236 792 z "},"ậ":{"ha":860,"x_min":57,"x_max":793,"o":"m 793 701 l 738 0 l 567 0 l 575 97 q 481 17 539 46 q 356 -11 424 -11 q 199 30 267 -11 q 94 148 132 71 q 57 328 57 225 q 99 532 57 443 q 215 670 140 621 q 389 719 290 719 q 524 688 467 719 q 614 597 582 656 l 622 701 l 793 701 m 410 124 q 546 190 496 124 q 596 371 596 257 q 550 530 596 475 q 419 585 504 585 q 281 518 331 585 q 231 335 231 451 q 277 178 231 233 q 410 124 324 124 m 482 -108 l 468 -271 l 297 -271 l 313 -108 l 482 -108 m 236 792 l 433 1078 l 542 1078 l 696 792 l 558 792 l 481 969 l 381 792 l 236 792 z "},"ầ":{"ha":860,"x_min":57,"x_max":793,"o":"m 793 701 l 738 0 l 567 0 l 575 97 q 481 17 539 46 q 356 -11 424 -11 q 199 30 267 -11 q 94 148 132 71 q 57 328 57 225 q 99 532 57 443 q 215 670 140 621 q 389 719 290 719 q 524 688 467 719 q 614 597 582 656 l 622 701 l 793 701 m 410 124 q 546 190 496 124 q 596 371 596 257 q 550 530 596 475 q 419 585 504 585 q 281 518 331 585 q 231 335 231 451 q 277 178 231 233 q 410 124 324 124 m 518 1138 l 663 1138 l 753 940 l 664 940 l 518 1138 m 429 990 l 533 990 l 696 792 l 561 792 l 479 906 l 372 792 l 236 792 l 429 990 z "},"ẩ":{"ha":860,"x_min":57,"x_max":819,"o":"m 793 701 l 738 0 l 567 0 l 575 97 q 481 17 539 46 q 356 -11 424 -11 q 199 30 267 -11 q 94 148 132 71 q 57 328 57 225 q 99 532 57 443 q 215 670 140 621 q 389 719 290 719 q 524 688 467 719 q 614 597 582 656 l 622 701 l 793 701 m 410 124 q 546 190 496 124 q 596 371 596 257 q 550 530 596 475 q 419 585 504 585 q 281 518 331 585 q 231 335 231 451 q 277 178 231 233 q 410 124 324 124 m 606 967 q 625 1006 607 992 q 674 1032 643 1019 q 695 1042 686 1036 q 704 1054 704 1047 q 693 1066 704 1061 q 665 1071 682 1071 q 571 1054 629 1071 l 551 1124 q 681 1146 615 1146 q 782 1124 744 1146 q 819 1067 819 1101 q 801 1022 819 1038 q 749 993 783 1007 q 712 976 725 985 q 697 953 699 967 l 696 940 l 603 940 l 606 967 m 429 990 l 533 990 l 696 792 l 561 792 l 479 906 l 372 792 l 236 792 l 429 990 z "},"ẫ":{"ha":860,"x_min":57,"x_max":793,"o":"m 793 701 l 738 0 l 567 0 l 575 97 q 481 17 539 46 q 356 -11 424 -11 q 199 30 267 -11 q 94 148 132 71 q 57 328 57 225 q 99 532 57 443 q 215 670 140 621 q 389 719 290 719 q 524 688 467 719 q 614 597 582 656 l 622 701 l 793 701 m 410 124 q 546 190 496 124 q 596 371 596 257 q 550 530 596 475 q 419 585 504 585 q 281 518 331 585 q 231 335 231 451 q 277 178 231 233 q 410 124 324 124 m 246 1014 q 292 1118 249 1079 q 394 1157 336 1157 q 447 1150 422 1157 q 508 1128 471 1143 q 551 1113 529 1119 q 592 1106 574 1106 q 633 1118 617 1106 q 651 1156 650 1131 l 732 1156 q 686 1052 731 1092 q 583 1013 642 1013 q 530 1020 554 1013 q 471 1042 506 1028 q 428 1057 450 1050 q 388 1064 406 1064 q 346 1051 363 1064 q 326 1014 329 1038 l 246 1014 m 429 990 l 533 990 l 696 792 l 561 792 l 479 906 l 372 792 l 236 792 l 429 990 z "},"ȁ":{"ha":860,"x_min":57,"x_max":793,"o":"m 793 701 l 738 0 l 567 0 l 575 97 q 481 17 539 46 q 356 -11 424 -11 q 199 30 267 -11 q 94 148 132 71 q 57 328 57 225 q 99 532 57 443 q 215 670 140 621 q 389 719 290 719 q 524 688 467 719 q 614 597 582 656 l 622 701 l 793 701 m 410 124 q 546 190 496 124 q 596 371 596 257 q 550 530 596 475 q 419 585 504 585 q 281 518 331 585 q 231 335 231 451 q 277 178 231 233 q 410 124 324 124 m 249 1078 l 378 1078 l 411 792 l 335 792 l 249 1078 m 435 1078 l 564 1078 l 597 792 l 519 792 l 435 1078 z "},"ä":{"ha":860,"x_min":57,"x_max":793,"o":"m 793 701 l 738 0 l 567 0 l 575 97 q 481 17 539 46 q 356 -11 424 -11 q 199 30 267 -11 q 94 148 132 71 q 57 328 57 225 q 99 532 57 443 q 215 670 140 621 q 389 719 290 719 q 524 688 467 719 q 614 597 582 656 l 622 701 l 793 701 m 410 124 q 546 190 496 124 q 596 371 596 257 q 550 530 596 475 q 419 585 504 585 q 281 518 331 585 q 231 335 231 451 q 277 178 231 233 q 410 124 324 124 m 439 1014 l 426 854 l 258 854 l 271 1014 l 439 1014 m 696 1014 l 682 854 l 515 854 l 528 1014 l 696 1014 z "},"ȧ":{"ha":860,"x_min":57,"x_max":793,"o":"m 793 701 l 738 0 l 567 0 l 575 97 q 481 17 539 46 q 356 -11 424 -11 q 199 30 267 -11 q 94 148 132 71 q 57 328 57 225 q 99 532 57 443 q 215 670 140 621 q 389 719 290 719 q 524 688 467 719 q 614 597 582 656 l 622 701 l 793 701 m 410 124 q 546 190 496 124 q 596 371 596 257 q 550 530 596 475 q 419 585 504 585 q 281 518 331 585 q 231 335 231 451 q 277 178 231 233 q 410 124 324 124 m 579 1019 l 567 849 l 374 849 l 386 1019 l 579 1019 z "},"ạ":{"ha":860,"x_min":57,"x_max":793,"o":"m 793 701 l 738 0 l 567 0 l 575 97 q 481 17 539 46 q 356 -11 424 -11 q 199 30 267 -11 q 94 148 132 71 q 57 328 57 225 q 99 532 57 443 q 215 670 140 621 q 389 719 290 719 q 524 688 467 719 q 614 597 582 656 l 622 701 l 793 701 m 410 124 q 546 190 496 124 q 596 371 596 257 q 550 530 596 475 q 419 585 504 585 q 281 518 331 585 q 231 335 231 451 q 277 178 231 233 q 410 124 324 124 m 482 -108 l 468 -271 l 297 -271 l 313 -108 l 482 -108 z "},"à":{"ha":860,"x_min":57,"x_max":793,"o":"m 793 701 l 738 0 l 567 0 l 575 97 q 481 17 539 46 q 356 -11 424 -11 q 199 30 267 -11 q 94 148 132 71 q 57 328 57 225 q 99 532 57 443 q 215 670 140 621 q 389 719 290 719 q 524 688 467 719 q 614 597 582 656 l 622 701 l 793 701 m 410 124 q 546 190 496 124 q 596 371 596 257 q 550 530 596 475 q 419 585 504 585 q 281 518 331 585 q 231 335 231 451 q 277 178 231 233 q 410 124 324 124 m 233 1078 l 400 1078 l 521 792 l 410 792 l 233 1078 z "},"ả":{"ha":860,"x_min":57,"x_max":793,"o":"m 793 701 l 738 0 l 567 0 l 575 97 q 481 17 539 46 q 356 -11 424 -11 q 199 30 267 -11 q 94 148 132 71 q 57 328 57 225 q 99 532 57 443 q 215 670 140 621 q 389 719 290 719 q 524 688 467 719 q 614 597 582 656 l 622 701 l 793 701 m 410 124 q 546 190 496 124 q 596 371 596 257 q 550 530 596 475 q 419 585 504 585 q 281 518 331 585 q 231 335 231 451 q 277 178 231 233 q 410 124 324 124 m 515 792 l 421 792 l 424 828 q 441 874 426 856 q 483 918 456 893 q 511 944 503 935 q 519 967 519 954 q 472 997 519 997 q 396 983 439 997 l 375 1060 q 500 1082 432 1082 q 603 1055 565 1082 q 640 986 640 1028 q 622 931 640 953 q 569 883 604 910 q 531 851 544 865 q 517 819 518 838 l 515 792 z "},"ȃ":{"ha":860,"x_min":57,"x_max":793,"o":"m 793 701 l 738 0 l 567 0 l 575 97 q 481 17 539 46 q 356 -11 424 -11 q 199 30 267 -11 q 94 148 132 71 q 57 328 57 225 q 99 532 57 443 q 215 670 140 621 q 389 719 290 719 q 524 688 467 719 q 614 597 582 656 l 622 701 l 793 701 m 410 124 q 546 190 496 124 q 596 371 596 257 q 550 530 596 475 q 419 585 504 585 q 281 518 331 585 q 231 335 231 451 q 277 178 231 233 q 410 124 324 124 m 481 1053 q 631 1003 565 1053 q 719 860 696 954 l 629 824 q 472 940 579 940 q 307 824 374 940 l 221 860 q 324 1004 253 956 q 481 1053 394 1053 z "},"ā":{"ha":860,"x_min":57,"x_max":793,"o":"m 793 701 l 738 0 l 567 0 l 575 97 q 481 17 539 46 q 356 -11 424 -11 q 199 30 267 -11 q 94 148 132 71 q 57 328 57 225 q 99 532 57 443 q 215 670 140 621 q 389 719 290 719 q 524 688 467 719 q 614 597 582 656 l 622 701 l 793 701 m 410 124 q 546 190 496 124 q 596 371 596 257 q 550 530 596 475 q 419 585 504 585 q 281 518 331 585 q 231 335 231 451 q 277 178 231 233 q 410 124 324 124 m 265 990 l 697 990 l 688 876 l 256 876 l 265 990 z "},"ą":{"ha":860,"x_min":56,"x_max":793,"o":"m 675 -183 q 760 -161 714 -183 l 778 -250 q 647 -281 713 -281 q 523 -239 571 -281 q 475 -132 475 -197 q 499 -44 475 -83 q 568 19 524 -6 l 574 99 q 482 18 540 47 q 354 -11 424 -11 q 198 30 265 -11 q 93 148 131 71 q 56 328 56 225 q 97 532 56 443 q 215 670 139 621 q 388 719 290 719 q 524 688 465 719 q 614 597 582 656 l 621 701 l 793 701 l 738 0 l 715 0 q 629 -29 663 0 q 596 -106 596 -58 q 617 -163 596 -143 q 675 -183 638 -183 m 408 135 q 538 199 490 135 q 585 369 585 263 q 542 521 585 469 q 418 572 500 572 q 287 509 335 572 q 239 336 239 446 q 283 187 239 239 q 408 135 326 135 z "},"å":{"ha":860,"x_min":57,"x_max":793,"o":"m 793 701 l 738 0 l 567 0 l 575 97 q 481 17 539 46 q 356 -11 424 -11 q 199 30 267 -11 q 94 148 132 71 q 57 328 57 225 q 99 532 57 443 q 215 670 140 621 q 389 719 290 719 q 524 688 467 719 q 614 597 582 656 l 622 701 l 793 701 m 410 124 q 546 190 496 124 q 596 371 596 257 q 550 530 596 475 q 419 585 504 585 q 281 518 331 585 q 231 335 231 451 q 277 178 231 233 q 410 124 324 124 m 478 789 q 372 831 415 789 q 328 936 328 874 q 372 1038 328 996 q 478 1081 415 1081 q 583 1038 539 1081 q 626 936 626 996 q 583 831 626 874 q 478 789 540 789 m 478 868 q 522 888 504 868 q 540 936 540 907 q 522 983 540 964 q 478 1001 504 1001 q 432 983 450 1001 q 414 936 414 964 q 432 888 414 907 q 478 868 450 868 z "},"ǻ":{"ha":860,"x_min":56,"x_max":838,"o":"m 468 792 q 366 832 407 792 q 325 932 325 872 q 372 1043 325 997 q 483 1089 418 1089 q 553 1074 519 1089 l 665 1224 l 838 1217 l 617 1008 q 629 950 629 976 q 581 838 629 885 q 468 792 533 792 m 411 942 q 427 892 410 913 q 472 872 444 872 q 522 894 501 872 q 542 944 542 915 q 524 990 542 972 q 479 1008 506 1008 q 433 990 451 1008 q 411 942 414 971 m 621 701 l 793 701 l 738 0 l 567 0 l 574 97 q 481 17 539 46 q 354 -11 424 -11 q 198 30 265 -11 q 93 148 131 71 q 56 328 56 225 q 97 532 56 443 q 215 670 139 621 q 388 719 290 719 q 524 688 465 719 q 614 597 582 656 l 621 701 m 408 124 q 545 190 494 124 q 596 371 596 257 q 550 530 596 475 q 418 585 504 585 q 279 518 329 585 q 229 335 229 451 q 276 178 229 233 q 408 124 322 124 z "},"ã":{"ha":860,"x_min":57,"x_max":793,"o":"m 793 701 l 738 0 l 567 0 l 575 97 q 481 17 539 46 q 356 -11 424 -11 q 199 30 267 -11 q 94 148 132 71 q 57 328 57 225 q 99 532 57 443 q 215 670 140 621 q 389 719 290 719 q 524 688 467 719 q 614 597 582 656 l 622 701 l 793 701 m 410 124 q 546 190 496 124 q 596 371 596 257 q 550 530 596 475 q 419 585 504 585 q 281 518 331 585 q 231 335 231 451 q 277 178 231 233 q 410 124 324 124 m 232 844 q 280 985 238 939 q 383 1032 322 1032 q 438 1021 413 1032 q 499 988 464 1010 q 541 964 524 972 q 575 956 558 956 q 642 1028 633 956 l 722 1028 q 674 887 717 933 q 571 840 632 840 q 517 851 542 840 q 458 883 492 863 q 414 907 432 899 q 379 915 396 915 q 334 897 351 915 q 313 844 317 879 l 232 844 z "},"æ":{"ha":1211,"x_min":57,"x_max":1160,"o":"m 683 342 l 683 333 q 733 176 683 231 q 878 122 783 122 q 1085 196 990 122 l 1125 78 q 1009 13 1081 38 q 867 -11 938 -11 q 692 29 765 -11 q 579 144 618 69 q 469 29 540 69 q 310 -11 399 -11 q 126 47 196 -11 q 57 200 57 106 q 151 378 57 322 q 457 435 244 435 l 525 435 l 525 442 l 526 465 q 494 557 526 528 q 392 586 461 586 q 276 567 338 586 q 158 513 215 547 l 118 633 q 258 696 175 672 q 421 719 340 719 q 640 622 579 719 q 742 694 683 669 q 872 719 801 719 q 1081 637 1001 719 q 1160 407 1160 554 q 1156 342 1160 375 l 683 342 m 872 596 q 755 556 800 596 q 693 435 710 515 l 1014 435 q 974 555 1013 514 q 872 596 935 596 m 342 114 q 459 164 411 114 q 513 293 507 214 l 517 343 l 461 343 q 278 314 329 343 q 226 218 226 285 q 258 142 226 169 q 342 114 289 114 z "},"ǽ":{"ha":1211,"x_min":57,"x_max":1160,"o":"m 683 342 l 683 333 q 733 176 683 231 q 878 122 783 122 q 1085 196 990 122 l 1125 78 q 1009 13 1081 38 q 867 -11 938 -11 q 692 29 765 -11 q 579 144 618 69 q 469 29 540 69 q 310 -11 399 -11 q 126 47 196 -11 q 57 200 57 106 q 151 378 57 322 q 457 435 244 435 l 525 435 l 525 442 l 526 465 q 494 557 526 528 q 392 586 461 586 q 276 567 338 586 q 158 513 215 547 l 118 633 q 258 696 175 672 q 421 719 340 719 q 640 622 579 719 q 742 694 683 669 q 872 719 801 719 q 1081 637 1001 719 q 1160 407 1160 554 q 1156 342 1160 375 l 683 342 m 872 596 q 755 556 800 596 q 693 435 710 515 l 1014 435 q 974 555 1013 514 q 872 596 935 596 m 342 114 q 459 164 411 114 q 513 293 507 214 l 517 343 l 461 343 q 278 314 329 343 q 226 218 226 285 q 258 142 226 169 q 342 114 289 114 m 579 792 l 736 1078 l 922 1078 l 690 792 l 579 792 z "},"b":{"ha":861,"x_min":67,"x_max":807,"o":"m 507 719 q 664 678 596 719 q 769 560 732 638 q 807 381 807 483 q 765 176 807 265 q 648 38 724 88 q 474 -11 572 -11 q 338 22 396 -11 q 247 113 279 54 l 239 0 l 67 0 l 149 1022 l 321 1022 l 288 611 q 380 691 322 663 q 507 719 438 719 m 443 124 q 582 190 532 124 q 632 372 632 256 q 585 529 632 474 q 454 585 539 585 q 316 517 367 585 q 265 336 265 450 q 311 178 265 232 q 443 124 357 124 z "},"c":{"ha":699,"x_min":56,"x_max":700,"o":"m 407 -11 q 221 31 300 -11 q 99 151 142 74 q 56 331 56 228 q 102 538 56 450 q 234 672 149 625 q 433 719 319 719 q 700 631 596 719 l 640 508 q 440 583 542 583 q 289 517 343 583 q 235 332 235 451 q 283 179 235 233 q 419 125 332 125 q 521 143 474 125 q 617 199 568 161 l 656 78 q 544 13 610 36 q 407 -11 478 -11 z "},"ć":{"ha":699,"x_min":56,"x_max":735,"o":"m 407 -11 q 221 31 300 -11 q 99 151 142 74 q 56 331 56 228 q 102 538 56 450 q 234 672 149 625 q 433 719 319 719 q 700 631 596 719 l 640 508 q 440 583 542 583 q 289 517 343 583 q 235 332 235 451 q 283 179 235 233 q 419 125 332 125 q 521 143 474 125 q 617 199 568 161 l 656 78 q 544 13 610 36 q 407 -11 478 -11 m 392 792 l 549 1078 l 735 1078 l 503 792 l 392 792 z "},"č":{"ha":699,"x_min":56,"x_max":700,"o":"m 407 -11 q 221 31 300 -11 q 99 151 142 74 q 56 331 56 228 q 102 538 56 450 q 234 672 149 625 q 433 719 319 719 q 700 631 596 719 l 640 508 q 440 583 542 583 q 289 517 343 583 q 235 332 235 451 q 283 179 235 233 q 419 125 332 125 q 521 143 474 125 q 617 199 568 161 l 656 78 q 544 13 610 36 q 407 -11 478 -11 m 700 1078 l 501 792 l 393 792 l 240 1078 l 378 1078 l 456 900 l 556 1078 l 700 1078 z "},"ç":{"ha":699,"x_min":56,"x_max":700,"o":"m 656 78 q 547 14 611 38 q 413 -11 482 -10 l 403 -57 q 419 -56 408 -56 q 499 -81 468 -56 q 529 -151 529 -107 q 483 -240 529 -206 q 351 -274 436 -274 q 280 -267 317 -274 q 217 -249 243 -261 l 239 -175 q 349 -194 299 -194 q 417 -153 417 -194 q 372 -122 417 -122 q 318 -132 354 -122 l 293 -106 l 314 -1 q 124 112 193 24 q 56 331 56 200 q 102 538 56 450 q 234 672 149 625 q 433 719 319 719 q 700 631 596 719 l 640 508 q 440 583 542 583 q 289 517 343 583 q 235 332 235 451 q 283 179 235 233 q 419 125 332 125 q 521 143 474 125 q 617 199 568 161 l 656 78 z "},"ḉ":{"ha":699,"x_min":56,"x_max":735,"o":"m 503 792 l 392 792 l 549 1078 l 735 1078 l 503 792 m 440 583 q 289 517 343 583 q 235 332 235 451 q 283 179 235 233 q 419 125 332 125 q 521 143 474 125 q 617 199 568 161 l 656 78 q 547 14 611 38 q 413 -11 482 -10 l 403 -57 q 419 -56 408 -56 q 499 -81 468 -56 q 529 -151 529 -107 q 483 -240 529 -206 q 351 -274 436 -274 q 280 -267 317 -274 q 217 -249 243 -261 l 239 -175 q 349 -194 299 -194 q 417 -153 417 -194 q 372 -122 417 -122 q 318 -132 354 -122 l 293 -106 l 314 -1 q 124 112 193 24 q 56 331 56 200 q 102 538 56 450 q 234 672 149 625 q 433 719 319 719 q 700 631 596 719 l 640 508 q 440 583 542 583 z "},"ĉ":{"ha":699,"x_min":56,"x_max":700,"o":"m 407 -11 q 221 31 300 -11 q 99 151 142 74 q 56 331 56 228 q 102 538 56 450 q 234 672 149 625 q 433 719 319 719 q 700 631 596 719 l 640 508 q 440 583 542 583 q 289 517 343 583 q 235 332 235 451 q 283 179 235 233 q 419 125 332 125 q 521 143 474 125 q 617 199 568 161 l 656 78 q 544 13 610 36 q 407 -11 478 -11 m 218 792 l 415 1078 l 524 1078 l 678 792 l 540 792 l 463 969 l 363 792 l 218 792 z "},"ċ":{"ha":699,"x_min":56,"x_max":700,"o":"m 407 -11 q 221 31 300 -11 q 99 151 142 74 q 56 331 56 228 q 102 538 56 450 q 234 672 149 625 q 433 719 319 719 q 700 631 596 719 l 640 508 q 440 583 542 583 q 289 517 343 583 q 235 332 235 451 q 283 179 235 233 q 419 125 332 125 q 521 143 474 125 q 617 199 568 161 l 656 78 q 544 13 610 36 q 407 -11 478 -11 m 561 1019 l 549 849 l 356 849 l 368 1019 l 561 1019 z "},"d":{"ha":860,"x_min":56,"x_max":819,"o":"m 819 1022 l 738 0 l 567 0 l 575 99 q 482 18 540 47 q 354 -11 424 -11 q 199 30 267 -11 q 93 147 131 71 q 56 326 56 224 q 97 531 56 442 q 215 670 139 621 q 389 719 290 719 q 523 689 465 719 q 613 600 581 658 l 646 1022 l 819 1022 m 410 124 q 546 190 496 124 q 596 371 596 257 q 550 530 596 475 q 419 585 504 585 q 280 518 331 585 q 229 336 229 451 q 276 179 229 235 q 410 124 324 124 z "},"ð":{"ha":832,"x_min":54,"x_max":810,"o":"m 675 819 q 783 458 783 669 q 681 103 783 218 q 404 -11 578 -11 q 218 28 297 -11 q 97 138 139 67 q 54 304 54 208 q 99 488 54 408 q 224 610 144 567 q 401 653 303 653 q 617 565 547 653 q 519 774 597 685 l 275 700 l 256 794 l 432 847 q 263 915 357 897 l 310 1036 q 603 899 488 1004 l 790 954 l 810 860 l 675 819 m 404 124 q 544 184 496 124 q 592 344 592 244 q 546 474 592 426 q 417 521 500 521 q 275 461 324 521 q 226 306 226 401 q 272 172 226 221 q 404 124 318 124 z "},"ď":{"ha":860,"x_min":56,"x_max":964,"o":"m 646 1022 l 819 1022 l 738 0 l 567 0 l 575 99 q 482 18 540 47 q 354 -11 424 -11 q 199 30 267 -11 q 93 147 131 71 q 56 326 56 224 q 97 531 56 442 q 215 670 139 621 q 389 719 290 719 q 523 689 465 719 q 613 600 581 658 l 646 1022 m 964 1022 l 906 747 l 839 747 l 860 1022 l 964 1022 m 410 124 q 546 190 496 124 q 596 371 596 257 q 550 530 596 475 q 419 585 504 585 q 280 518 331 585 q 229 336 229 451 q 276 179 229 235 q 410 124 324 124 z "},"đ":{"ha":860,"x_min":57,"x_max":938,"o":"m 929 789 l 803 789 l 740 0 l 569 0 l 576 100 q 485 18 543 47 q 356 -11 426 -11 q 200 31 268 -11 q 94 152 132 74 q 57 338 57 231 q 99 533 57 446 q 217 669 142 619 q 390 719 293 719 q 524 689 467 719 q 614 600 582 658 l 629 789 l 358 789 l 368 913 l 639 913 l 647 1022 l 821 1022 l 813 913 l 938 913 l 929 789 m 411 124 q 549 191 500 124 q 597 381 597 258 q 551 533 597 481 q 418 585 506 585 q 282 518 333 585 q 231 335 231 451 q 278 177 231 231 q 411 124 325 124 z "},"ḍ":{"ha":860,"x_min":56,"x_max":819,"o":"m 819 1022 l 738 0 l 567 0 l 575 99 q 482 18 540 47 q 354 -11 424 -11 q 199 30 267 -11 q 93 147 131 71 q 56 326 56 224 q 97 531 56 442 q 215 670 139 621 q 389 719 290 719 q 523 689 465 719 q 613 600 581 658 l 646 1022 l 819 1022 m 410 124 q 546 190 496 124 q 596 371 596 257 q 550 530 596 475 q 419 585 504 585 q 280 518 331 585 q 229 336 229 451 q 276 179 229 235 q 410 124 324 124 m 482 -108 l 468 -271 l 297 -271 l 313 -108 l 482 -108 z "},"ḏ":{"ha":860,"x_min":56,"x_max":819,"o":"m 819 1022 l 738 0 l 567 0 l 575 99 q 482 18 540 47 q 354 -11 424 -11 q 199 30 267 -11 q 93 147 131 71 q 56 326 56 224 q 97 531 56 442 q 215 670 139 621 q 389 719 290 719 q 523 689 465 719 q 613 600 581 658 l 646 1022 l 819 1022 m 410 124 q 546 190 496 124 q 596 371 596 257 q 550 530 596 475 q 419 585 504 585 q 280 518 331 585 q 229 336 229 451 q 276 179 229 235 q 410 124 324 124 m 178 -136 l 610 -136 l 601 -244 l 169 -244 l 178 -136 z "},"ǆ":{"ha":1590,"x_min":56,"x_max":1550,"o":"m 819 1022 l 738 0 l 567 0 l 575 99 q 482 18 540 47 q 354 -11 424 -11 q 199 30 267 -11 q 93 147 131 71 q 56 326 56 224 q 97 531 56 442 q 215 670 139 621 q 389 719 290 719 q 523 689 465 719 q 613 600 581 658 l 646 1022 l 819 1022 m 410 124 q 546 190 496 124 q 596 371 596 257 q 550 530 596 475 q 419 585 504 585 q 280 518 331 585 q 229 336 229 451 q 276 179 229 235 q 410 124 324 124 m 1540 583 l 1121 131 l 1521 131 l 1510 0 l 900 0 l 910 121 l 1328 571 l 954 571 l 964 701 l 1550 701 l 1540 583 m 1521 1078 l 1322 792 l 1214 792 l 1061 1078 l 1199 1078 l 1276 900 l 1376 1078 l 1521 1078 z "},"e":{"ha":761,"x_min":56,"x_max":710,"o":"m 224 342 l 224 333 q 274 176 224 231 q 419 122 324 122 q 636 196 540 122 l 675 78 q 558 13 631 36 q 410 -11 486 -11 q 222 31 303 -11 q 99 151 142 74 q 56 332 56 229 q 101 533 56 444 q 226 670 146 621 q 407 719 306 719 q 628 638 547 719 q 710 410 710 557 q 706 342 710 378 l 224 342 m 415 596 q 233 435 267 596 l 564 435 q 525 553 565 511 q 415 596 485 596 z "},"é":{"ha":761,"x_min":56,"x_max":718,"o":"m 224 342 l 224 333 q 274 176 224 231 q 419 122 324 122 q 636 196 540 122 l 675 78 q 558 13 631 36 q 410 -11 486 -11 q 222 31 303 -11 q 99 151 142 74 q 56 332 56 229 q 101 533 56 444 q 226 670 146 621 q 407 719 306 719 q 628 638 547 719 q 710 410 710 557 q 706 342 710 378 l 224 342 m 415 596 q 233 435 267 596 l 564 435 q 525 553 565 511 q 415 596 485 596 m 375 792 l 532 1078 l 718 1078 l 486 792 l 375 792 z "},"ĕ":{"ha":761,"x_min":56,"x_max":710,"o":"m 224 342 l 224 333 q 274 176 224 231 q 419 122 324 122 q 636 196 540 122 l 675 78 q 558 13 631 36 q 410 -11 486 -11 q 222 31 303 -11 q 99 151 142 74 q 56 332 56 229 q 101 533 56 444 q 226 670 146 621 q 407 719 306 719 q 628 638 547 719 q 710 410 710 557 q 706 342 710 378 l 224 342 m 415 596 q 233 435 267 596 l 564 435 q 525 553 565 511 q 415 596 485 596 m 439 828 q 289 876 354 828 q 200 1019 224 925 l 290 1058 q 447 942 339 942 q 613 1058 547 942 l 699 1021 q 595 876 665 925 q 439 828 525 828 z "},"ě":{"ha":761,"x_min":56,"x_max":710,"o":"m 224 342 l 224 333 q 274 176 224 231 q 419 122 324 122 q 636 196 540 122 l 675 78 q 558 13 631 36 q 410 -11 486 -11 q 222 31 303 -11 q 99 151 142 74 q 56 332 56 229 q 101 533 56 444 q 226 670 146 621 q 407 719 306 719 q 628 638 547 719 q 710 410 710 557 q 706 342 710 378 l 224 342 m 415 596 q 233 435 267 596 l 564 435 q 525 553 565 511 q 415 596 485 596 m 683 1078 l 485 792 l 376 792 l 224 1078 l 361 1078 l 439 900 l 539 1078 l 683 1078 z "},"ḝ":{"ha":761,"x_min":56,"x_max":710,"o":"m 439 828 q 289 876 354 828 q 200 1019 224 925 l 290 1058 q 447 942 339 942 q 613 1058 547 942 l 699 1021 q 595 876 665 925 q 439 828 525 828 m 224 342 l 224 333 q 274 176 224 231 q 419 122 324 122 q 636 196 540 122 l 675 78 q 567 15 633 39 q 431 -11 501 -8 l 421 -57 q 438 -56 426 -56 q 517 -81 486 -56 q 547 -151 547 -107 q 501 -240 547 -206 q 369 -274 454 -274 q 299 -267 336 -274 q 235 -249 261 -261 l 257 -175 q 367 -194 317 -194 q 435 -153 435 -194 q 390 -122 435 -122 q 336 -132 372 -122 l 311 -106 l 331 -4 q 128 107 201 18 q 56 332 56 196 q 101 533 56 444 q 226 670 146 621 q 407 719 306 719 q 628 638 547 719 q 710 410 710 557 q 706 342 710 378 l 224 342 m 415 596 q 233 435 267 596 l 564 435 q 525 553 565 511 q 415 596 485 596 z "},"ê":{"ha":761,"x_min":56,"x_max":710,"o":"m 224 342 l 224 333 q 274 176 224 231 q 419 122 324 122 q 636 196 540 122 l 675 78 q 558 13 631 36 q 410 -11 486 -11 q 222 31 303 -11 q 99 151 142 74 q 56 332 56 229 q 101 533 56 444 q 226 670 146 621 q 407 719 306 719 q 628 638 547 719 q 710 410 710 557 q 706 342 710 378 l 224 342 m 415 596 q 233 435 267 596 l 564 435 q 525 553 565 511 q 415 596 485 596 m 201 792 l 399 1078 l 507 1078 l 661 792 l 524 792 l 446 969 l 346 792 l 201 792 z "},"ế":{"ha":761,"x_min":56,"x_max":854,"o":"m 224 342 l 224 333 q 274 176 224 231 q 419 122 324 122 q 636 196 540 122 l 675 78 q 558 13 631 36 q 410 -11 486 -11 q 222 31 303 -11 q 99 151 142 74 q 56 332 56 229 q 101 533 56 444 q 226 670 146 621 q 407 719 306 719 q 628 638 547 719 q 710 410 710 557 q 706 342 710 378 l 224 342 m 415 596 q 233 435 267 596 l 564 435 q 525 553 565 511 q 415 596 485 596 m 569 940 l 692 1138 l 854 1138 l 660 940 l 569 940 m 201 792 l 394 990 l 499 990 l 661 792 l 526 792 l 444 906 l 338 792 l 201 792 z "},"ệ":{"ha":761,"x_min":56,"x_max":710,"o":"m 224 342 l 224 333 q 274 176 224 231 q 419 122 324 122 q 636 196 540 122 l 675 78 q 558 13 631 36 q 410 -11 486 -11 q 222 31 303 -11 q 99 151 142 74 q 56 332 56 229 q 101 533 56 444 q 226 670 146 621 q 407 719 306 719 q 628 638 547 719 q 710 410 710 557 q 706 342 710 378 l 224 342 m 415 596 q 233 435 267 596 l 564 435 q 525 553 565 511 q 415 596 485 596 m 472 -108 l 458 -271 l 288 -271 l 303 -108 l 472 -108 m 201 792 l 399 1078 l 507 1078 l 661 792 l 524 792 l 446 969 l 346 792 l 201 792 z "},"ề":{"ha":761,"x_min":56,"x_max":718,"o":"m 224 342 l 224 333 q 274 176 224 231 q 419 122 324 122 q 636 196 540 122 l 675 78 q 558 13 631 36 q 410 -11 486 -11 q 222 31 303 -11 q 99 151 142 74 q 56 332 56 229 q 101 533 56 444 q 226 670 146 621 q 407 719 306 719 q 628 638 547 719 q 710 410 710 557 q 706 342 710 378 l 224 342 m 415 596 q 233 435 267 596 l 564 435 q 525 553 565 511 q 415 596 485 596 m 483 1138 l 628 1138 l 718 940 l 629 940 l 483 1138 m 394 990 l 499 990 l 661 792 l 526 792 l 444 906 l 338 792 l 201 792 l 394 990 z "},"ể":{"ha":761,"x_min":56,"x_max":785,"o":"m 224 342 l 224 333 q 274 176 224 231 q 419 122 324 122 q 636 196 540 122 l 675 78 q 558 13 631 36 q 410 -11 486 -11 q 222 31 303 -11 q 99 151 142 74 q 56 332 56 229 q 101 533 56 444 q 226 670 146 621 q 407 719 306 719 q 628 638 547 719 q 710 410 710 557 q 706 342 710 378 l 224 342 m 415 596 q 233 435 267 596 l 564 435 q 525 553 565 511 q 415 596 485 596 m 571 967 q 590 1006 572 992 q 639 1032 608 1019 q 660 1042 651 1036 q 669 1054 669 1047 q 658 1066 669 1061 q 631 1071 647 1071 q 536 1054 594 1071 l 517 1124 q 646 1146 581 1146 q 747 1124 710 1146 q 785 1067 785 1101 q 767 1022 785 1038 q 714 993 749 1007 q 677 976 690 985 q 663 953 664 967 l 661 940 l 568 940 l 571 967 m 394 990 l 499 990 l 661 792 l 526 792 l 444 906 l 338 792 l 201 792 l 394 990 z "},"ễ":{"ha":761,"x_min":56,"x_max":710,"o":"m 224 342 l 224 333 q 274 176 224 231 q 419 122 324 122 q 636 196 540 122 l 675 78 q 558 13 631 36 q 410 -11 486 -11 q 222 31 303 -11 q 99 151 142 74 q 56 332 56 229 q 101 533 56 444 q 226 670 146 621 q 407 719 306 719 q 628 638 547 719 q 710 410 710 557 q 706 342 710 378 l 224 342 m 415 596 q 233 435 267 596 l 564 435 q 525 553 565 511 q 415 596 485 596 m 211 1014 q 258 1118 214 1079 q 360 1157 301 1157 q 412 1150 388 1157 q 474 1128 436 1143 q 517 1113 494 1119 q 557 1106 539 1106 q 599 1118 582 1106 q 617 1156 615 1131 l 697 1156 q 651 1052 696 1092 q 549 1013 607 1013 q 495 1020 519 1013 q 436 1042 471 1028 q 393 1057 415 1050 q 353 1064 371 1064 q 311 1051 328 1064 q 292 1014 294 1038 l 211 1014 m 394 990 l 499 990 l 661 792 l 526 792 l 444 906 l 338 792 l 201 792 l 394 990 z "},"ȅ":{"ha":761,"x_min":56,"x_max":710,"o":"m 224 342 l 224 333 q 274 176 224 231 q 419 122 324 122 q 636 196 540 122 l 675 78 q 558 13 631 36 q 410 -11 486 -11 q 222 31 303 -11 q 99 151 142 74 q 56 332 56 229 q 101 533 56 444 q 226 670 146 621 q 407 719 306 719 q 628 638 547 719 q 710 410 710 557 q 706 342 710 378 l 224 342 m 415 596 q 233 435 267 596 l 564 435 q 525 553 565 511 q 415 596 485 596 m 214 1078 l 343 1078 l 376 792 l 300 792 l 214 1078 m 400 1078 l 529 1078 l 563 792 l 485 792 l 400 1078 z "},"ë":{"ha":761,"x_min":56,"x_max":710,"o":"m 224 342 l 224 333 q 274 176 224 231 q 419 122 324 122 q 636 196 540 122 l 675 78 q 558 13 631 36 q 410 -11 486 -11 q 222 31 303 -11 q 99 151 142 74 q 56 332 56 229 q 101 533 56 444 q 226 670 146 621 q 407 719 306 719 q 628 638 547 719 q 710 410 710 557 q 706 342 710 378 l 224 342 m 415 596 q 233 435 267 596 l 564 435 q 525 553 565 511 q 415 596 485 596 m 404 1014 l 392 854 l 224 854 l 236 1014 l 404 1014 m 661 1014 l 647 854 l 481 854 l 493 1014 l 661 1014 z "},"ė":{"ha":761,"x_min":56,"x_max":710,"o":"m 224 342 l 224 333 q 274 176 224 231 q 419 122 324 122 q 636 196 540 122 l 675 78 q 558 13 631 36 q 410 -11 486 -11 q 222 31 303 -11 q 99 151 142 74 q 56 332 56 229 q 101 533 56 444 q 226 670 146 621 q 407 719 306 719 q 628 638 547 719 q 710 410 710 557 q 706 342 710 378 l 224 342 m 415 596 q 233 435 267 596 l 564 435 q 525 553 565 511 q 415 596 485 596 m 544 1019 l 532 849 l 339 849 l 351 1019 l 544 1019 z "},"ẹ":{"ha":761,"x_min":56,"x_max":710,"o":"m 224 342 l 224 333 q 274 176 224 231 q 419 122 324 122 q 636 196 540 122 l 675 78 q 558 13 631 36 q 410 -11 486 -11 q 222 31 303 -11 q 99 151 142 74 q 56 332 56 229 q 101 533 56 444 q 226 670 146 621 q 407 719 306 719 q 628 638 547 719 q 710 410 710 557 q 706 342 710 378 l 224 342 m 415 596 q 233 435 267 596 l 564 435 q 525 553 565 511 q 415 596 485 596 m 472 -108 l 458 -271 l 288 -271 l 303 -108 l 472 -108 z "},"è":{"ha":761,"x_min":56,"x_max":710,"o":"m 224 342 l 224 333 q 274 176 224 231 q 419 122 324 122 q 636 196 540 122 l 675 78 q 558 13 631 36 q 410 -11 486 -11 q 222 31 303 -11 q 99 151 142 74 q 56 332 56 229 q 101 533 56 444 q 226 670 146 621 q 407 719 306 719 q 628 638 547 719 q 710 410 710 557 q 706 342 710 378 l 224 342 m 415 596 q 233 435 267 596 l 564 435 q 525 553 565 511 q 415 596 485 596 m 199 1078 l 365 1078 l 486 792 l 375 792 l 199 1078 z "},"ẻ":{"ha":761,"x_min":56,"x_max":710,"o":"m 224 342 l 224 333 q 274 176 224 231 q 419 122 324 122 q 636 196 540 122 l 675 78 q 558 13 631 36 q 410 -11 486 -11 q 222 31 303 -11 q 99 151 142 74 q 56 332 56 229 q 101 533 56 444 q 226 670 146 621 q 407 719 306 719 q 628 638 547 719 q 710 410 710 557 q 706 342 710 378 l 224 342 m 415 596 q 233 435 267 596 l 564 435 q 525 553 565 511 q 415 596 485 596 m 481 792 l 386 792 l 389 828 q 406 874 392 856 q 449 918 421 893 q 476 944 468 935 q 485 967 485 954 q 438 997 485 997 q 361 983 404 997 l 340 1060 q 465 1082 397 1082 q 568 1055 531 1082 q 606 986 606 1028 q 588 931 606 953 q 535 883 569 910 q 497 851 510 865 q 482 819 483 838 l 481 792 z "},"ȇ":{"ha":761,"x_min":56,"x_max":710,"o":"m 224 342 l 224 333 q 274 176 224 231 q 419 122 324 122 q 636 196 540 122 l 675 78 q 558 13 631 36 q 410 -11 486 -11 q 222 31 303 -11 q 99 151 142 74 q 56 332 56 229 q 101 533 56 444 q 226 670 146 621 q 407 719 306 719 q 628 638 547 719 q 710 410 710 557 q 706 342 710 378 l 224 342 m 415 596 q 233 435 267 596 l 564 435 q 525 553 565 511 q 415 596 485 596 m 446 1053 q 596 1003 531 1053 q 685 860 661 954 l 594 824 q 438 940 544 940 q 272 824 339 940 l 186 860 q 289 1004 218 956 q 446 1053 360 1053 z "},"ē":{"ha":761,"x_min":56,"x_max":710,"o":"m 224 342 l 224 333 q 274 176 224 231 q 419 122 324 122 q 636 196 540 122 l 675 78 q 558 13 631 36 q 410 -11 486 -11 q 222 31 303 -11 q 99 151 142 74 q 56 332 56 229 q 101 533 56 444 q 226 670 146 621 q 407 719 306 719 q 628 638 547 719 q 710 410 710 557 q 706 342 710 378 l 224 342 m 415 596 q 233 435 267 596 l 564 435 q 525 553 565 511 q 415 596 485 596 m 231 990 l 663 990 l 653 876 l 221 876 l 231 990 z "},"ḗ":{"ha":761,"x_min":56,"x_max":739,"o":"m 224 342 l 224 333 q 274 176 224 231 q 419 122 324 122 q 636 196 540 122 l 675 78 q 558 13 631 36 q 410 -11 486 -11 q 222 31 303 -11 q 99 151 142 74 q 56 332 56 229 q 101 533 56 444 q 226 670 146 621 q 407 719 306 719 q 628 638 547 719 q 710 410 710 557 q 706 342 710 378 l 224 342 m 415 596 q 233 435 267 596 l 564 435 q 525 553 565 511 q 415 596 485 596 m 231 990 l 663 990 l 653 876 l 221 876 l 231 990 m 396 1060 l 553 1346 l 739 1346 l 507 1060 l 396 1060 z "},"ḕ":{"ha":761,"x_min":56,"x_max":710,"o":"m 224 342 l 224 333 q 274 176 224 231 q 419 122 324 122 q 636 196 540 122 l 675 78 q 558 13 631 36 q 410 -11 486 -11 q 222 31 303 -11 q 99 151 142 74 q 56 332 56 229 q 101 533 56 444 q 226 670 146 621 q 407 719 306 719 q 628 638 547 719 q 710 410 710 557 q 706 342 710 378 l 224 342 m 415 596 q 233 435 267 596 l 564 435 q 525 553 565 511 q 415 596 485 596 m 231 990 l 663 990 l 653 876 l 221 876 l 231 990 m 219 1346 l 386 1346 l 507 1060 l 396 1060 l 219 1346 z "},"ę":{"ha":761,"x_min":56,"x_max":710,"o":"m 224 342 l 224 333 q 274 176 224 231 q 419 122 324 122 q 636 196 540 122 l 675 78 q 592 26 653 51 q 495 -35 522 -3 q 468 -106 468 -67 q 489 -163 468 -143 q 547 -183 510 -183 q 632 -161 586 -183 l 647 -250 q 519 -281 586 -281 q 394 -240 440 -281 q 347 -132 347 -199 q 361 -65 347 -96 q 399 -11 375 -33 q 217 33 294 -10 q 97 153 139 76 q 56 332 56 231 q 101 533 56 444 q 226 670 146 621 q 407 719 306 719 q 628 638 546 719 q 710 408 710 557 q 706 342 710 378 l 224 342 m 415 596 q 297 556 344 596 q 233 435 250 517 l 564 435 q 525 553 565 511 q 415 596 485 596 z "},"ẽ":{"ha":761,"x_min":56,"x_max":710,"o":"m 224 342 l 224 333 q 274 176 224 231 q 419 122 324 122 q 636 196 540 122 l 675 78 q 558 13 631 36 q 410 -11 486 -11 q 222 31 303 -11 q 99 151 142 74 q 56 332 56 229 q 101 533 56 444 q 226 670 146 621 q 407 719 306 719 q 628 638 547 719 q 710 410 710 557 q 706 342 710 378 l 224 342 m 415 596 q 233 435 267 596 l 564 435 q 525 553 565 511 q 415 596 485 596 m 197 844 q 245 985 203 939 q 349 1032 288 1032 q 403 1021 378 1032 q 464 988 429 1010 q 506 964 489 972 q 540 956 524 956 q 607 1028 599 956 l 688 1028 q 640 887 682 933 q 536 840 597 840 q 482 851 507 840 q 424 883 457 863 q 379 907 397 899 q 344 915 361 915 q 299 897 317 915 q 278 844 282 879 l 197 844 z "},"ə":{"ha":763,"x_min":51,"x_max":708,"o":"m 363 719 q 547 677 469 719 q 667 557 625 635 q 708 376 708 479 q 664 174 708 263 q 540 38 619 86 q 360 -11 461 -11 q 135 70 218 -11 q 51 300 51 151 q 56 367 51 332 l 542 367 l 542 376 q 492 532 542 478 q 349 586 442 586 q 128 511 233 586 l 88 631 q 210 695 135 671 q 363 719 286 719 m 354 113 q 470 153 425 113 q 532 272 515 193 l 200 272 q 240 154 199 196 q 354 113 281 113 z "},"f":{"ha":510,"x_min":25,"x_max":547,"o":"m 469 888 q 349 764 358 888 l 343 701 l 531 701 l 519 571 l 333 571 l 288 0 l 114 0 l 158 571 l 25 571 l 36 701 l 169 701 l 175 774 q 254 965 186 897 q 439 1032 322 1032 q 547 1015 503 1032 l 538 878 q 469 888 499 888 z "},"g":{"ha":865,"x_min":57,"x_max":799,"o":"m 799 701 l 744 28 q 638 -228 731 -146 q 375 -311 546 -311 q 83 -243 208 -311 l 122 -110 q 247 -162 186 -146 q 381 -178 308 -178 q 574 10 557 -178 l 583 125 q 490 47 549 75 q 360 19 432 19 q 201 60 269 19 q 94 174 132 100 q 57 344 57 247 q 99 538 57 453 q 217 671 140 622 q 392 719 293 719 q 529 688 471 719 q 619 599 588 657 l 628 701 l 799 701 m 413 156 q 553 217 501 156 q 604 386 604 279 q 556 533 604 482 q 422 585 508 585 q 282 522 333 585 q 231 350 231 460 q 278 206 231 257 q 413 156 325 156 z "},"ğ":{"ha":865,"x_min":57,"x_max":799,"o":"m 799 701 l 744 28 q 638 -228 731 -146 q 375 -311 546 -311 q 83 -243 208 -311 l 122 -110 q 247 -162 186 -146 q 381 -178 308 -178 q 574 10 557 -178 l 583 125 q 490 47 549 75 q 360 19 432 19 q 201 60 269 19 q 94 174 132 100 q 57 344 57 247 q 99 538 57 453 q 217 671 140 622 q 392 719 293 719 q 529 688 471 719 q 619 599 588 657 l 628 701 l 799 701 m 413 156 q 553 217 501 156 q 604 386 604 279 q 556 533 604 482 q 422 585 508 585 q 282 522 333 585 q 231 350 231 460 q 278 206 231 257 q 413 156 325 156 m 476 828 q 326 876 392 828 q 238 1019 261 925 l 328 1058 q 485 942 376 942 q 650 1058 585 942 l 736 1021 q 633 876 703 925 q 476 828 563 828 z "},"ǧ":{"ha":865,"x_min":57,"x_max":799,"o":"m 799 701 l 744 28 q 638 -228 731 -146 q 375 -311 546 -311 q 83 -243 208 -311 l 122 -110 q 247 -162 186 -146 q 381 -178 308 -178 q 574 10 557 -178 l 583 125 q 490 47 549 75 q 360 19 432 19 q 201 60 269 19 q 94 174 132 100 q 57 344 57 247 q 99 538 57 453 q 217 671 140 622 q 392 719 293 719 q 529 688 471 719 q 619 599 588 657 l 628 701 l 799 701 m 413 156 q 553 217 501 156 q 604 386 604 279 q 556 533 604 482 q 422 585 508 585 q 282 522 333 585 q 231 350 231 460 q 278 206 231 257 q 413 156 325 156 m 721 1078 l 522 792 l 414 792 l 261 1078 l 399 1078 l 476 900 l 576 1078 l 721 1078 z "},"ĝ":{"ha":865,"x_min":57,"x_max":799,"o":"m 799 701 l 744 28 q 638 -228 731 -146 q 375 -311 546 -311 q 83 -243 208 -311 l 122 -110 q 247 -162 186 -146 q 381 -178 308 -178 q 574 10 557 -178 l 583 125 q 490 47 549 75 q 360 19 432 19 q 201 60 269 19 q 94 174 132 100 q 57 344 57 247 q 99 538 57 453 q 217 671 140 622 q 392 719 293 719 q 529 688 471 719 q 619 599 588 657 l 628 701 l 799 701 m 413 156 q 553 217 501 156 q 604 386 604 279 q 556 533 604 482 q 422 585 508 585 q 282 522 333 585 q 231 350 231 460 q 278 206 231 257 q 413 156 325 156 m 239 792 l 436 1078 l 544 1078 l 699 792 l 561 792 l 483 969 l 383 792 l 239 792 z "},"ģ":{"ha":865,"x_min":57,"x_max":799,"o":"m 799 701 l 744 28 q 638 -228 731 -146 q 375 -311 546 -311 q 83 -243 208 -311 l 122 -110 q 247 -162 186 -146 q 381 -178 308 -178 q 574 10 557 -178 l 583 125 q 490 47 549 75 q 360 19 432 19 q 201 60 269 19 q 94 174 132 100 q 57 344 57 247 q 99 538 57 453 q 217 671 140 622 q 392 719 293 719 q 529 688 471 719 q 619 599 588 657 l 628 701 l 799 701 m 413 156 q 553 217 501 156 q 604 386 604 279 q 556 533 604 482 q 422 585 508 585 q 282 522 333 585 q 231 350 231 460 q 278 206 231 257 q 413 156 325 156 m 574 975 l 563 832 l 381 832 l 386 918 q 413 1028 392 981 q 483 1114 435 1075 l 544 1068 q 488 975 499 1026 l 574 975 z "},"ġ":{"ha":865,"x_min":57,"x_max":799,"o":"m 799 701 l 744 28 q 638 -228 731 -146 q 375 -311 546 -311 q 83 -243 208 -311 l 122 -110 q 247 -162 186 -146 q 381 -178 308 -178 q 574 10 557 -178 l 583 125 q 490 47 549 75 q 360 19 432 19 q 201 60 269 19 q 94 174 132 100 q 57 344 57 247 q 99 538 57 453 q 217 671 140 622 q 392 719 293 719 q 529 688 471 719 q 619 599 588 657 l 628 701 l 799 701 m 413 156 q 553 217 501 156 q 604 386 604 279 q 556 533 604 482 q 422 585 508 585 q 282 522 333 585 q 231 350 231 460 q 278 206 231 257 q 413 156 325 156 m 582 1019 l 569 849 l 376 849 l 389 1019 l 582 1019 z "},"ḡ":{"ha":865,"x_min":57,"x_max":799,"o":"m 799 701 l 744 28 q 638 -228 731 -146 q 375 -311 546 -311 q 83 -243 208 -311 l 122 -110 q 247 -162 186 -146 q 381 -178 308 -178 q 574 10 557 -178 l 583 125 q 490 47 549 75 q 360 19 432 19 q 201 60 269 19 q 94 174 132 100 q 57 344 57 247 q 99 538 57 453 q 217 671 140 622 q 392 719 293 719 q 529 688 471 719 q 619 599 588 657 l 628 701 l 799 701 m 413 156 q 553 217 501 156 q 604 386 604 279 q 556 533 604 482 q 422 585 508 585 q 282 522 333 585 q 231 350 231 460 q 278 206 231 257 q 413 156 325 156 m 268 990 l 700 990 l 690 876 l 258 876 l 268 990 z "},"h":{"ha":838,"x_min":67,"x_max":754,"o":"m 515 719 q 694 655 633 719 q 754 467 754 590 q 753 426 754 440 l 718 0 l 546 0 l 579 418 q 581 446 581 428 q 548 547 581 513 q 451 582 515 582 q 325 533 371 582 q 272 397 279 483 l 240 0 l 67 0 l 147 1022 l 321 1022 l 289 615 q 385 692 326 665 q 515 719 443 719 z "},"ħ":{"ha":838,"x_min":1,"x_max":754,"o":"m 515 719 q 694 655 633 719 q 754 467 754 590 q 753 426 754 440 l 718 0 l 546 0 l 579 418 q 581 446 581 428 q 548 547 581 513 q 451 582 515 582 q 325 533 371 582 q 272 397 279 483 l 240 0 l 67 0 l 126 778 l 1 778 l 11 901 l 136 901 l 146 1019 l 319 1019 l 310 901 l 581 901 l 571 778 l 300 778 l 286 611 q 382 691 322 663 q 515 719 442 719 z "},"ḫ":{"ha":838,"x_min":67,"x_max":754,"o":"m 515 719 q 694 655 633 719 q 754 467 754 590 q 753 426 754 440 l 718 0 l 546 0 l 579 418 q 581 446 581 428 q 548 547 581 513 q 451 582 515 582 q 325 533 371 582 q 272 397 279 483 l 240 0 l 67 0 l 147 1022 l 321 1022 l 289 615 q 385 692 326 665 q 515 719 443 719 m 375 -310 q 225 -261 290 -310 q 135 -117 160 -212 l 225 -81 q 292 -168 251 -140 q 383 -196 333 -196 q 547 -81 483 -196 l 633 -117 q 531 -261 601 -212 q 375 -310 461 -310 z "},"ĥ":{"ha":838,"x_min":13,"x_max":754,"o":"m 515 719 q 694 655 633 719 q 754 467 754 590 q 753 426 754 440 l 718 0 l 546 0 l 579 418 q 581 446 581 428 q 548 547 581 513 q 451 582 515 582 q 325 533 371 582 q 272 397 279 483 l 240 0 l 67 0 l 147 1022 l 321 1022 l 289 615 q 385 692 326 665 q 515 719 443 719 m 13 1107 l 208 1322 l 311 1322 l 474 1107 l 336 1107 l 257 1235 l 150 1107 l 13 1107 z "},"ḥ":{"ha":838,"x_min":67,"x_max":754,"o":"m 515 719 q 694 655 633 719 q 754 467 754 590 q 753 426 754 440 l 718 0 l 546 0 l 579 418 q 581 446 581 428 q 548 547 581 513 q 451 582 515 582 q 325 533 371 582 q 272 397 279 483 l 240 0 l 67 0 l 147 1022 l 321 1022 l 289 615 q 385 692 326 665 q 515 719 443 719 m 471 -108 l 457 -271 l 286 -271 l 301 -108 l 471 -108 z "},"i":{"ha":363,"x_min":67,"x_max":329,"o":"m 122 701 l 296 701 l 240 0 l 67 0 l 122 701 m 329 1019 l 317 849 l 124 849 l 136 1019 l 329 1019 z "},"ı":{"ha":363,"x_min":67,"x_max":296,"o":"m 122 701 l 296 701 l 240 0 l 67 0 l 122 701 z "},"í":{"ha":363,"x_min":67,"x_max":503,"o":"m 122 701 l 296 701 l 240 0 l 67 0 l 122 701 m 160 792 l 317 1078 l 503 1078 l 271 792 l 160 792 z "},"ĭ":{"ha":363,"x_min":-15,"x_max":483,"o":"m 122 701 l 296 701 l 240 0 l 67 0 l 122 701 m 224 828 q 74 876 139 828 q -15 1019 8 925 l 75 1058 q 232 942 124 942 q 397 1058 332 942 l 483 1021 q 380 876 450 925 q 224 828 310 828 z "},"î":{"ha":363,"x_min":-14,"x_max":446,"o":"m 122 701 l 296 701 l 240 0 l 67 0 l 122 701 m -14 792 l 183 1078 l 292 1078 l 446 792 l 308 792 l 231 969 l 131 792 l -14 792 z "},"ȉ":{"ha":363,"x_min":-1,"x_max":347,"o":"m 122 701 l 296 701 l 240 0 l 67 0 l 122 701 m -1 1078 l 128 1078 l 161 792 l 85 792 l -1 1078 m 185 1078 l 314 1078 l 347 792 l 269 792 l 185 1078 z "},"ï":{"ha":363,"x_min":8,"x_max":446,"o":"m 122 701 l 296 701 l 240 0 l 67 0 l 122 701 m 189 1014 l 176 854 l 8 854 l 21 1014 l 189 1014 m 446 1014 l 432 854 l 265 854 l 278 1014 l 446 1014 z "},"ḯ":{"ha":363,"x_min":8,"x_max":524,"o":"m 122 701 l 296 701 l 240 0 l 67 0 l 122 701 m 189 1014 l 176 854 l 8 854 l 21 1014 l 189 1014 m 446 1014 l 432 854 l 265 854 l 278 1014 l 446 1014 m 181 1060 l 338 1346 l 524 1346 l 292 1060 l 181 1060 z "},"ị":{"ha":363,"x_min":46,"x_max":329,"o":"m 122 701 l 296 701 l 240 0 l 67 0 l 122 701 m 329 1019 l 317 849 l 124 849 l 136 1019 l 329 1019 m 231 -108 l 217 -271 l 46 -271 l 61 -108 l 231 -108 z "},"ì":{"ha":363,"x_min":-17,"x_max":296,"o":"m 122 701 l 296 701 l 240 0 l 67 0 l 122 701 m -17 1078 l 150 1078 l 271 792 l 160 792 l -17 1078 z "},"ỉ":{"ha":363,"x_min":67,"x_max":390,"o":"m 122 701 l 296 701 l 240 0 l 67 0 l 122 701 m 265 792 l 171 792 l 174 828 q 191 874 176 856 q 233 918 206 893 q 261 944 253 935 q 269 967 269 954 q 222 997 269 997 q 146 983 189 997 l 125 1060 q 250 1082 182 1082 q 353 1055 315 1082 q 390 986 390 1028 q 372 931 390 953 q 319 883 354 910 q 281 851 294 865 q 267 819 268 838 l 265 792 z "},"ȋ":{"ha":363,"x_min":-29,"x_max":469,"o":"m 122 701 l 296 701 l 240 0 l 67 0 l 122 701 m 231 1053 q 381 1003 315 1053 q 469 860 446 954 l 379 824 q 222 940 329 940 q 57 824 124 940 l -29 860 q 74 1004 3 956 q 231 1053 144 1053 z "},"ī":{"ha":363,"x_min":6,"x_max":447,"o":"m 122 701 l 296 701 l 240 0 l 67 0 l 122 701 m 15 990 l 447 990 l 438 876 l 6 876 l 15 990 z "},"į":{"ha":361,"x_min":-22,"x_max":329,"o":"m 329 1025 l 317 853 l 125 853 l 138 1025 l 329 1025 m 229 0 q 130 -29 163 0 q 97 -104 97 -58 q 119 -162 97 -142 q 178 -183 140 -183 q 263 -161 217 -183 l 278 -250 q 150 -281 214 -281 q 24 -239 71 -281 q -22 -129 -22 -197 q 68 24 -22 -28 l 122 701 l 296 701 l 240 0 l 229 0 z "},"ĩ":{"ha":363,"x_min":-18,"x_max":472,"o":"m 122 701 l 296 701 l 240 0 l 67 0 l 122 701 m -18 844 q 30 985 -12 939 q 133 1032 72 1032 q 188 1021 163 1032 q 249 988 214 1010 q 291 964 274 972 q 325 956 308 956 q 392 1028 383 956 l 472 1028 q 424 887 467 933 q 321 840 382 840 q 267 851 292 840 q 208 883 242 863 q 164 907 182 899 q 129 915 146 915 q 84 897 101 915 q 63 844 67 879 l -18 844 z "},"j":{"ha":363,"x_min":-136,"x_max":328,"o":"m -125 -156 q -58 -165 -86 -165 q 64 -42 53 -165 l 122 701 l 296 701 l 236 -50 q 158 -242 226 -175 q -28 -308 89 -308 q -136 -293 -90 -308 l -125 -156 m 328 1019 l 315 849 l 122 849 l 135 1019 l 328 1019 z "},"ȷ":{"ha":363,"x_min":-136,"x_max":296,"o":"m -125 -156 q -58 -165 -86 -165 q 64 -42 53 -165 l 122 701 l 296 701 l 236 -50 q 158 -242 226 -175 q -28 -308 89 -308 q -136 -293 -90 -308 l -125 -156 z "},"ĵ":{"ha":363,"x_min":-136,"x_max":444,"o":"m -125 -156 q -58 -165 -86 -165 q 64 -42 53 -165 l 122 701 l 296 701 l 236 -50 q 158 -242 226 -175 q -28 -308 89 -308 q -136 -293 -90 -308 l -125 -156 m -15 792 l 182 1078 l 290 1078 l 444 792 l 307 792 l 229 969 l 129 792 l -15 792 z "},"k":{"ha":765,"x_min":67,"x_max":796,"o":"m 453 363 l 764 0 l 551 0 l 267 328 l 240 0 l 67 0 l 147 1022 l 321 1022 l 271 390 l 579 700 l 796 700 l 453 363 z "},"ķ":{"ha":765,"x_min":67,"x_max":796,"o":"m 453 363 l 764 0 l 551 0 l 267 328 l 240 0 l 67 0 l 147 1022 l 321 1022 l 271 390 l 579 700 l 796 700 l 453 363 m 439 -96 l 433 -182 q 406 -291 428 -244 q 336 -378 385 -337 l 275 -331 q 332 -239 321 -290 l 246 -239 l 257 -96 l 439 -96 z "},"ĸ":{"ha":765,"x_min":67,"x_max":794,"o":"m 451 363 l 763 0 l 550 0 l 267 325 l 240 0 l 67 0 l 122 701 l 296 701 l 271 392 l 579 700 l 794 700 l 451 363 z "},"l":{"ha":363,"x_min":67,"x_max":322,"o":"m 149 1022 l 322 1022 l 240 0 l 67 0 l 149 1022 z "},"ĺ":{"ha":363,"x_min":67,"x_max":519,"o":"m 149 1022 l 322 1022 l 240 0 l 67 0 l 149 1022 m 186 1107 l 342 1322 l 519 1322 l 297 1107 l 186 1107 z "},"ľ":{"ha":363,"x_min":67,"x_max":467,"o":"m 149 1022 l 322 1022 l 240 0 l 67 0 l 149 1022 m 343 747 l 364 1022 l 467 1022 l 408 747 l 343 747 z "},"ļ":{"ha":363,"x_min":44,"x_max":322,"o":"m 149 1022 l 322 1022 l 240 0 l 67 0 l 149 1022 m 238 -96 l 232 -182 q 205 -291 226 -244 q 135 -378 183 -337 l 74 -331 q 131 -239 119 -290 l 44 -239 l 56 -96 l 238 -96 z "},"ŀ":{"ha":469,"x_min":67,"x_max":515,"o":"m 149 1022 l 322 1022 l 240 0 l 67 0 l 149 1022 m 515 582 l 501 411 l 307 411 l 321 582 l 515 582 z "},"ḷ":{"ha":363,"x_min":47,"x_max":322,"o":"m 149 1022 l 322 1022 l 240 0 l 67 0 l 149 1022 m 232 -108 l 218 -271 l 47 -271 l 63 -108 l 232 -108 z "},"ǉ":{"ha":725,"x_min":67,"x_max":690,"o":"m 149 1022 l 322 1022 l 240 0 l 67 0 l 149 1022 m 238 -156 q 304 -165 276 -165 q 426 -42 415 -165 l 485 701 l 658 701 l 599 -50 q 520 -242 589 -175 q 335 -308 451 -308 q 226 -293 272 -308 l 238 -156 m 690 1019 l 678 849 l 485 849 l 497 1019 l 690 1019 z "},"ḻ":{"ha":363,"x_min":-81,"x_max":360,"o":"m 149 1022 l 322 1022 l 240 0 l 67 0 l 149 1022 m -72 -136 l 360 -136 l 351 -244 l -81 -244 l -72 -136 z "},"ł":{"ha":461,"x_min":-11,"x_max":497,"o":"m 329 481 l 290 0 l 117 0 l 147 382 l 46 326 l -11 443 l 160 538 l 197 1014 l 371 1014 l 342 638 l 440 693 l 497 574 l 329 481 z "},"m":{"ha":1249,"x_min":67,"x_max":1167,"o":"m 942 719 q 1110 656 1053 719 q 1167 469 1167 592 q 1165 428 1167 442 l 1132 0 l 958 0 l 992 422 q 993 454 993 433 q 965 551 993 519 q 881 582 938 582 q 766 533 808 582 q 717 389 724 485 l 686 0 l 513 0 l 546 419 q 547 450 547 431 q 519 549 547 517 q 435 582 492 582 q 319 533 361 582 q 271 389 278 485 l 240 0 l 67 0 l 107 503 q 113 646 113 597 q 111 701 113 683 l 274 701 l 276 601 q 500 719 353 719 q 630 688 578 719 q 704 594 682 656 q 805 687 743 654 q 942 719 867 719 z "},"ṃ":{"ha":1249,"x_min":67,"x_max":1167,"o":"m 942 719 q 1110 656 1053 719 q 1167 469 1167 592 q 1165 428 1167 442 l 1132 0 l 958 0 l 992 422 q 993 454 993 433 q 965 551 993 519 q 881 582 938 582 q 766 533 808 582 q 717 389 724 485 l 686 0 l 513 0 l 546 419 q 547 450 547 431 q 519 549 547 517 q 435 582 492 582 q 319 533 361 582 q 271 389 278 485 l 240 0 l 67 0 l 107 503 q 113 646 113 597 q 111 701 113 683 l 274 701 l 276 601 q 500 719 353 719 q 630 688 578 719 q 704 594 682 656 q 805 687 743 654 q 942 719 867 719 m 678 -108 l 664 -271 l 493 -271 l 508 -108 l 678 -108 z "},"n":{"ha":838,"x_min":67,"x_max":754,"o":"m 515 719 q 694 655 633 719 q 754 467 754 590 q 753 426 754 440 l 718 0 l 546 0 l 579 418 q 581 446 581 428 q 548 547 581 513 q 451 582 515 582 q 325 533 371 582 q 272 397 279 483 l 240 0 l 67 0 l 107 503 q 113 635 113 560 q 111 701 113 679 l 274 701 l 276 597 q 374 688 313 656 q 515 719 436 719 z "},"ń":{"ha":838,"x_min":67,"x_max":754,"o":"m 515 719 q 694 655 633 719 q 754 467 754 590 q 753 426 754 440 l 718 0 l 546 0 l 579 418 q 581 446 581 428 q 548 547 581 513 q 451 582 515 582 q 325 533 371 582 q 272 397 279 483 l 240 0 l 67 0 l 107 503 q 113 635 113 560 q 111 701 113 679 l 274 701 l 276 597 q 374 688 313 656 q 515 719 436 719 m 399 792 l 556 1078 l 742 1078 l 510 792 l 399 792 z "},"ŉ":{"ha":838,"x_min":67,"x_max":754,"o":"m 356 1063 l 349 975 q 322 867 343 914 q 253 781 300 821 l 190 828 q 247 919 239 868 l 161 919 l 172 1063 l 356 1063 m 515 719 q 694 655 633 719 q 754 467 754 590 q 753 426 754 440 l 718 0 l 546 0 l 579 418 q 581 446 581 428 q 548 547 581 513 q 451 582 515 582 q 325 533 371 582 q 272 397 279 483 l 240 0 l 67 0 l 107 503 q 113 635 113 560 q 111 701 113 679 l 274 701 l 276 597 q 374 688 313 656 q 515 719 436 719 z "},"ň":{"ha":838,"x_min":67,"x_max":754,"o":"m 515 719 q 694 655 633 719 q 754 467 754 590 q 753 426 754 440 l 718 0 l 546 0 l 579 418 q 581 446 581 428 q 548 547 581 513 q 451 582 515 582 q 325 533 371 582 q 272 397 279 483 l 240 0 l 67 0 l 107 503 q 113 635 113 560 q 111 701 113 679 l 274 701 l 276 597 q 374 688 313 656 q 515 719 436 719 m 707 1078 l 508 792 l 400 792 l 247 1078 l 385 1078 l 463 900 l 563 1078 l 707 1078 z "},"ņ":{"ha":838,"x_min":67,"x_max":754,"o":"m 515 719 q 694 655 633 719 q 754 467 754 590 q 753 426 754 440 l 718 0 l 546 0 l 579 418 q 581 446 581 428 q 548 547 581 513 q 451 582 515 582 q 325 533 371 582 q 272 397 279 483 l 240 0 l 67 0 l 107 503 q 113 635 113 560 q 111 701 113 679 l 274 701 l 276 597 q 374 688 313 656 q 515 719 436 719 m 476 -96 l 471 -182 q 444 -291 465 -244 q 374 -378 422 -337 l 313 -331 q 369 -239 358 -290 l 283 -239 l 294 -96 l 476 -96 z "},"ṅ":{"ha":838,"x_min":67,"x_max":754,"o":"m 515 719 q 694 655 633 719 q 754 467 754 590 q 753 426 754 440 l 718 0 l 546 0 l 579 418 q 581 446 581 428 q 548 547 581 513 q 451 582 515 582 q 325 533 371 582 q 272 397 279 483 l 240 0 l 67 0 l 107 503 q 113 635 113 560 q 111 701 113 679 l 274 701 l 276 597 q 374 688 313 656 q 515 719 436 719 m 568 1019 l 556 849 l 363 849 l 375 1019 l 568 1019 z "},"ṇ":{"ha":838,"x_min":67,"x_max":754,"o":"m 515 719 q 694 655 633 719 q 754 467 754 590 q 753 426 754 440 l 718 0 l 546 0 l 579 418 q 581 446 581 428 q 548 547 581 513 q 451 582 515 582 q 325 533 371 582 q 272 397 279 483 l 240 0 l 67 0 l 107 503 q 113 635 113 560 q 111 701 113 679 l 274 701 l 276 597 q 374 688 313 656 q 515 719 436 719 m 471 -108 l 457 -271 l 286 -271 l 301 -108 l 471 -108 z "},"ŋ":{"ha":838,"x_min":67,"x_max":754,"o":"m 515 719 q 694 655 633 719 q 754 467 754 590 q 753 426 754 440 l 718 -8 q 640 -200 708 -133 q 454 -267 572 -267 q 347 -251 393 -267 l 358 -114 q 425 -124 397 -124 q 510 -95 476 -124 q 547 0 543 -67 l 579 418 q 581 446 581 428 q 548 547 581 513 q 451 582 515 582 q 325 533 371 582 q 272 397 279 483 l 240 0 l 67 0 l 107 503 q 113 635 113 560 q 111 701 113 679 l 274 701 l 276 597 q 374 688 313 656 q 515 719 436 719 z "},"ǌ":{"ha":1200,"x_min":67,"x_max":1165,"o":"m 515 719 q 694 655 633 719 q 754 467 754 590 q 753 426 754 440 l 718 0 l 546 0 l 579 418 q 581 446 581 428 q 548 547 581 513 q 451 582 515 582 q 325 533 371 582 q 272 397 279 483 l 240 0 l 67 0 l 107 503 q 113 635 113 560 q 111 701 113 679 l 274 701 l 276 597 q 374 688 313 656 q 515 719 436 719 m 713 -156 q 779 -165 751 -165 q 901 -42 890 -165 l 960 701 l 1133 701 l 1074 -50 q 995 -242 1064 -175 q 810 -308 926 -308 q 701 -293 747 -308 l 713 -156 m 1165 1019 l 1153 849 l 960 849 l 972 1019 l 1165 1019 z "},"ṉ":{"ha":838,"x_min":67,"x_max":754,"o":"m 515 719 q 694 655 633 719 q 754 467 754 590 q 753 426 754 440 l 718 0 l 546 0 l 579 418 q 581 446 581 428 q 548 547 581 513 q 451 582 515 582 q 325 533 371 582 q 272 397 279 483 l 240 0 l 67 0 l 107 503 q 113 635 113 560 q 111 701 113 679 l 274 701 l 276 597 q 374 688 313 656 q 515 719 436 719 m 167 -136 l 599 -136 l 590 -244 l 158 -244 l 167 -136 z "},"ñ":{"ha":838,"x_min":67,"x_max":754,"o":"m 515 719 q 694 655 633 719 q 754 467 754 590 q 753 426 754 440 l 718 0 l 546 0 l 579 418 q 581 446 581 428 q 548 547 581 513 q 451 582 515 582 q 325 533 371 582 q 272 397 279 483 l 240 0 l 67 0 l 107 503 q 113 635 113 560 q 111 701 113 679 l 274 701 l 276 597 q 374 688 313 656 q 515 719 436 719 m 221 844 q 269 985 226 939 q 372 1032 311 1032 q 427 1021 401 1032 q 488 988 453 1010 q 530 964 513 972 q 564 956 547 956 q 631 1028 622 956 l 711 1028 q 663 887 706 933 q 560 840 621 840 q 506 851 531 840 q 447 883 481 863 q 403 907 421 899 q 368 915 385 915 q 323 897 340 915 q 301 844 306 879 l 221 844 z "},"o":{"ha":822,"x_min":56,"x_max":767,"o":"m 407 -11 q 221 31 300 -11 q 99 151 142 74 q 56 333 56 229 q 101 538 56 450 q 228 672 146 625 q 418 719 310 719 q 603 676 524 719 q 724 556 682 633 q 767 375 767 478 q 722 169 767 257 q 597 35 678 82 q 407 -11 515 -11 m 407 124 q 547 194 499 124 q 594 381 594 264 q 549 532 594 479 q 419 585 504 585 q 278 515 326 585 q 229 329 229 444 q 407 124 229 124 z "},"ó":{"ha":822,"x_min":56,"x_max":767,"o":"m 407 -11 q 221 31 300 -11 q 99 151 142 74 q 56 333 56 229 q 101 538 56 450 q 228 672 146 625 q 418 719 310 719 q 603 676 524 719 q 724 556 682 633 q 767 375 767 478 q 722 169 767 257 q 597 35 678 82 q 407 -11 515 -11 m 407 124 q 547 194 499 124 q 594 381 594 264 q 549 532 594 479 q 419 585 504 585 q 278 515 326 585 q 229 329 229 444 q 407 124 229 124 m 390 792 l 547 1078 l 733 1078 l 501 792 l 390 792 z "},"ŏ":{"ha":822,"x_min":56,"x_max":767,"o":"m 407 -11 q 221 31 300 -11 q 99 151 142 74 q 56 333 56 229 q 101 538 56 450 q 228 672 146 625 q 418 719 310 719 q 603 676 524 719 q 724 556 682 633 q 767 375 767 478 q 722 169 767 257 q 597 35 678 82 q 407 -11 515 -11 m 407 124 q 547 194 499 124 q 594 381 594 264 q 549 532 594 479 q 419 585 504 585 q 278 515 326 585 q 229 329 229 444 q 407 124 229 124 m 454 828 q 304 876 369 828 q 215 1019 239 925 l 306 1058 q 463 942 354 942 q 628 1058 563 942 l 714 1021 q 610 876 681 925 q 454 828 540 828 z "},"ô":{"ha":822,"x_min":56,"x_max":767,"o":"m 407 -11 q 221 31 300 -11 q 99 151 142 74 q 56 333 56 229 q 101 538 56 450 q 228 672 146 625 q 418 719 310 719 q 603 676 524 719 q 724 556 682 633 q 767 375 767 478 q 722 169 767 257 q 597 35 678 82 q 407 -11 515 -11 m 407 124 q 547 194 499 124 q 594 381 594 264 q 549 532 594 479 q 419 585 504 585 q 278 515 326 585 q 229 329 229 444 q 407 124 229 124 m 217 792 l 414 1078 l 522 1078 l 676 792 l 539 792 l 461 969 l 361 792 l 217 792 z "},"ố":{"ha":822,"x_min":56,"x_max":869,"o":"m 407 -11 q 221 31 300 -11 q 99 151 142 74 q 56 333 56 229 q 101 538 56 450 q 228 672 146 625 q 418 719 310 719 q 603 676 524 719 q 724 556 682 633 q 767 375 767 478 q 722 169 767 257 q 597 35 678 82 q 407 -11 515 -11 m 407 124 q 547 194 499 124 q 594 381 594 264 q 549 532 594 479 q 419 585 504 585 q 278 515 326 585 q 229 329 229 444 q 407 124 229 124 m 585 940 l 707 1138 l 869 1138 l 675 940 l 585 940 m 217 792 l 410 990 l 514 990 l 676 792 l 542 792 l 460 906 l 353 792 l 217 792 z "},"ộ":{"ha":822,"x_min":56,"x_max":767,"o":"m 407 -11 q 221 31 300 -11 q 99 151 142 74 q 56 333 56 229 q 101 538 56 450 q 228 672 146 625 q 418 719 310 719 q 603 676 524 719 q 724 556 682 633 q 767 375 767 478 q 722 169 767 257 q 597 35 678 82 q 407 -11 515 -11 m 407 124 q 547 194 499 124 q 594 381 594 264 q 549 532 594 479 q 419 585 504 585 q 278 515 326 585 q 229 329 229 444 q 407 124 229 124 m 463 -108 l 449 -271 l 278 -271 l 293 -108 l 463 -108 m 217 792 l 414 1078 l 522 1078 l 676 792 l 539 792 l 461 969 l 361 792 l 217 792 z "},"ồ":{"ha":822,"x_min":56,"x_max":767,"o":"m 407 -11 q 221 31 300 -11 q 99 151 142 74 q 56 333 56 229 q 101 538 56 450 q 228 672 146 625 q 418 719 310 719 q 603 676 524 719 q 724 556 682 633 q 767 375 767 478 q 722 169 767 257 q 597 35 678 82 q 407 -11 515 -11 m 407 124 q 547 194 499 124 q 594 381 594 264 q 549 532 594 479 q 419 585 504 585 q 278 515 326 585 q 229 329 229 444 q 407 124 229 124 m 499 1138 l 643 1138 l 733 940 l 644 940 l 499 1138 m 410 990 l 514 990 l 676 792 l 542 792 l 460 906 l 353 792 l 217 792 l 410 990 z "},"ổ":{"ha":822,"x_min":56,"x_max":800,"o":"m 407 -11 q 221 31 300 -11 q 99 151 142 74 q 56 333 56 229 q 101 538 56 450 q 228 672 146 625 q 418 719 310 719 q 603 676 524 719 q 724 556 682 633 q 767 375 767 478 q 722 169 767 257 q 597 35 678 82 q 407 -11 515 -11 m 407 124 q 547 194 499 124 q 594 381 594 264 q 549 532 594 479 q 419 585 504 585 q 278 515 326 585 q 229 329 229 444 q 407 124 229 124 m 586 967 q 606 1006 588 992 q 654 1032 624 1019 q 676 1042 667 1036 q 685 1054 685 1047 q 674 1066 685 1061 q 646 1071 663 1071 q 551 1054 610 1071 l 532 1124 q 661 1146 596 1146 q 763 1124 725 1146 q 800 1067 800 1101 q 782 1022 800 1038 q 729 993 764 1007 q 692 976 706 985 q 678 953 679 967 l 676 940 l 583 940 l 586 967 m 410 990 l 514 990 l 676 792 l 542 792 l 460 906 l 353 792 l 217 792 l 410 990 z "},"ỗ":{"ha":822,"x_min":56,"x_max":767,"o":"m 407 -11 q 221 31 300 -11 q 99 151 142 74 q 56 333 56 229 q 101 538 56 450 q 228 672 146 625 q 418 719 310 719 q 603 676 524 719 q 724 556 682 633 q 767 375 767 478 q 722 169 767 257 q 597 35 678 82 q 407 -11 515 -11 m 407 124 q 547 194 499 124 q 594 381 594 264 q 549 532 594 479 q 419 585 504 585 q 278 515 326 585 q 229 329 229 444 q 407 124 229 124 m 226 1014 q 273 1118 229 1079 q 375 1157 317 1157 q 427 1150 403 1157 q 489 1128 451 1143 q 532 1113 510 1119 q 572 1106 554 1106 q 614 1118 597 1106 q 632 1156 631 1131 l 713 1156 q 667 1052 711 1092 q 564 1013 622 1013 q 510 1020 535 1013 q 451 1042 486 1028 q 408 1057 431 1050 q 368 1064 386 1064 q 326 1051 343 1064 q 307 1014 310 1038 l 226 1014 m 410 990 l 514 990 l 676 792 l 542 792 l 460 906 l 353 792 l 217 792 l 410 990 z "},"ȍ":{"ha":822,"x_min":56,"x_max":767,"o":"m 407 -11 q 221 31 300 -11 q 99 151 142 74 q 56 333 56 229 q 101 538 56 450 q 228 672 146 625 q 418 719 310 719 q 603 676 524 719 q 724 556 682 633 q 767 375 767 478 q 722 169 767 257 q 597 35 678 82 q 407 -11 515 -11 m 407 124 q 547 194 499 124 q 594 381 594 264 q 549 532 594 479 q 419 585 504 585 q 278 515 326 585 q 229 329 229 444 q 407 124 229 124 m 229 1078 l 358 1078 l 392 792 l 315 792 l 229 1078 m 415 1078 l 544 1078 l 578 792 l 500 792 l 415 1078 z "},"ö":{"ha":822,"x_min":56,"x_max":767,"o":"m 407 -11 q 221 31 300 -11 q 99 151 142 74 q 56 333 56 229 q 101 538 56 450 q 228 672 146 625 q 418 719 310 719 q 603 676 524 719 q 724 556 682 633 q 767 375 767 478 q 722 169 767 257 q 597 35 678 82 q 407 -11 515 -11 m 407 124 q 547 194 499 124 q 594 381 594 264 q 549 532 594 479 q 419 585 504 585 q 278 515 326 585 q 229 329 229 444 q 407 124 229 124 m 419 1014 l 407 854 l 239 854 l 251 1014 l 419 1014 m 676 1014 l 663 854 l 496 854 l 508 1014 l 676 1014 z "},"ȫ":{"ha":822,"x_min":56,"x_max":767,"o":"m 407 -11 q 221 31 300 -11 q 99 151 142 74 q 56 333 56 229 q 101 538 56 450 q 228 672 146 625 q 418 719 310 719 q 603 676 524 719 q 724 556 682 633 q 767 375 767 478 q 722 169 767 257 q 597 35 678 82 q 407 -11 515 -11 m 407 124 q 547 194 499 124 q 594 381 594 264 q 549 532 594 479 q 419 585 504 585 q 278 515 326 585 q 229 329 229 444 q 407 124 229 124 m 419 1014 l 407 854 l 239 854 l 251 1014 l 419 1014 m 676 1014 l 663 854 l 496 854 l 508 1014 l 676 1014 m 267 1258 l 699 1258 l 689 1144 l 257 1144 l 267 1258 z "},"ȱ":{"ha":822,"x_min":56,"x_max":767,"o":"m 407 -11 q 221 31 300 -11 q 99 151 142 74 q 56 333 56 229 q 101 538 56 450 q 228 672 146 625 q 418 719 310 719 q 603 676 524 719 q 724 556 682 633 q 767 375 767 478 q 722 169 767 257 q 597 35 678 82 q 407 -11 515 -11 m 407 124 q 547 194 499 124 q 594 381 594 264 q 549 532 594 479 q 419 585 504 585 q 278 515 326 585 q 229 329 229 444 q 407 124 229 124 m 560 1019 l 547 849 l 354 849 l 367 1019 l 560 1019 m 267 1258 l 699 1258 l 689 1144 l 257 1144 l 267 1258 z "},"ọ":{"ha":822,"x_min":56,"x_max":767,"o":"m 407 -11 q 221 31 300 -11 q 99 151 142 74 q 56 333 56 229 q 101 538 56 450 q 228 672 146 625 q 418 719 310 719 q 603 676 524 719 q 724 556 682 633 q 767 375 767 478 q 722 169 767 257 q 597 35 678 82 q 407 -11 515 -11 m 407 124 q 547 194 499 124 q 594 381 594 264 q 549 532 594 479 q 419 585 504 585 q 278 515 326 585 q 229 329 229 444 q 407 124 229 124 m 463 -108 l 449 -271 l 278 -271 l 293 -108 l 463 -108 z "},"ò":{"ha":822,"x_min":56,"x_max":767,"o":"m 407 -11 q 221 31 300 -11 q 99 151 142 74 q 56 333 56 229 q 101 538 56 450 q 228 672 146 625 q 418 719 310 719 q 603 676 524 719 q 724 556 682 633 q 767 375 767 478 q 722 169 767 257 q 597 35 678 82 q 407 -11 515 -11 m 407 124 q 547 194 499 124 q 594 381 594 264 q 549 532 594 479 q 419 585 504 585 q 278 515 326 585 q 229 329 229 444 q 407 124 229 124 m 214 1078 l 381 1078 l 501 792 l 390 792 l 214 1078 z "},"ỏ":{"ha":822,"x_min":56,"x_max":767,"o":"m 407 -11 q 221 31 300 -11 q 99 151 142 74 q 56 333 56 229 q 101 538 56 450 q 228 672 146 625 q 418 719 310 719 q 603 676 524 719 q 724 556 682 633 q 767 375 767 478 q 722 169 767 257 q 597 35 678 82 q 407 -11 515 -11 m 407 124 q 547 194 499 124 q 594 381 594 264 q 549 532 594 479 q 419 585 504 585 q 278 515 326 585 q 229 329 229 444 q 407 124 229 124 m 496 792 l 401 792 l 404 828 q 422 874 407 856 q 464 918 436 893 q 492 944 483 935 q 500 967 500 954 q 453 997 500 997 q 376 983 419 997 l 356 1060 q 481 1082 413 1082 q 583 1055 546 1082 q 621 986 621 1028 q 603 931 621 953 q 550 883 585 910 q 512 851 525 865 q 497 819 499 838 l 496 792 z "},"ơ":{"ha":822,"x_min":56,"x_max":831,"o":"m 826 836 q 781 701 821 757 q 671 626 740 646 q 742 515 718 581 q 767 375 767 450 q 722 169 767 257 q 597 35 678 82 q 407 -11 515 -11 q 221 31 300 -11 q 99 151 142 74 q 56 333 56 229 q 101 538 56 450 q 228 672 146 625 q 418 719 310 719 q 501 713 436 719 q 550 708 531 708 q 640 742 607 708 q 679 858 672 775 l 681 883 l 831 883 l 826 836 m 407 124 q 547 194 499 124 q 594 381 594 264 q 549 532 594 479 q 419 585 504 585 q 278 515 326 585 q 229 329 229 444 q 407 124 229 124 z "},"ớ":{"ha":822,"x_min":56,"x_max":831,"o":"m 826 836 q 781 701 821 757 q 671 626 740 646 q 742 515 718 581 q 767 375 767 450 q 722 169 767 257 q 597 35 678 82 q 407 -11 515 -11 q 221 31 300 -11 q 99 151 142 74 q 56 333 56 229 q 101 538 56 450 q 228 672 146 625 q 418 719 310 719 q 501 713 436 719 q 550 708 531 708 q 640 742 607 708 q 679 858 672 775 l 681 883 l 831 883 l 826 836 m 407 124 q 547 194 499 124 q 594 381 594 264 q 549 532 594 479 q 419 585 504 585 q 278 515 326 585 q 229 329 229 444 q 407 124 229 124 m 390 792 l 547 1078 l 733 1078 l 501 792 l 390 792 z "},"ợ":{"ha":822,"x_min":56,"x_max":831,"o":"m 826 836 q 781 701 821 757 q 671 626 740 646 q 742 515 718 581 q 767 375 767 450 q 722 169 767 257 q 597 35 678 82 q 407 -11 515 -11 q 221 31 300 -11 q 99 151 142 74 q 56 333 56 229 q 101 538 56 450 q 228 672 146 625 q 418 719 310 719 q 501 713 436 719 q 550 708 531 708 q 640 742 607 708 q 679 858 672 775 l 681 883 l 831 883 l 826 836 m 407 124 q 547 194 499 124 q 594 381 594 264 q 549 532 594 479 q 419 585 504 585 q 278 515 326 585 q 229 329 229 444 q 407 124 229 124 m 463 -108 l 449 -271 l 278 -271 l 293 -108 l 463 -108 z "},"ờ":{"ha":822,"x_min":56,"x_max":831,"o":"m 826 836 q 781 701 821 757 q 671 626 740 646 q 742 515 718 581 q 767 375 767 450 q 722 169 767 257 q 597 35 678 82 q 407 -11 515 -11 q 221 31 300 -11 q 99 151 142 74 q 56 333 56 229 q 101 538 56 450 q 228 672 146 625 q 418 719 310 719 q 501 713 436 719 q 550 708 531 708 q 640 742 607 708 q 679 858 672 775 l 681 883 l 831 883 l 826 836 m 407 124 q 547 194 499 124 q 594 381 594 264 q 549 532 594 479 q 419 585 504 585 q 278 515 326 585 q 229 329 229 444 q 407 124 229 124 m 214 1078 l 381 1078 l 501 792 l 390 792 l 214 1078 z "},"ở":{"ha":822,"x_min":56,"x_max":831,"o":"m 826 836 q 781 701 821 757 q 671 626 740 646 q 742 515 718 581 q 767 375 767 450 q 722 169 767 257 q 597 35 678 82 q 407 -11 515 -11 q 221 31 300 -11 q 99 151 142 74 q 56 333 56 229 q 101 538 56 450 q 228 672 146 625 q 418 719 310 719 q 501 713 436 719 q 550 708 531 708 q 640 742 607 708 q 679 858 672 775 l 681 883 l 831 883 l 826 836 m 407 124 q 547 194 499 124 q 594 381 594 264 q 549 532 594 479 q 419 585 504 585 q 278 515 326 585 q 229 329 229 444 q 407 124 229 124 m 496 792 l 401 792 l 404 828 q 422 874 407 856 q 464 918 436 893 q 492 944 483 935 q 500 967 500 954 q 453 997 500 997 q 376 983 419 997 l 356 1060 q 481 1082 413 1082 q 583 1055 546 1082 q 621 986 621 1028 q 603 931 621 953 q 550 883 585 910 q 512 851 525 865 q 497 819 499 838 l 496 792 z "},"ỡ":{"ha":822,"x_min":56,"x_max":831,"o":"m 826 836 q 781 701 821 757 q 671 626 740 646 q 742 515 718 581 q 767 375 767 450 q 722 169 767 257 q 597 35 678 82 q 407 -11 515 -11 q 221 31 300 -11 q 99 151 142 74 q 56 333 56 229 q 101 538 56 450 q 228 672 146 625 q 418 719 310 719 q 501 713 436 719 q 550 708 531 708 q 640 742 607 708 q 679 858 672 775 l 681 883 l 831 883 l 826 836 m 407 124 q 547 194 499 124 q 594 381 594 264 q 549 532 594 479 q 419 585 504 585 q 278 515 326 585 q 229 329 229 444 q 407 124 229 124 m 213 844 q 260 985 218 939 q 364 1032 303 1032 q 419 1021 393 1032 q 479 988 444 1010 q 522 964 504 972 q 556 956 539 956 q 622 1028 614 956 l 703 1028 q 655 887 697 933 q 551 840 613 840 q 497 851 522 840 q 439 883 472 863 q 394 907 413 899 q 360 915 376 915 q 315 897 332 915 q 293 844 297 879 l 213 844 z "},"ő":{"ha":822,"x_min":56,"x_max":767,"o":"m 407 -11 q 221 31 300 -11 q 99 151 142 74 q 56 333 56 229 q 101 538 56 450 q 228 672 146 625 q 418 719 310 719 q 603 676 524 719 q 724 556 682 633 q 767 375 767 478 q 722 169 767 257 q 597 35 678 82 q 407 -11 515 -11 m 407 124 q 547 194 499 124 q 594 381 594 264 q 549 532 594 479 q 419 585 504 585 q 278 515 326 585 q 229 329 229 444 q 407 124 229 124 m 315 792 l 389 1078 l 526 1078 l 392 792 l 315 792 m 500 792 l 575 1078 l 713 1078 l 578 792 l 500 792 z "},"ȏ":{"ha":822,"x_min":56,"x_max":767,"o":"m 407 -11 q 221 31 300 -11 q 99 151 142 74 q 56 333 56 229 q 101 538 56 450 q 228 672 146 625 q 418 719 310 719 q 603 676 524 719 q 724 556 682 633 q 767 375 767 478 q 722 169 767 257 q 597 35 678 82 q 407 -11 515 -11 m 407 124 q 547 194 499 124 q 594 381 594 264 q 549 532 594 479 q 419 585 504 585 q 278 515 326 585 q 229 329 229 444 q 407 124 229 124 m 461 1053 q 611 1003 546 1053 q 700 860 676 954 l 610 824 q 453 940 560 940 q 288 824 354 940 l 201 860 q 304 1004 233 956 q 461 1053 375 1053 z "},"ō":{"ha":822,"x_min":56,"x_max":767,"o":"m 407 -11 q 221 31 300 -11 q 99 151 142 74 q 56 333 56 229 q 101 538 56 450 q 228 672 146 625 q 418 719 310 719 q 603 676 524 719 q 724 556 682 633 q 767 375 767 478 q 722 169 767 257 q 597 35 678 82 q 407 -11 515 -11 m 407 124 q 547 194 499 124 q 594 381 594 264 q 549 532 594 479 q 419 585 504 585 q 278 515 326 585 q 229 329 229 444 q 407 124 229 124 m 246 990 l 678 990 l 668 876 l 236 876 l 246 990 z "},"ṓ":{"ha":822,"x_min":56,"x_max":767,"o":"m 407 -11 q 221 31 300 -11 q 99 151 142 74 q 56 333 56 229 q 101 538 56 450 q 228 672 146 625 q 418 719 310 719 q 603 676 524 719 q 724 556 682 633 q 767 375 767 478 q 722 169 767 257 q 597 35 678 82 q 407 -11 515 -11 m 407 124 q 547 194 499 124 q 594 381 594 264 q 549 532 594 479 q 419 585 504 585 q 278 515 326 585 q 229 329 229 444 q 407 124 229 124 m 246 990 l 678 990 l 668 876 l 236 876 l 246 990 m 411 1060 l 568 1346 l 754 1346 l 522 1060 l 411 1060 z "},"ṑ":{"ha":822,"x_min":56,"x_max":767,"o":"m 407 -11 q 221 31 300 -11 q 99 151 142 74 q 56 333 56 229 q 101 538 56 450 q 228 672 146 625 q 418 719 310 719 q 603 676 524 719 q 724 556 682 633 q 767 375 767 478 q 722 169 767 257 q 597 35 678 82 q 407 -11 515 -11 m 407 124 q 547 194 499 124 q 594 381 594 264 q 549 532 594 479 q 419 585 504 585 q 278 515 326 585 q 229 329 229 444 q 407 124 229 124 m 246 990 l 678 990 l 668 876 l 236 876 l 246 990 m 235 1346 l 401 1346 l 522 1060 l 411 1060 l 235 1346 z "},"ǫ":{"ha":822,"x_min":56,"x_max":767,"o":"m 515 4 q 431 -38 458 -12 q 403 -106 403 -64 q 424 -163 403 -143 q 483 -183 446 -183 q 568 -161 522 -183 l 583 -250 q 456 -281 519 -281 q 330 -240 376 -281 q 283 -132 283 -199 q 342 -7 283 -54 q 132 103 208 13 q 56 333 56 193 q 101 538 56 450 q 228 672 146 625 q 418 719 310 719 q 603 676 524 719 q 724 556 682 633 q 767 375 767 478 q 698 128 767 219 q 515 4 629 38 m 229 329 q 407 124 229 124 q 547 194 499 124 q 594 381 594 264 q 549 532 594 479 q 419 585 504 585 q 278 515 326 585 q 229 329 229 444 z "},"ø":{"ha":822,"x_min":56,"x_max":767,"o":"m 658 638 q 739 526 711 593 q 767 375 767 458 q 722 169 767 257 q 597 35 678 82 q 407 -11 515 -11 q 249 18 318 -11 l 185 -79 l 100 -28 l 164 69 q 83 183 111 115 q 56 333 56 250 q 101 538 56 450 q 228 672 146 625 q 418 719 310 719 q 575 690 506 719 l 639 786 l 724 736 l 658 638 m 226 329 q 253 203 226 250 l 497 572 q 419 586 465 586 q 275 515 324 586 q 226 329 226 444 m 407 122 q 549 192 501 122 q 597 381 597 263 q 571 506 597 458 l 326 136 q 407 122 360 122 z "},"ǿ":{"ha":822,"x_min":56,"x_max":767,"o":"m 658 638 q 739 526 711 593 q 767 375 767 458 q 722 169 767 257 q 597 35 678 82 q 407 -11 515 -11 q 249 18 318 -11 l 185 -79 l 100 -28 l 164 69 q 83 183 111 115 q 56 333 56 250 q 101 538 56 450 q 228 672 146 625 q 418 719 310 719 q 575 690 506 719 l 639 786 l 724 736 l 658 638 m 226 329 q 253 203 226 250 l 497 572 q 419 586 465 586 q 275 515 324 586 q 226 329 226 444 m 407 122 q 549 192 501 122 q 597 381 597 263 q 571 506 597 458 l 326 136 q 407 122 360 122 m 390 792 l 547 1078 l 733 1078 l 501 792 l 390 792 z "},"õ":{"ha":822,"x_min":56,"x_max":767,"o":"m 407 -11 q 221 31 300 -11 q 99 151 142 74 q 56 333 56 229 q 101 538 56 450 q 228 672 146 625 q 418 719 310 719 q 603 676 524 719 q 724 556 682 633 q 767 375 767 478 q 722 169 767 257 q 597 35 678 82 q 407 -11 515 -11 m 407 124 q 547 194 499 124 q 594 381 594 264 q 549 532 594 479 q 419 585 504 585 q 278 515 326 585 q 229 329 229 444 q 407 124 229 124 m 213 844 q 260 985 218 939 q 364 1032 303 1032 q 419 1021 393 1032 q 479 988 444 1010 q 522 964 504 972 q 556 956 539 956 q 622 1028 614 956 l 703 1028 q 655 887 697 933 q 551 840 613 840 q 497 851 522 840 q 439 883 472 863 q 394 907 413 899 q 360 915 376 915 q 315 897 332 915 q 293 844 297 879 l 213 844 z "},"ṍ":{"ha":822,"x_min":56,"x_max":767,"o":"m 407 -11 q 221 31 300 -11 q 99 151 142 74 q 56 333 56 229 q 101 538 56 450 q 228 672 146 625 q 418 719 310 719 q 603 676 524 719 q 724 556 682 633 q 767 375 767 478 q 722 169 767 257 q 597 35 678 82 q 407 -11 515 -11 m 407 124 q 547 194 499 124 q 594 381 594 264 q 549 532 594 479 q 419 585 504 585 q 278 515 326 585 q 229 329 229 444 q 407 124 229 124 m 213 844 q 260 985 218 939 q 364 1032 303 1032 q 419 1021 393 1032 q 479 988 444 1010 q 522 964 504 972 q 556 956 539 956 q 622 1028 614 956 l 703 1028 q 655 887 697 933 q 551 840 613 840 q 497 851 522 840 q 439 883 472 863 q 394 907 413 899 q 360 915 376 915 q 315 897 332 915 q 293 844 297 879 l 213 844 m 411 1060 l 568 1346 l 754 1346 l 522 1060 l 411 1060 z "},"ṏ":{"ha":822,"x_min":56,"x_max":767,"o":"m 407 -11 q 221 31 300 -11 q 99 151 142 74 q 56 333 56 229 q 101 538 56 450 q 228 672 146 625 q 418 719 310 719 q 603 676 524 719 q 724 556 682 633 q 767 375 767 478 q 722 169 767 257 q 597 35 678 82 q 407 -11 515 -11 m 407 124 q 547 194 499 124 q 594 381 594 264 q 549 532 594 479 q 419 585 504 585 q 278 515 326 585 q 229 329 229 444 q 407 124 229 124 m 213 844 q 260 985 218 939 q 364 1032 303 1032 q 419 1021 393 1032 q 479 988 444 1010 q 522 964 504 972 q 556 956 539 956 q 622 1028 614 956 l 703 1028 q 655 887 697 933 q 551 840 613 840 q 497 851 522 840 q 439 883 472 863 q 394 907 413 899 q 360 915 376 915 q 315 897 332 915 q 293 844 297 879 l 213 844 m 440 1282 l 428 1122 l 260 1122 l 272 1282 l 440 1282 m 697 1282 l 683 1122 l 517 1122 l 529 1282 l 697 1282 z "},"ȭ":{"ha":822,"x_min":56,"x_max":767,"o":"m 407 -11 q 221 31 300 -11 q 99 151 142 74 q 56 333 56 229 q 101 538 56 450 q 228 672 146 625 q 418 719 310 719 q 603 676 524 719 q 724 556 682 633 q 767 375 767 478 q 722 169 767 257 q 597 35 678 82 q 407 -11 515 -11 m 407 124 q 547 194 499 124 q 594 381 594 264 q 549 532 594 479 q 419 585 504 585 q 278 515 326 585 q 229 329 229 444 q 407 124 229 124 m 213 844 q 260 985 218 939 q 364 1032 303 1032 q 419 1021 393 1032 q 479 988 444 1010 q 522 964 504 972 q 556 956 539 956 q 622 1028 614 956 l 703 1028 q 655 887 697 933 q 551 840 613 840 q 497 851 522 840 q 439 883 472 863 q 394 907 413 899 q 360 915 376 915 q 315 897 332 915 q 293 844 297 879 l 213 844 m 267 1258 l 699 1258 l 689 1144 l 257 1144 l 267 1258 z "},"œ":{"ha":1293,"x_min":56,"x_max":1240,"o":"m 950 719 q 1161 635 1082 719 q 1240 393 1240 551 q 1236 319 1240 357 l 763 319 q 816 173 765 224 q 960 122 867 122 q 1167 196 1071 122 l 1207 78 q 1090 13 1161 36 q 947 -11 1019 -11 q 785 24 854 -11 q 674 124 715 60 q 561 24 631 58 q 399 -11 492 -11 q 218 31 296 -11 q 98 152 140 74 q 56 333 56 231 q 101 538 56 450 q 227 672 146 625 q 414 719 308 719 q 580 686 511 719 q 688 589 649 653 q 797 685 731 651 q 950 719 864 719 m 953 596 q 768 414 797 596 l 1094 414 q 1056 550 1094 504 q 953 596 1018 596 m 407 124 q 544 194 497 124 q 590 381 590 264 q 546 532 590 479 q 419 585 501 585 q 278 515 326 585 q 229 329 229 444 q 407 124 229 124 z "},"p":{"ha":861,"x_min":43,"x_max":806,"o":"m 507 719 q 663 678 594 719 q 768 560 731 638 q 806 381 806 483 q 764 176 806 265 q 647 38 722 88 q 472 -11 571 -11 q 339 20 396 -11 q 249 108 282 51 l 215 -300 l 43 -300 l 107 503 q 113 635 113 560 q 111 701 113 679 l 274 701 l 276 594 q 371 686 310 653 q 507 719 432 719 m 443 124 q 581 190 532 124 q 631 372 631 256 q 584 530 631 475 q 453 585 538 585 q 315 517 365 585 q 265 336 265 450 q 311 178 265 232 q 443 124 357 124 z "},"þ":{"ha":861,"x_min":43,"x_max":807,"o":"m 507 719 q 664 678 596 719 q 769 560 732 638 q 807 381 807 483 q 765 176 807 265 q 648 38 724 88 q 474 -11 572 -11 q 339 20 396 -11 q 249 110 282 51 l 217 -300 l 43 -300 l 147 1011 l 321 1011 l 289 611 q 381 691 324 663 q 507 719 439 719 m 443 124 q 582 190 532 124 q 632 372 632 256 q 585 529 632 474 q 454 585 539 585 q 316 517 367 585 q 265 336 265 450 q 311 178 265 232 q 443 124 357 124 z "},"q":{"ha":860,"x_min":56,"x_max":804,"o":"m 804 701 q 778 503 788 613 l 714 -300 l 540 -300 l 571 94 q 479 17 536 44 q 354 -11 422 -11 q 198 30 265 -11 q 93 148 131 71 q 56 328 56 225 q 97 532 56 443 q 215 670 139 621 q 388 719 290 719 q 528 685 468 719 q 621 585 588 650 l 642 701 l 804 701 m 408 124 q 545 190 494 124 q 596 371 596 257 q 549 530 596 475 q 418 585 503 585 q 280 517 331 585 q 229 335 229 450 q 276 178 229 233 q 408 124 322 124 z "},"r":{"ha":544,"x_min":67,"x_max":571,"o":"m 500 718 q 571 707 542 718 l 557 550 q 467 567 518 567 q 326 516 376 567 q 271 379 276 465 l 240 0 l 67 0 l 107 503 q 113 646 113 597 q 111 701 113 683 l 274 701 l 276 594 q 367 685 307 653 q 500 718 428 718 z "},"ŕ":{"ha":544,"x_min":67,"x_max":644,"o":"m 500 718 q 571 707 542 718 l 557 550 q 467 567 518 567 q 326 516 376 567 q 271 379 276 465 l 240 0 l 67 0 l 107 503 q 113 646 113 597 q 111 701 113 683 l 274 701 l 276 594 q 367 685 307 653 q 500 718 428 718 m 301 792 l 458 1078 l 644 1078 l 413 792 l 301 792 z "},"ř":{"ha":544,"x_min":67,"x_max":610,"o":"m 500 718 q 571 707 542 718 l 557 550 q 467 567 518 567 q 326 516 376 567 q 271 379 276 465 l 240 0 l 67 0 l 107 503 q 113 646 113 597 q 111 701 113 683 l 274 701 l 276 594 q 367 685 307 653 q 500 718 428 718 m 610 1078 l 411 792 l 303 792 l 150 1078 l 288 1078 l 365 900 l 465 1078 l 610 1078 z "},"ŗ":{"ha":544,"x_min":44,"x_max":571,"o":"m 500 718 q 571 707 542 718 l 557 550 q 467 567 518 567 q 326 516 376 567 q 271 379 276 465 l 240 0 l 67 0 l 107 503 q 113 646 113 597 q 111 701 113 683 l 274 701 l 276 594 q 367 685 307 653 q 500 718 428 718 m 238 -96 l 232 -182 q 205 -291 226 -244 q 135 -378 183 -337 l 74 -331 q 131 -239 119 -290 l 44 -239 l 56 -96 l 238 -96 z "},"ȑ":{"ha":544,"x_min":67,"x_max":571,"o":"m 500 718 q 571 707 542 718 l 557 550 q 467 567 518 567 q 326 516 376 567 q 271 379 276 465 l 240 0 l 67 0 l 107 503 q 113 646 113 597 q 111 701 113 683 l 274 701 l 276 594 q 367 685 307 653 q 500 718 428 718 m 140 1078 l 269 1078 l 303 792 l 226 792 l 140 1078 m 326 1078 l 456 1078 l 489 792 l 411 792 l 326 1078 z "},"ṛ":{"ha":544,"x_min":47,"x_max":571,"o":"m 500 718 q 571 707 542 718 l 557 550 q 467 567 518 567 q 326 516 376 567 q 271 379 276 465 l 240 0 l 67 0 l 107 503 q 113 646 113 597 q 111 701 113 683 l 274 701 l 276 594 q 367 685 307 653 q 500 718 428 718 m 232 -108 l 218 -271 l 47 -271 l 63 -108 l 232 -108 z "},"ȓ":{"ha":544,"x_min":67,"x_max":611,"o":"m 500 718 q 571 707 542 718 l 557 550 q 467 567 518 567 q 326 516 376 567 q 271 379 276 465 l 240 0 l 67 0 l 107 503 q 113 646 113 597 q 111 701 113 683 l 274 701 l 276 594 q 367 685 307 653 q 500 718 428 718 m 372 1053 q 522 1003 457 1053 q 611 860 588 954 l 521 824 q 364 940 471 940 q 199 824 265 940 l 113 860 q 215 1004 144 956 q 372 1053 286 1053 z "},"ṟ":{"ha":544,"x_min":-81,"x_max":571,"o":"m 500 718 q 571 707 542 718 l 557 550 q 467 567 518 567 q 326 516 376 567 q 271 379 276 465 l 240 0 l 67 0 l 107 503 q 113 646 113 597 q 111 701 113 683 l 274 701 l 276 594 q 367 685 307 653 q 500 718 428 718 m -72 -136 l 360 -136 l 351 -244 l -81 -244 l -72 -136 z "},"s":{"ha":696,"x_min":26,"x_max":650,"o":"m 333 -11 q 26 78 163 -11 l 86 199 q 338 117 204 117 q 472 194 472 117 q 437 249 472 231 q 324 292 401 268 q 201 333 250 313 q 119 394 153 354 q 85 497 85 433 q 165 658 85 597 q 379 719 246 719 q 529 696 457 719 q 650 631 601 672 l 592 513 q 376 592 488 592 q 276 571 311 592 q 242 510 242 550 q 277 453 242 472 q 392 411 313 435 q 515 369 468 389 q 597 308 563 349 q 631 204 631 268 q 550 46 631 103 q 333 -11 469 -11 z "},"ś":{"ha":696,"x_min":26,"x_max":682,"o":"m 333 -11 q 26 78 163 -11 l 86 199 q 338 117 204 117 q 472 194 472 117 q 437 249 472 231 q 324 292 401 268 q 201 333 250 313 q 119 394 153 354 q 85 497 85 433 q 165 658 85 597 q 379 719 246 719 q 529 696 457 719 q 650 631 601 672 l 592 513 q 376 592 488 592 q 276 571 311 592 q 242 510 242 550 q 277 453 242 472 q 392 411 313 435 q 515 369 468 389 q 597 308 563 349 q 631 204 631 268 q 550 46 631 103 q 333 -11 469 -11 m 339 792 l 496 1078 l 682 1078 l 450 792 l 339 792 z "},"ṥ":{"ha":696,"x_min":26,"x_max":694,"o":"m 333 -11 q 26 78 163 -11 l 86 199 q 338 117 204 117 q 472 194 472 117 q 437 249 472 231 q 324 292 401 268 q 201 333 250 313 q 119 394 153 354 q 85 497 85 433 q 165 658 85 597 q 379 719 246 719 q 529 696 457 719 q 650 631 601 672 l 592 513 q 376 592 488 592 q 276 571 311 592 q 242 510 242 550 q 277 453 242 472 q 392 411 313 435 q 515 369 468 389 q 597 308 563 349 q 631 204 631 268 q 550 46 631 103 q 333 -11 469 -11 m 351 776 l 508 1063 l 694 1063 l 463 776 l 351 776 m 361 1063 l 349 892 l 156 892 l 168 1063 l 361 1063 z "},"š":{"ha":696,"x_min":26,"x_max":650,"o":"m 333 -11 q 26 78 163 -11 l 86 199 q 338 117 204 117 q 472 194 472 117 q 437 249 472 231 q 324 292 401 268 q 201 333 250 313 q 119 394 153 354 q 85 497 85 433 q 165 658 85 597 q 379 719 246 719 q 529 696 457 719 q 650 631 601 672 l 592 513 q 376 592 488 592 q 276 571 311 592 q 242 510 242 550 q 277 453 242 472 q 392 411 313 435 q 515 369 468 389 q 597 308 563 349 q 631 204 631 268 q 550 46 631 103 q 333 -11 469 -11 m 647 1078 l 449 792 l 340 792 l 188 1078 l 325 1078 l 403 900 l 503 1078 l 647 1078 z "},"ṧ":{"ha":696,"x_min":26,"x_max":650,"o":"m 333 -11 q 26 78 163 -11 l 86 199 q 338 117 204 117 q 472 194 472 117 q 437 249 472 231 q 324 292 401 268 q 201 333 250 313 q 119 394 153 354 q 85 497 85 433 q 165 658 85 597 q 379 719 246 719 q 529 696 457 719 q 650 631 601 672 l 592 513 q 376 592 488 592 q 276 571 311 592 q 242 510 242 550 q 277 453 242 472 q 392 411 313 435 q 515 369 468 389 q 597 308 563 349 q 631 204 631 268 q 550 46 631 103 q 333 -11 469 -11 m 647 1078 l 449 792 l 340 792 l 188 1078 l 325 1078 l 403 900 l 503 1078 l 647 1078 m 529 1288 l 517 1117 l 324 1117 l 336 1288 l 529 1288 z "},"ş":{"ha":696,"x_min":26,"x_max":650,"o":"m 242 510 q 277 453 242 472 q 392 411 313 435 q 515 369 468 389 q 597 308 563 349 q 631 204 631 268 q 557 51 631 107 q 356 -11 483 -6 l 346 -57 q 363 -56 351 -56 q 442 -81 411 -56 q 472 -151 472 -107 q 426 -240 472 -206 q 294 -274 379 -274 q 224 -267 261 -274 q 160 -249 186 -261 l 182 -175 q 292 -194 242 -194 q 360 -153 360 -194 q 315 -122 360 -122 q 261 -132 297 -122 l 236 -106 l 256 -7 q 26 78 131 10 l 86 199 q 338 117 204 117 q 472 194 472 117 q 437 249 472 231 q 324 292 401 268 q 201 333 250 313 q 119 394 153 354 q 85 497 85 433 q 165 658 85 597 q 379 719 246 719 q 529 696 457 719 q 650 631 601 672 l 592 513 q 376 592 488 592 q 276 571 311 592 q 242 510 242 550 z "},"ŝ":{"ha":696,"x_min":26,"x_max":650,"o":"m 333 -11 q 26 78 163 -11 l 86 199 q 338 117 204 117 q 472 194 472 117 q 437 249 472 231 q 324 292 401 268 q 201 333 250 313 q 119 394 153 354 q 85 497 85 433 q 165 658 85 597 q 379 719 246 719 q 529 696 457 719 q 650 631 601 672 l 592 513 q 376 592 488 592 q 276 571 311 592 q 242 510 242 550 q 277 453 242 472 q 392 411 313 435 q 515 369 468 389 q 597 308 563 349 q 631 204 631 268 q 550 46 631 103 q 333 -11 469 -11 m 165 792 l 363 1078 l 471 1078 l 625 792 l 488 792 l 410 969 l 310 792 l 165 792 z "},"ș":{"ha":696,"x_min":26,"x_max":650,"o":"m 333 -11 q 26 78 163 -11 l 86 199 q 338 117 204 117 q 472 194 472 117 q 437 249 472 231 q 324 292 401 268 q 201 333 250 313 q 119 394 153 354 q 85 497 85 433 q 165 658 85 597 q 379 719 246 719 q 529 696 457 719 q 650 631 601 672 l 592 513 q 376 592 488 592 q 276 571 311 592 q 242 510 242 550 q 277 453 242 472 q 392 411 313 435 q 515 369 468 389 q 597 308 563 349 q 631 204 631 268 q 550 46 631 103 q 333 -11 469 -11 m 403 -96 l 397 -182 q 370 -291 392 -244 q 300 -378 349 -337 l 239 -331 q 296 -239 285 -290 l 210 -239 l 221 -96 l 403 -96 z "},"ṡ":{"ha":696,"x_min":26,"x_max":650,"o":"m 333 -11 q 26 78 163 -11 l 86 199 q 338 117 204 117 q 472 194 472 117 q 437 249 472 231 q 324 292 401 268 q 201 333 250 313 q 119 394 153 354 q 85 497 85 433 q 165 658 85 597 q 379 719 246 719 q 529 696 457 719 q 650 631 601 672 l 592 513 q 376 592 488 592 q 276 571 311 592 q 242 510 242 550 q 277 453 242 472 q 392 411 313 435 q 515 369 468 389 q 597 308 563 349 q 631 204 631 268 q 550 46 631 103 q 333 -11 469 -11 m 508 1019 l 496 849 l 303 849 l 315 1019 l 508 1019 z "},"ṣ":{"ha":696,"x_min":26,"x_max":650,"o":"m 333 -11 q 26 78 163 -11 l 86 199 q 338 117 204 117 q 472 194 472 117 q 437 249 472 231 q 324 292 401 268 q 201 333 250 313 q 119 394 153 354 q 85 497 85 433 q 165 658 85 597 q 379 719 246 719 q 529 696 457 719 q 650 631 601 672 l 592 513 q 376 592 488 592 q 276 571 311 592 q 242 510 242 550 q 277 453 242 472 q 392 411 313 435 q 515 369 468 389 q 597 308 563 349 q 631 204 631 268 q 550 46 631 103 q 333 -11 469 -11 m 397 -108 l 383 -271 l 213 -271 l 228 -108 l 397 -108 z "},"ṩ":{"ha":696,"x_min":26,"x_max":650,"o":"m 333 -11 q 26 78 163 -11 l 86 199 q 338 117 204 117 q 472 194 472 117 q 437 249 472 231 q 324 292 401 268 q 201 333 250 313 q 119 394 153 354 q 85 497 85 433 q 165 658 85 597 q 379 719 246 719 q 529 696 457 719 q 650 631 601 672 l 592 513 q 376 592 488 592 q 276 571 311 592 q 242 510 242 550 q 277 453 242 472 q 392 411 313 435 q 515 369 468 389 q 597 308 563 349 q 631 204 631 268 q 550 46 631 103 q 333 -11 469 -11 m 397 -108 l 383 -271 l 213 -271 l 228 -108 l 397 -108 m 508 1019 l 496 849 l 303 849 l 315 1019 l 508 1019 z "},"ß":{"ha":938,"x_min":67,"x_max":893,"o":"m 597 517 q 821 413 749 482 q 893 238 893 343 q 855 110 893 167 q 749 21 817 53 q 594 -11 682 -11 q 449 13 521 -11 q 322 78 376 36 l 382 199 q 601 119 496 119 q 697 149 663 119 q 731 232 731 179 q 658 351 731 301 q 418 443 585 400 l 428 572 q 599 658 547 608 q 651 781 651 708 q 613 873 651 842 q 506 904 575 904 q 356 851 407 904 q 296 682 306 797 l 240 0 l 67 0 l 119 658 q 510 1032 149 1032 q 732 969 650 1032 q 814 794 814 907 q 597 517 814 608 z "},"t":{"ha":526,"x_min":25,"x_max":531,"o":"m 308 257 q 413 133 299 133 q 485 143 444 133 l 474 7 q 360 -10 428 -10 q 192 48 250 -10 q 133 215 133 106 q 135 247 133 236 l 160 571 l 25 571 l 36 701 l 169 701 l 183 872 l 361 931 l 343 701 l 531 701 l 519 571 l 333 571 l 308 257 z "},"ŧ":{"ha":540,"x_min":33,"x_max":538,"o":"m 340 571 l 332 463 l 489 463 l 481 338 l 322 338 l 315 257 l 314 236 q 419 133 314 133 q 492 143 453 133 l 481 7 q 367 -10 435 -10 q 199 48 257 -10 q 140 215 140 106 q 142 247 140 236 l 149 338 l 43 338 l 53 463 l 158 463 l 167 571 l 33 571 l 43 701 l 176 701 l 190 872 l 369 931 l 351 701 l 538 701 l 528 571 l 340 571 z "},"ť":{"ha":526,"x_min":25,"x_max":571,"o":"m 507 749 l 411 749 l 435 992 l 571 992 l 507 749 m 343 701 l 531 701 l 519 571 l 333 571 l 308 257 q 413 133 299 133 q 485 143 444 133 l 474 7 q 360 -10 428 -10 q 192 48 250 -10 q 133 215 133 106 q 135 247 133 236 l 160 571 l 25 571 l 36 701 l 169 701 l 183 872 l 361 931 l 343 701 z "},"ţ":{"ha":526,"x_min":25,"x_max":531,"o":"m 308 257 q 413 133 299 133 q 485 143 444 133 l 474 7 q 360 -10 428 -10 l 343 -10 l 333 -57 q 350 -56 339 -56 q 429 -81 399 -56 q 460 -151 460 -107 q 413 -240 460 -206 q 282 -274 367 -274 q 211 -267 249 -274 q 147 -249 174 -261 l 169 -175 q 279 -194 229 -194 q 347 -153 347 -194 q 303 -122 347 -122 q 249 -132 285 -122 l 224 -106 l 247 11 q 133 217 133 61 q 135 247 133 236 l 160 571 l 25 571 l 36 701 l 169 701 l 183 872 l 361 931 l 343 701 l 531 701 l 519 571 l 333 571 l 308 257 z "},"ț":{"ha":526,"x_min":25,"x_max":531,"o":"m 308 257 q 413 133 299 133 q 485 143 444 133 l 474 7 q 360 -10 428 -10 q 192 48 250 -10 q 133 215 133 106 q 135 247 133 236 l 160 571 l 25 571 l 36 701 l 169 701 l 183 872 l 361 931 l 343 701 l 531 701 l 519 571 l 333 571 l 308 257 m 390 -96 l 385 -182 q 358 -291 379 -244 q 288 -378 336 -337 l 226 -331 q 283 -239 272 -290 l 197 -239 l 208 -96 l 390 -96 z "},"ẗ":{"ha":526,"x_min":25,"x_max":531,"o":"m 308 257 q 413 133 299 133 q 485 143 444 133 l 474 7 q 360 -10 428 -10 q 192 48 250 -10 q 133 215 133 106 q 135 247 133 236 l 160 571 l 25 571 l 36 701 l 169 701 l 183 872 l 361 931 l 343 701 l 531 701 l 519 571 l 333 571 l 308 257 m 251 1185 l 239 1025 l 71 1025 l 83 1185 l 251 1185 m 508 1185 l 496 1025 l 328 1025 l 340 1185 l 508 1185 z "},"ṭ":{"ha":526,"x_min":25,"x_max":531,"o":"m 308 257 q 413 133 299 133 q 485 143 444 133 l 474 7 q 360 -10 428 -10 q 192 48 250 -10 q 133 215 133 106 q 135 247 133 236 l 160 571 l 25 571 l 36 701 l 169 701 l 183 872 l 361 931 l 343 701 l 531 701 l 519 571 l 333 571 l 308 257 m 385 -108 l 371 -271 l 200 -271 l 215 -108 l 385 -108 z "},"ṯ":{"ha":526,"x_min":25,"x_max":531,"o":"m 308 257 q 413 133 299 133 q 485 143 444 133 l 474 7 q 360 -10 428 -10 q 192 48 250 -10 q 133 215 133 106 q 135 247 133 236 l 160 571 l 25 571 l 36 701 l 169 701 l 183 872 l 361 931 l 343 701 l 531 701 l 519 571 l 333 571 l 308 257 m 81 -136 l 513 -136 l 504 -244 l 72 -244 l 81 -136 z "},"u":{"ha":828,"x_min":83,"x_max":761,"o":"m 761 701 l 706 0 l 538 0 l 546 100 q 451 18 510 47 q 319 -11 392 -11 q 144 52 204 -11 q 83 236 83 115 q 85 279 83 264 l 118 701 l 292 701 l 258 290 l 257 264 q 383 126 257 126 q 503 176 458 126 q 556 311 549 225 l 588 701 l 761 701 z "},"ú":{"ha":828,"x_min":83,"x_max":761,"o":"m 761 701 l 706 0 l 538 0 l 546 100 q 451 18 510 47 q 319 -11 392 -11 q 144 52 204 -11 q 83 236 83 115 q 85 279 83 264 l 118 701 l 292 701 l 258 290 l 257 264 q 383 126 257 126 q 503 176 458 126 q 556 311 549 225 l 588 701 l 761 701 m 392 792 l 549 1078 l 735 1078 l 503 792 l 392 792 z "},"ŭ":{"ha":828,"x_min":83,"x_max":761,"o":"m 761 701 l 706 0 l 538 0 l 546 100 q 451 18 510 47 q 319 -11 392 -11 q 144 52 204 -11 q 83 236 83 115 q 85 279 83 264 l 118 701 l 292 701 l 258 290 l 257 264 q 383 126 257 126 q 503 176 458 126 q 556 311 549 225 l 588 701 l 761 701 m 456 828 q 306 876 371 828 q 217 1019 240 925 l 307 1058 q 464 942 356 942 q 629 1058 564 942 l 715 1021 q 612 876 682 925 q 456 828 542 828 z "},"û":{"ha":828,"x_min":83,"x_max":761,"o":"m 761 701 l 706 0 l 538 0 l 546 100 q 451 18 510 47 q 319 -11 392 -11 q 144 52 204 -11 q 83 236 83 115 q 85 279 83 264 l 118 701 l 292 701 l 258 290 l 257 264 q 383 126 257 126 q 503 176 458 126 q 556 311 549 225 l 588 701 l 761 701 m 218 792 l 415 1078 l 524 1078 l 678 792 l 540 792 l 463 969 l 363 792 l 218 792 z "},"ȕ":{"ha":828,"x_min":83,"x_max":761,"o":"m 761 701 l 706 0 l 538 0 l 546 100 q 451 18 510 47 q 319 -11 392 -11 q 144 52 204 -11 q 83 236 83 115 q 85 279 83 264 l 118 701 l 292 701 l 258 290 l 257 264 q 383 126 257 126 q 503 176 458 126 q 556 311 549 225 l 588 701 l 761 701 m 231 1078 l 360 1078 l 393 792 l 317 792 l 231 1078 m 417 1078 l 546 1078 l 579 792 l 501 792 l 417 1078 z "},"ü":{"ha":828,"x_min":83,"x_max":761,"o":"m 761 701 l 706 0 l 538 0 l 546 100 q 451 18 510 47 q 319 -11 392 -11 q 144 52 204 -11 q 83 236 83 115 q 85 279 83 264 l 118 701 l 292 701 l 258 290 l 257 264 q 383 126 257 126 q 503 176 458 126 q 556 311 549 225 l 588 701 l 761 701 m 421 1014 l 408 854 l 240 854 l 253 1014 l 421 1014 m 678 1014 l 664 854 l 497 854 l 510 1014 l 678 1014 z "},"ụ":{"ha":828,"x_min":83,"x_max":761,"o":"m 761 701 l 706 0 l 538 0 l 546 100 q 451 18 510 47 q 319 -11 392 -11 q 144 52 204 -11 q 83 236 83 115 q 85 279 83 264 l 118 701 l 292 701 l 258 290 l 257 264 q 383 126 257 126 q 503 176 458 126 q 556 311 549 225 l 588 701 l 761 701 m 464 -108 l 450 -271 l 279 -271 l 294 -108 l 464 -108 z "},"ù":{"ha":828,"x_min":83,"x_max":761,"o":"m 761 701 l 706 0 l 538 0 l 546 100 q 451 18 510 47 q 319 -11 392 -11 q 144 52 204 -11 q 83 236 83 115 q 85 279 83 264 l 118 701 l 292 701 l 258 290 l 257 264 q 383 126 257 126 q 503 176 458 126 q 556 311 549 225 l 588 701 l 761 701 m 215 1078 l 382 1078 l 503 792 l 392 792 l 215 1078 z "},"ủ":{"ha":828,"x_min":83,"x_max":761,"o":"m 761 701 l 706 0 l 538 0 l 546 100 q 451 18 510 47 q 319 -11 392 -11 q 144 52 204 -11 q 83 236 83 115 q 85 279 83 264 l 118 701 l 292 701 l 258 290 l 257 264 q 383 126 257 126 q 503 176 458 126 q 556 311 549 225 l 588 701 l 761 701 m 497 792 l 403 792 l 406 828 q 423 874 408 856 q 465 918 438 893 q 493 944 485 935 q 501 967 501 954 q 454 997 501 997 q 378 983 421 997 l 357 1060 q 482 1082 414 1082 q 585 1055 547 1082 q 622 986 622 1028 q 604 931 622 953 q 551 883 586 910 q 513 851 526 865 q 499 819 500 838 l 497 792 z "},"ư":{"ha":856,"x_min":83,"x_max":939,"o":"m 939 883 l 936 836 q 881 694 931 751 q 754 621 832 636 l 706 0 l 538 0 l 546 100 q 451 18 510 47 q 319 -11 392 -11 q 144 52 204 -11 q 83 236 83 115 q 85 279 83 264 l 118 701 l 292 701 l 258 290 l 257 264 q 383 126 257 126 q 503 176 458 126 q 556 311 549 225 l 588 701 l 638 701 q 747 738 713 701 q 788 858 782 775 l 789 883 l 939 883 z "},"ứ":{"ha":856,"x_min":83,"x_max":939,"o":"m 939 883 l 936 836 q 881 694 931 751 q 754 621 832 636 l 706 0 l 538 0 l 546 100 q 451 18 510 47 q 319 -11 392 -11 q 144 52 204 -11 q 83 236 83 115 q 85 279 83 264 l 118 701 l 292 701 l 258 290 l 257 264 q 383 126 257 126 q 503 176 458 126 q 556 311 549 225 l 588 701 l 638 701 q 747 738 713 701 q 788 858 782 775 l 789 883 l 939 883 m 393 792 l 550 1078 l 736 1078 l 504 792 l 393 792 z "},"ự":{"ha":856,"x_min":83,"x_max":939,"o":"m 939 883 l 936 836 q 881 694 931 751 q 754 621 832 636 l 706 0 l 538 0 l 546 100 q 451 18 510 47 q 319 -11 392 -11 q 144 52 204 -11 q 83 236 83 115 q 85 279 83 264 l 118 701 l 292 701 l 258 290 l 257 264 q 383 126 257 126 q 503 176 458 126 q 556 311 549 225 l 588 701 l 638 701 q 747 738 713 701 q 788 858 782 775 l 789 883 l 939 883 m 464 -108 l 450 -271 l 279 -271 l 294 -108 l 464 -108 z "},"ừ":{"ha":856,"x_min":83,"x_max":939,"o":"m 939 883 l 936 836 q 881 694 931 751 q 754 621 832 636 l 706 0 l 538 0 l 546 100 q 451 18 510 47 q 319 -11 392 -11 q 144 52 204 -11 q 83 236 83 115 q 85 279 83 264 l 118 701 l 292 701 l 258 290 l 257 264 q 383 126 257 126 q 503 176 458 126 q 556 311 549 225 l 588 701 l 638 701 q 747 738 713 701 q 788 858 782 775 l 789 883 l 939 883 m 217 1078 l 383 1078 l 504 792 l 393 792 l 217 1078 z "},"ử":{"ha":856,"x_min":83,"x_max":939,"o":"m 939 883 l 936 836 q 881 694 931 751 q 754 621 832 636 l 706 0 l 538 0 l 546 100 q 451 18 510 47 q 319 -11 392 -11 q 144 52 204 -11 q 83 236 83 115 q 85 279 83 264 l 118 701 l 292 701 l 258 290 l 257 264 q 383 126 257 126 q 503 176 458 126 q 556 311 549 225 l 588 701 l 638 701 q 747 738 713 701 q 788 858 782 775 l 789 883 l 939 883 m 499 792 l 404 792 l 407 828 q 424 874 410 856 q 467 918 439 893 q 494 944 486 935 q 503 967 503 954 q 456 997 503 997 q 379 983 422 997 l 358 1060 q 483 1082 415 1082 q 586 1055 549 1082 q 624 986 624 1028 q 606 931 624 953 q 553 883 588 910 q 515 851 528 865 q 500 819 501 838 l 499 792 z "},"ữ":{"ha":856,"x_min":83,"x_max":939,"o":"m 939 883 l 936 836 q 881 694 931 751 q 754 621 832 636 l 706 0 l 538 0 l 546 100 q 451 18 510 47 q 319 -11 392 -11 q 144 52 204 -11 q 83 236 83 115 q 85 279 83 264 l 118 701 l 292 701 l 258 290 l 257 264 q 383 126 257 126 q 503 176 458 126 q 556 311 549 225 l 588 701 l 638 701 q 747 738 713 701 q 788 858 782 775 l 789 883 l 939 883 m 215 844 q 263 985 221 939 q 367 1032 306 1032 q 422 1021 396 1032 q 482 988 447 1010 q 524 964 507 972 q 558 956 542 956 q 625 1028 617 956 l 706 1028 q 658 887 700 933 q 554 840 615 840 q 500 851 525 840 q 442 883 475 863 q 397 907 415 899 q 363 915 379 915 q 317 897 335 915 q 296 844 300 879 l 215 844 z "},"ű":{"ha":828,"x_min":83,"x_max":761,"o":"m 761 701 l 706 0 l 538 0 l 546 100 q 451 18 510 47 q 319 -11 392 -11 q 144 52 204 -11 q 83 236 83 115 q 85 279 83 264 l 118 701 l 292 701 l 258 290 l 257 264 q 383 126 257 126 q 503 176 458 126 q 556 311 549 225 l 588 701 l 761 701 m 317 792 l 390 1078 l 528 1078 l 393 792 l 317 792 m 501 792 l 576 1078 l 714 1078 l 579 792 l 501 792 z "},"ȗ":{"ha":828,"x_min":83,"x_max":761,"o":"m 761 701 l 706 0 l 538 0 l 546 100 q 451 18 510 47 q 319 -11 392 -11 q 144 52 204 -11 q 83 236 83 115 q 85 279 83 264 l 118 701 l 292 701 l 258 290 l 257 264 q 383 126 257 126 q 503 176 458 126 q 556 311 549 225 l 588 701 l 761 701 m 463 1053 q 613 1003 547 1053 q 701 860 678 954 l 611 824 q 454 940 561 940 q 289 824 356 940 l 203 860 q 306 1004 235 956 q 463 1053 376 1053 z "},"ū":{"ha":828,"x_min":83,"x_max":761,"o":"m 761 701 l 706 0 l 538 0 l 546 100 q 451 18 510 47 q 319 -11 392 -11 q 144 52 204 -11 q 83 236 83 115 q 85 279 83 264 l 118 701 l 292 701 l 258 290 l 257 264 q 383 126 257 126 q 503 176 458 126 q 556 311 549 225 l 588 701 l 761 701 m 247 990 l 679 990 l 669 876 l 238 876 l 247 990 z "},"ṻ":{"ha":828,"x_min":83,"x_max":761,"o":"m 761 701 l 706 0 l 538 0 l 546 100 q 451 18 510 47 q 319 -11 392 -11 q 144 52 204 -11 q 83 236 83 115 q 85 279 83 264 l 118 701 l 292 701 l 258 290 l 257 264 q 383 126 257 126 q 503 176 458 126 q 556 311 549 225 l 588 701 l 761 701 m 247 990 l 679 990 l 669 876 l 238 876 l 247 990 m 442 1282 l 429 1122 l 261 1122 l 274 1282 l 442 1282 m 699 1282 l 685 1122 l 518 1122 l 531 1282 l 699 1282 z "},"ų":{"ha":828,"x_min":83,"x_max":761,"o":"m 643 -183 q 728 -161 683 -183 l 744 -250 q 615 -281 681 -281 q 490 -240 538 -281 q 443 -132 443 -199 q 468 -44 443 -83 q 539 21 493 -4 l 546 100 q 451 18 510 47 q 319 -11 392 -11 q 144 52 204 -11 q 83 236 83 115 q 85 279 83 264 l 118 701 l 292 701 l 258 290 l 257 264 q 383 126 257 126 q 503 176 458 126 q 556 311 549 225 l 588 701 l 761 701 l 706 0 l 688 0 q 597 -30 631 0 q 564 -106 564 -60 q 585 -163 564 -143 q 643 -183 606 -183 z "},"ů":{"ha":828,"x_min":83,"x_max":761,"o":"m 761 701 l 706 0 l 538 0 l 546 100 q 451 18 510 47 q 319 -11 392 -11 q 144 52 204 -11 q 83 236 83 115 q 85 279 83 264 l 118 701 l 292 701 l 258 290 l 257 264 q 383 126 257 126 q 503 176 458 126 q 556 311 549 225 l 588 701 l 761 701 m 460 789 q 353 831 397 789 q 310 936 310 874 q 353 1038 310 996 q 460 1081 397 1081 q 565 1038 521 1081 q 608 936 608 996 q 565 831 608 874 q 460 789 522 789 m 460 868 q 504 888 486 868 q 522 936 522 907 q 504 983 522 964 q 460 1001 486 1001 q 414 983 432 1001 q 396 936 396 964 q 414 888 396 907 q 460 868 432 868 z "},"ũ":{"ha":828,"x_min":83,"x_max":761,"o":"m 761 701 l 706 0 l 538 0 l 546 100 q 451 18 510 47 q 319 -11 392 -11 q 144 52 204 -11 q 83 236 83 115 q 85 279 83 264 l 118 701 l 292 701 l 258 290 l 257 264 q 383 126 257 126 q 503 176 458 126 q 556 311 549 225 l 588 701 l 761 701 m 214 844 q 262 985 219 939 q 365 1032 304 1032 q 420 1021 394 1032 q 481 988 446 1010 q 523 964 506 972 q 557 956 540 956 q 624 1028 615 956 l 704 1028 q 656 887 699 933 q 553 840 614 840 q 499 851 524 840 q 440 883 474 863 q 396 907 414 899 q 361 915 378 915 q 316 897 333 915 q 294 844 299 879 l 214 844 z "},"ṹ":{"ha":828,"x_min":83,"x_max":761,"o":"m 761 701 l 706 0 l 538 0 l 546 100 q 451 18 510 47 q 319 -11 392 -11 q 144 52 204 -11 q 83 236 83 115 q 85 279 83 264 l 118 701 l 292 701 l 258 290 l 257 264 q 383 126 257 126 q 503 176 458 126 q 556 311 549 225 l 588 701 l 761 701 m 214 844 q 262 985 219 939 q 365 1032 304 1032 q 420 1021 394 1032 q 481 988 446 1010 q 523 964 506 972 q 557 956 540 956 q 624 1028 615 956 l 704 1028 q 656 887 699 933 q 553 840 614 840 q 499 851 524 840 q 440 883 474 863 q 396 907 414 899 q 361 915 378 915 q 316 897 333 915 q 294 844 299 879 l 214 844 m 413 1060 l 569 1346 l 756 1346 l 524 1060 l 413 1060 z "},"v":{"ha":754,"x_min":25,"x_max":786,"o":"m 786 700 l 424 0 l 272 0 l 25 700 l 200 700 l 367 200 l 611 700 l 786 700 z "},"w":{"ha":1226,"x_min":42,"x_max":1239,"o":"m 1239 701 l 908 0 l 757 0 l 618 458 l 413 0 l 261 0 l 42 701 l 215 701 l 358 208 l 576 701 l 703 701 l 846 204 l 1065 701 l 1239 701 z "},"ẃ":{"ha":1226,"x_min":42,"x_max":1239,"o":"m 1239 701 l 908 0 l 757 0 l 618 458 l 413 0 l 261 0 l 42 701 l 215 701 l 358 208 l 576 701 l 703 701 l 846 204 l 1065 701 l 1239 701 m 592 792 l 749 1078 l 935 1078 l 703 792 l 592 792 z "},"ŵ":{"ha":1226,"x_min":42,"x_max":1239,"o":"m 1239 701 l 908 0 l 757 0 l 618 458 l 413 0 l 261 0 l 42 701 l 215 701 l 358 208 l 576 701 l 703 701 l 846 204 l 1065 701 l 1239 701 m 418 792 l 615 1078 l 724 1078 l 878 792 l 740 792 l 663 969 l 563 792 l 418 792 z "}}}
